<svg width="1019" height="993" viewBox="0 0 1019 993" fill="none" xmlns="http://www.w3.org/2000/svg">
<path fill-rule="evenodd" clip-rule="evenodd" d="M217.81 -60.5941C217.81 -74.786 364.136 -174 509.425 -174C654.714 -174 801.04 -74.7536 801.04 -60.5941C801.04 -10.0475 795.661 19.8917 791.125 36.1897C788.112 46.8823 778.099 52.8118 766.986 52.8118H251.864C240.75 52.8118 230.738 46.8823 227.724 36.1897C223.188 19.8917 217.81 -10.0475 217.81 -60.5941ZM460.822 -76.7949C452.229 -76.7949 443.987 -73.3812 437.911 -67.3047C431.834 -61.2282 428.421 -52.9867 428.421 -44.3933C428.421 -35.7998 431.834 -27.5583 437.911 -21.4818C443.987 -15.4053 452.229 -11.9916 460.822 -11.9916H558.027C566.621 -11.9916 574.862 -15.4053 580.939 -21.4818C587.015 -27.5583 590.429 -35.7998 590.429 -44.3933C590.429 -52.9867 587.015 -61.2282 580.939 -67.3047C574.862 -73.3812 566.621 -76.7949 558.027 -76.7949H460.822Z" fill="black" fill-opacity="0.06"/>
<path fill-rule="evenodd" clip-rule="evenodd" d="M251.44 254.286C143.542 220.912 170.76 161.293 211.91 117.615H815.942C848.862 159.673 866.521 216.408 767.016 250.365C771.083 286.461 767.518 323.009 756.552 357.639C745.586 392.269 727.465 424.207 703.362 451.384C679.26 478.56 649.715 500.367 616.643 515.391C583.571 530.415 547.71 538.32 511.387 538.594C475.063 538.868 439.088 531.504 405.793 516.981C372.498 502.458 342.627 481.099 318.118 454.289C293.608 427.479 275.007 395.818 263.52 361.357C252.033 326.897 247.918 290.407 251.44 254.253V254.286ZM500.609 279.624C586.214 279.624 652.573 275.087 703.443 267.181C705.116 293.599 701.375 320.08 692.452 345.001C683.528 369.922 669.61 392.758 651.549 412.11C633.488 431.462 611.665 446.921 587.418 457.541C563.171 468.161 537.011 473.717 510.541 473.87C484.071 474.022 457.849 468.767 433.481 458.428C409.114 448.088 387.115 432.881 368.832 413.738C350.549 394.596 336.369 371.921 327.159 347.105C317.949 322.288 313.903 295.852 315.271 269.417C362.675 275.962 423.428 279.624 500.609 279.624V279.624Z" fill="black" fill-opacity="0.06"/>
<path fill-rule="evenodd" clip-rule="evenodd" d="M782.151 752.688C752.842 706.963 712.502 669.345 664.843 643.299C617.184 617.253 563.738 603.615 509.426 603.64C455.091 603.605 401.622 617.246 353.944 643.304C306.266 669.363 265.913 707.002 236.604 752.753C225.726 735.999 209.02 723.877 189.719 718.731L127.118 701.98C106.37 696.417 84.2609 699.324 65.6551 710.061C47.0493 720.798 33.4702 738.485 27.9045 759.233L2.76077 853.133C0.00701252 863.409 -0.695602 874.127 0.69305 884.675C2.0817 895.222 5.53444 905.393 10.854 914.606C16.1737 923.819 23.256 931.894 31.6965 938.37C40.1371 944.845 49.7706 949.595 60.0469 952.347L122.615 969.131C133.139 971.966 144.128 972.641 154.92 971.115C165.712 969.59 176.083 965.895 185.409 960.253C185.435 968.847 188.873 977.078 194.968 983.136C201.063 989.195 209.315 992.584 217.908 992.558C226.501 992.532 234.733 989.094 240.791 982.999C246.849 976.904 250.238 968.652 250.212 960.059V927.657C250.212 915.312 251.087 903.162 252.74 891.27L421.358 936.471C429.185 953.224 441.628 967.397 457.228 977.327C472.827 987.257 490.934 992.531 509.426 992.531C527.917 992.531 546.025 987.257 561.624 977.327C577.223 967.397 589.667 953.224 597.494 936.471L766.112 891.27C767.765 903.162 768.639 915.312 768.639 927.657V960.059C768.596 968.652 771.969 976.911 778.015 983.018C784.061 989.125 792.286 992.58 800.879 992.623C809.472 992.666 817.731 989.293 823.838 983.247C829.945 977.201 833.4 968.976 833.443 960.383C851.588 971.27 874.01 975.061 896.075 969.131L958.675 952.38C968.952 949.627 978.585 944.878 987.026 938.402C995.466 931.926 1002.55 923.851 1007.87 914.638C1013.19 905.425 1016.64 895.254 1018.03 884.707C1019.42 874.159 1018.72 863.442 1015.96 853.166L990.785 759.266C985.22 738.518 971.64 720.83 953.035 710.093C934.429 699.356 912.32 696.449 891.571 702.012L828.971 718.764C809.714 723.891 793.036 735.964 782.151 752.656V752.688ZM269.751 828.735C287.254 786.404 315.651 749.461 352.056 721.66C388.462 693.86 431.578 676.192 477.024 670.453V803.591C462.503 808.742 449.411 817.263 438.822 828.455C428.233 839.646 420.449 853.19 416.109 867.973L269.751 828.767V828.735ZM749.101 828.735C731.595 786.406 703.197 749.465 666.792 721.665C630.387 693.864 587.272 676.195 541.828 670.453V803.591C571.119 813.96 593.994 837.937 602.743 867.973L749.101 828.767V828.735ZM509.426 927.657C518.019 927.657 526.261 924.244 532.337 918.167C538.414 912.091 541.828 903.849 541.828 895.256C541.828 886.662 538.414 878.421 532.337 872.344C526.261 866.268 518.019 862.854 509.426 862.854C500.832 862.854 492.591 866.268 486.514 872.344C480.438 878.421 477.024 886.662 477.024 895.256C477.024 903.849 480.438 912.091 486.514 918.167C492.591 924.244 500.832 927.657 509.426 927.657Z" fill="black" fill-opacity="0.06"/>
</svg>
