<svg width="70" height="70" viewBox="0 0 70 70" fill="none" xmlns="http://www.w3.org/2000/svg">
<path d="M12.9882 0C9.54763 0.0134071 6.25182 1.38611 3.81896 3.81896C1.38611 6.25182 0.0134071 9.54763 0 12.9882V57.0118C0.0134071 60.4524 1.38611 63.7482 3.81896 66.181C6.25182 68.6139 9.54763 69.9866 12.9882 70H57.0118C60.4524 69.9866 63.7482 68.6139 66.181 66.181C68.6139 63.7482 69.9866 60.4524 70 57.0118V12.9882C69.9866 9.54763 68.6139 6.25182 66.181 3.81896C63.7482 1.38611 60.4524 0.0134071 57.0118 0H12.9882ZM12.9882 6.36364H57.0118C60.7027 6.36364 63.6364 9.29727 63.6364 12.9882V57.0118C63.6364 60.7027 60.7027 63.6364 57.0118 63.6364H12.9882C12.1167 63.6419 11.2528 63.4743 10.4466 63.1433C9.64038 62.8123 8.90792 62.3246 8.29167 61.7083C7.67543 61.0921 7.18768 60.3596 6.85671 59.5534C6.52574 58.7472 6.35814 57.8833 6.36364 57.0118V12.9882C6.36364 9.29727 9.29727 6.36364 12.9882 6.36364ZM34.1059 23.0045C31.7673 22.9823 29.7786 23.0045 28.6618 23.5518C27.9141 23.9145 27.3445 24.7323 27.6914 24.7705C28.1273 24.8341 29.1073 25.0441 29.6323 25.7536C30.3005 26.6605 30.2782 28.7127 30.2782 28.7127C30.2782 28.7127 30.6505 34.3541 29.3682 35.0636C28.4868 35.5473 27.2809 34.5641 24.6718 30.0777C23.3418 27.7677 22.3364 25.2191 22.3364 25.2191C22.3364 25.2191 22.1455 24.745 21.8018 24.4968C21.3786 24.1882 20.7932 24.0864 20.7932 24.0864L14.5664 24.1245C14.5664 24.1245 13.6341 24.1627 13.3 24.5605C12.9882 24.9327 13.2745 25.6645 13.2745 25.6645C13.2745 25.6645 18.1459 37.0618 23.6632 42.805C28.7223 48.0773 34.4655 47.7273 34.4655 47.7273H37.0745C37.0745 47.7273 37.8573 47.6414 38.255 47.2182C38.6305 46.8205 38.6177 46.0727 38.6177 46.0727C38.6177 46.0727 38.5668 42.5823 40.1832 42.0605C41.7868 41.5609 43.8232 45.4395 45.9995 46.9318C47.6541 48.0614 48.9077 47.8132 48.9077 47.8132L54.7273 47.7273C54.7273 47.7273 57.7595 47.5395 56.3182 45.1405C56.2068 44.9559 55.4845 43.3777 52.0068 40.145C48.3509 36.7659 48.8377 37.3132 53.235 31.4586C55.9077 27.8918 56.9768 25.7155 56.6395 24.7705C56.3214 23.8891 54.355 24.1245 54.355 24.1245L47.8036 24.1627C47.8036 24.1627 47.32 24.0991 46.9605 24.3123C46.7132 24.4959 46.5163 24.7388 46.3877 25.0186C46.3877 25.0186 45.3441 27.7773 43.9632 30.1286C41.055 35.0732 39.8745 35.3468 39.4036 35.0382C38.2964 34.3159 38.57 32.1523 38.57 30.625C38.57 25.8141 39.3018 23.8255 37.1541 23.3068C36.4445 23.1318 35.9227 23.0205 34.1091 23.0045H34.1059Z" fill="#191D29"/>
</svg>
