<svg width="1920" height="710" viewBox="0 0 1920 710" fill="none" xmlns="http://www.w3.org/2000/svg">
<path d="M1212.02 162.442C1184.03 119.845 1130.44 115.703 1088.96 139.381L1083.76 142.375L1081.63 142.291C1052.47 142.291 1025.38 156.593 1008.75 180.606L1007.8 181.865C995.769 199.917 987.569 216.457 979.677 232.494C972.541 246.935 965.684 260.761 956.617 273.999C947.521 260.705 940.665 246.851 933.5 232.41C925.58 216.429 917.408 199.889 905.402 181.865L904.479 180.634C896.357 168.813 885.481 159.146 872.79 152.466C860.099 145.786 845.973 142.294 831.631 142.291C808.137 142.313 785.61 151.655 768.994 168.267C752.378 184.878 743.03 207.403 743 230.898C743.022 254.402 752.366 276.936 768.982 293.558C785.598 310.18 808.129 319.532 831.631 319.562C853.321 319.562 874.03 311.529 890.038 297.424L908.285 330.953C862.92 383.456 824.915 444.412 823.795 446.288C789.205 493.922 843.525 569.991 845.876 573.181C847.17 574.978 848.872 576.44 850.843 577.448C852.814 578.455 854.997 578.979 857.211 578.975C859.719 578.942 862.175 578.25 864.332 576.967C866.488 575.685 868.269 573.858 869.496 571.67L956.589 411.667L1043.71 571.67C1044.84 573.746 1046.48 575.502 1048.47 576.775C1050.46 578.047 1052.74 578.794 1055.1 578.947C1057.47 579.159 1059.85 578.736 1062 577.723C1064.15 576.71 1065.99 575.142 1067.33 573.181C1069.65 569.991 1123.97 493.922 1089.97 447.127L1080.93 432.546C1050.82 383.96 1047.71 378.922 1004.95 330.841L1023.17 297.396C1039.3 311.64 1060.08 319.511 1081.6 319.534C1105.1 319.504 1127.63 310.152 1144.25 293.53C1160.87 276.908 1170.21 254.374 1170.23 230.87C1170.23 213.211 1164.9 195.963 1154.93 181.389C1168.13 173.833 1182.83 177.947 1195.67 184.048C1208.71 189.394 1220.78 173.497 1212.02 162.442ZM830.708 259.977C823.286 259.977 816.167 257.028 810.919 251.78C805.671 246.531 802.722 239.413 802.722 231.99C802.722 224.567 805.671 217.449 810.919 212.2C816.167 206.951 823.286 204.003 830.708 204.003C838.13 204.003 845.249 206.951 850.497 212.2C855.745 217.449 858.694 224.567 858.694 231.99C858.694 239.413 855.745 246.531 850.497 251.78C845.249 257.028 838.13 259.977 830.708 259.977ZM956.645 354.994C952.934 354.994 949.374 353.519 946.75 350.895C944.126 348.271 942.652 344.711 942.652 341C942.652 337.289 944.126 333.729 946.75 331.105C949.374 328.481 952.934 327.006 956.645 327.006C960.356 327.006 963.915 328.481 966.539 331.105C969.163 333.729 970.638 337.289 970.638 341C970.638 344.711 969.163 348.271 966.539 350.895C963.915 353.519 960.356 354.994 956.645 354.994ZM1082.58 259.977C1075.16 259.977 1068.04 257.028 1062.79 251.78C1057.54 246.531 1054.6 239.413 1054.6 231.99C1054.6 224.567 1057.54 217.449 1062.79 212.2C1068.04 206.951 1075.16 204.003 1082.58 204.003C1090 204.003 1097.12 206.951 1102.37 212.2C1107.62 217.449 1110.57 224.567 1110.57 231.99C1110.57 239.413 1107.62 246.531 1102.37 251.78C1097.12 257.028 1090 259.977 1082.58 259.977Z" fill="#191D29" fill-opacity="0.06"/>
</svg>
