<svg width="1920" height="911" viewBox="0 0 1920 911" fill="none" xmlns="http://www.w3.org/2000/svg">
<rect width="1920" height="911" fill="#191D29"/>
<path d="M948.939 157.007C945.319 159.109 940.364 157.318 937.89 153.01C936.992 151.471 936.513 149.721 936.5 147.937C936.5 145.104 937.797 142.659 939.974 141.392C941.797 140.335 943.984 140.213 946.128 141.051C948.128 141.833 949.865 143.371 951.023 145.389C951.924 146.929 952.405 148.679 952.419 150.465C952.419 151.771 952.129 152.987 951.62 154.054L954.293 158.711C956.057 161.78 961.744 159.797 967.718 170.193C973.692 180.585 970.683 192.498 970.683 192.498L949.898 156.313C949.597 156.569 949.284 156.807 948.941 157.007L948.939 157.007ZM947.008 153.645C948.707 152.663 949.047 149.7 947.68 147.329C946.96 146.076 945.912 145.129 944.731 144.671C943.698 144.264 942.694 144.295 941.905 144.753C940.92 145.321 940.361 146.483 940.361 147.935C940.361 148.988 940.662 150.073 941.235 151.07C942.617 153.482 945.261 154.66 947.006 153.645L947.008 153.645ZM959.598 168.914C960.53 168.914 961.287 168.158 961.287 167.219C961.287 167.149 961.254 167.089 961.248 167.019L958.329 168.313C958.484 168.501 958.678 168.652 958.897 168.757C959.116 168.862 959.355 168.917 959.598 168.918L959.598 168.914ZM957.909 167.219C957.909 167.292 957.941 167.355 957.947 167.422L960.862 166.13C960.709 165.942 960.516 165.789 960.297 165.684C960.079 165.579 959.84 165.524 959.598 165.523C958.665 165.523 957.909 166.28 957.909 167.219ZM949.319 192.5C949.319 192.5 946.308 180.587 952.282 170.195C952.88 169.153 953.475 168.265 954.065 167.45L958.885 175.841L949.319 192.498L949.319 192.5ZM962.117 161.01C963.757 160.331 965.027 159.896 965.707 158.709L968.38 154.052C967.847 152.932 967.574 151.705 967.581 150.463C967.581 148.73 968.064 146.976 968.971 145.389C971.447 141.082 976.406 139.289 980.026 141.392C982.201 142.653 983.5 145.098 983.5 147.935C983.5 149.669 983.017 151.427 982.11 153.01C980.948 155.028 979.211 156.567 977.213 157.349C975.067 158.187 972.88 158.063 971.056 157.003C970.719 156.802 970.4 156.571 970.104 156.313L965.664 164.039C964.612 162.885 963.42 161.869 962.117 161.012L962.117 161.01ZM975.812 153.734C976.993 153.272 978.041 152.327 978.761 151.076C980.124 148.705 979.788 145.74 978.091 144.755C976.348 143.742 973.702 144.922 972.316 147.331C971.758 148.281 971.457 149.362 971.444 150.465C971.444 151.92 972.003 153.076 972.988 153.647C973.779 154.107 974.783 154.138 975.814 153.734L975.812 153.734Z" fill="white"/>
<rect x="958" y="209" width="3" height="31" fill="#C4C4C4"/>
<rect x="958" y="593" width="3" height="31" fill="#C4C4C4"/>
<rect x="958" y="401" width="3" height="31" fill="#C4C4C4"/>
<rect x="958" y="785" width="3" height="31" fill="#C4C4C4"/>
<rect x="958" y="305" width="3" height="31" fill="#C4C4C4"/>
<rect x="958" y="689" width="3" height="31" fill="#C4C4C4"/>
<rect x="958" y="497" width="3" height="31" fill="#C4C4C4"/>
<rect x="958" y="257" width="3" height="31" fill="#C4C4C4"/>
<rect x="958" y="641" width="3" height="31" fill="#C4C4C4"/>
<rect x="958" y="449" width="3" height="31" fill="#C4C4C4"/>
<rect x="958" y="353" width="3" height="31" fill="#C4C4C4"/>
<rect x="958" y="737" width="3" height="31" fill="#C4C4C4"/>
<rect x="958" y="545" width="3" height="31" fill="#C4C4C4"/>
</svg>
