<svg width="75" height="100" viewBox="0 0 75 100" fill="none" xmlns="http://www.w3.org/2000/svg">
<path d="M71.8146 45.368C69.7464 40.5647 66.7398 36.2534 62.9829 32.704L59.8827 29.7689C59.7775 29.6719 59.6508 29.6031 59.5138 29.5685C59.3767 29.5339 59.2336 29.5346 59.0968 29.5704C58.9601 29.6062 58.834 29.6761 58.7295 29.774C58.6251 29.8718 58.5455 29.9946 58.4978 30.1316L57.1129 34.232C56.2499 36.8044 54.6626 39.4318 52.4147 42.0151C52.2656 42.18 52.0951 42.224 51.9779 42.235C51.8607 42.246 51.6796 42.224 51.5198 42.0701C51.3707 41.9382 51.2961 41.7403 51.3068 41.5424C51.7009 34.9246 49.7833 27.4603 45.5859 19.3364C42.1129 12.5867 37.2869 7.32098 31.2571 3.64929L26.8572 0.977971C26.2819 0.626193 25.5469 1.0879 25.5788 1.78047L25.8132 7.05715C25.973 10.6629 25.5682 13.8509 24.6094 16.5002C23.4375 19.7432 21.7542 22.7553 19.6023 25.4596C18.1046 27.339 16.4072 29.0389 14.5419 30.5274C10.0494 34.091 6.39644 38.6571 3.85653 43.884C1.32287 49.1564 0.0030912 54.9612 0 60.8463C0 66.035 0.990766 71.0589 2.95099 75.7969C4.84374 80.3586 7.57519 84.4987 10.9943 87.9882C14.446 91.506 18.4517 94.2762 22.9155 96.2C27.539 98.2008 32.4396 99.2121 37.5 99.2121C42.5603 99.2121 47.4609 98.2008 52.0845 96.211C56.5372 94.2985 60.5864 91.5093 64.0056 87.9992C67.4573 84.4814 70.1633 80.37 72.0489 75.8079C74.0062 71.0828 75.0103 65.9959 74.9999 60.8573C74.9999 55.4927 73.9346 50.2819 71.8146 45.368ZM58.9133 82.6676C53.1924 88.5159 45.5965 91.7259 37.5 91.7259C29.4034 91.7259 21.8075 88.5159 16.0866 82.6676C10.3871 76.8302 7.24431 69.0911 7.24431 60.8573C7.24431 56.0753 8.28834 51.4912 10.3444 47.2259C12.3473 43.0595 15.3302 39.3328 18.9524 36.4636C21.2625 34.6409 23.3577 32.5453 25.1953 30.2196C27.8586 26.8667 29.9467 23.129 31.3956 19.1166C31.9899 17.4614 32.4217 15.7489 32.6846 14.0048C35.2521 16.4452 37.4041 19.3914 39.2045 22.8432C42.7627 29.7249 44.4034 35.848 44.0838 41.0587C44.0074 42.286 44.2016 43.5151 44.6519 44.6537C45.1021 45.7923 45.7966 46.8108 46.6832 47.6326C47.4515 48.3488 48.3501 48.9003 49.3267 49.255C50.3033 49.6098 51.3385 49.7608 52.3721 49.6993C54.4708 49.5894 56.3991 48.633 57.8053 47.017C59.2222 45.379 60.4474 43.7081 61.4701 42.0042C62.9616 43.9719 64.208 46.1156 65.1988 48.4241C66.8927 52.3596 67.7556 56.548 67.7556 60.8573C67.7556 69.0911 64.6129 76.8412 58.9133 82.6676Z" fill="black"/>
</svg>
