<svg width="1920" height="955" viewBox="0 0 1920 955" fill="none" xmlns="http://www.w3.org/2000/svg">
<g clip-path="url(#clip0)">
<rect width="1920" height="930" fill="#191D29"/>
<path d="M949.439 919.507C945.819 921.609 940.864 919.818 938.39 915.51C937.492 913.971 937.013 912.221 937 910.437C937 907.604 938.297 905.159 940.474 903.892C942.297 902.835 944.484 902.713 946.628 903.551C948.628 904.333 950.365 905.871 951.523 907.889C952.424 909.429 952.905 911.179 952.919 912.965C952.919 914.271 952.629 915.487 952.12 916.554L954.793 921.211C956.557 924.28 962.244 922.297 968.218 932.693C974.192 943.085 971.183 954.998 971.183 954.998L950.398 918.813C950.097 919.069 949.784 919.307 949.441 919.507L949.439 919.507ZM947.508 916.145C949.207 915.163 949.547 912.2 948.18 909.829C947.46 908.576 946.412 907.629 945.231 907.171C944.198 906.764 943.194 906.795 942.405 907.253C941.42 907.821 940.861 908.983 940.861 910.435C940.861 911.488 941.162 912.573 941.735 913.57C943.117 915.982 945.761 917.16 947.506 916.145L947.508 916.145ZM960.098 931.414C961.03 931.414 961.787 930.658 961.787 929.719C961.787 929.649 961.754 929.589 961.748 929.519L958.829 930.813C958.984 931.001 959.178 931.152 959.397 931.257C959.616 931.362 959.855 931.417 960.098 931.418L960.098 931.414ZM958.409 929.719C958.409 929.792 958.441 929.855 958.447 929.922L961.362 928.63C961.209 928.442 961.016 928.289 960.797 928.184C960.579 928.079 960.34 928.024 960.098 928.023C959.165 928.023 958.409 928.78 958.409 929.719ZM949.819 955C949.819 955 946.808 943.087 952.782 932.695C953.38 931.653 953.975 930.765 954.565 929.95L959.385 938.341L949.819 954.998L949.819 955ZM962.617 923.51C964.257 922.831 965.527 922.396 966.207 921.209L968.88 916.552C968.347 915.432 968.074 914.205 968.081 912.963C968.081 911.23 968.564 909.476 969.471 907.889C971.947 903.582 976.906 901.789 980.526 903.892C982.701 905.153 984 907.598 984 910.435C984 912.169 983.517 913.927 982.61 915.51C981.448 917.528 979.711 919.067 977.713 919.849C975.567 920.687 973.38 920.563 971.556 919.503C971.219 919.302 970.9 919.071 970.604 918.813L966.164 926.539C965.112 925.385 963.92 924.369 962.617 923.512L962.617 923.51ZM976.312 916.234C977.493 915.772 978.541 914.827 979.261 913.576C980.624 911.205 980.288 908.24 978.591 907.255C976.848 906.242 974.202 907.422 972.816 909.831C972.258 910.781 971.957 911.862 971.944 912.965C971.944 914.42 972.503 915.576 973.488 916.147C974.279 916.607 975.283 916.638 976.314 916.234L976.312 916.234Z" fill="white"/>
</g>
<defs>
<clipPath id="clip0">
<rect width="1920" height="955" fill="white"/>
</clipPath>
</defs>
</svg>
