<svg width="48" height="48" viewBox="0 0 48 48" fill="none" xmlns="http://www.w3.org/2000/svg">
<rect x="13" y="24" width="23" height="13" fill="#6C6C6C"/>
<rect x="10" y="5" width="27" height="32" fill="#C4C4C4"/>
<rect x="5" y="29" width="8" height="8" fill="#FF8A00"/>
<rect x="35" y="29" width="8" height="8" fill="#FF8A00"/>
<rect x="33" y="26" width="11" height="13" fill="#C4C4C4"/>
<rect x="2" y="26" width="11" height="13" fill="#C4C4C4"/>
<path d="M45 41.8594V45C45 45.8125 44.7031 46.5156 44.1094 47.1094C43.5156 47.7031 42.8047 48 41.9766 48C41.1484 48 40.4453 47.7031 39.8672 47.1094C39.2891 46.5156 39 45.8125 39 45V42H9V45C9 45.8125 8.71094 46.5156 8.13281 47.1094C7.55469 47.7031 6.84375 48 6 48C5.15625 48 4.44531 47.7031 3.86719 47.1094C3.28906 46.5156 3 45.8125 3 45V41.8594C1.9375 41.7031 1.17188 41.2813 0.703125 40.5938C0.234375 39.9062 0 38.875 0 37.5V7.5C0 7.0625 0.148437 6.70312 0.445312 6.42188C0.742188 6.14062 1.09375 6 1.5 6C1.90625 6 2.25781 6.14062 2.55469 6.42188C2.85156 6.70312 3 7.0625 3 7.5V23.1562C4 21.6875 5 20.5 6 19.5938V3C6 2.15625 6.29687 1.44531 6.89062 0.867188C7.48438 0.289063 8.1875 0 9 0H39C39.8125 0 40.5156 0.289063 41.1094 0.867188C41.7031 1.44531 42 2.15625 42 3V19.5938C43 20.5 44 21.6875 45 23.1562V7.5C45 7.0625 45.1484 6.70312 45.4453 6.42188C45.7422 6.14062 46.0937 6 46.5 6C46.9063 6 47.2578 6.14062 47.5547 6.42188C47.8516 6.70312 48 7.0625 48 7.5V37.5C48 38.875 47.7656 39.9062 47.2969 40.5938C46.8281 41.2813 46.0625 41.7031 45 41.8594V41.8594ZM15 33C15 33.8125 15.2891 34.5156 15.8672 35.1094C16.4453 35.7031 17.1562 36 18 36H30C30.8125 36 31.5156 35.7031 32.1094 35.1094C32.7031 34.5156 33 33.8125 33 33V27C33 26.1562 32.7031 25.4453 32.1094 24.8672C31.5156 24.2891 30.8125 24 30 24H18C17.1562 24 16.4453 24.2891 15.8672 24.8672C15.2891 25.4453 15 26.1562 15 27V33ZM8.97656 30C8.14844 30 7.44531 30.2891 6.86719 30.8672C6.28906 31.4453 6 32.1484 6 32.9766C6 33.8047 6.28906 34.5156 6.86719 35.1094C7.44531 35.7031 8.14844 36 8.97656 36C9.80469 36 10.5156 35.7031 11.1094 35.1094C11.7031 34.5156 12 33.8047 12 32.9766C12 32.1484 11.7031 31.4453 11.1094 30.8672C10.5156 30.2891 9.80469 30 8.97656 30ZM36 9C36 8.15625 35.7031 7.44531 35.1094 6.86719C34.5156 6.28906 33.8125 6 33 6H15C14.1562 6 13.4453 6.28906 12.8672 6.86719C12.2891 7.44531 12 8.15625 12 9V15C12 15.8125 12.2891 16.5156 12.8672 17.1094C13.4453 17.7031 14.1562 18 15 18H33C33.8125 18 34.5156 17.7031 35.1094 17.1094C35.7031 16.5156 36 15.8125 36 15V9ZM38.9766 30C38.1484 30 37.4453 30.2891 36.8672 30.8672C36.2891 31.4453 36 32.1484 36 32.9766C36 33.8047 36.2891 34.5156 36.8672 35.1094C37.4453 35.7031 38.1484 36 38.9766 36C39.8047 36 40.5156 35.7031 41.1094 35.1094C41.7031 34.5156 42 33.8047 42 32.9766C42 32.1484 41.7031 31.4453 41.1094 30.8672C40.5156 30.2891 39.8047 30 38.9766 30Z" fill="white"/>
<path d="M45 41.8594V45C45 45.8125 44.7031 46.5156 44.1094 47.1094C43.5156 47.7031 42.8047 48 41.9766 48C41.1484 48 40.4453 47.7031 39.8672 47.1094C39.2891 46.5156 39 45.8125 39 45V42H9V45C9 45.8125 8.71094 46.5156 8.13281 47.1094C7.55469 47.7031 6.84375 48 6 48C5.15625 48 4.44531 47.7031 3.86719 47.1094C3.28906 46.5156 3 45.8125 3 45V41.8594C1.9375 41.7031 1.17188 41.2813 0.703125 40.5938C0.234375 39.9062 0 38.875 0 37.5V7.5C0 7.0625 0.148437 6.70312 0.445312 6.42188C0.742188 6.14062 1.09375 6 1.5 6C1.90625 6 2.25781 6.14062 2.55469 6.42188C2.85156 6.70312 3 7.0625 3 7.5V23.1562C4 21.6875 5 20.5 6 19.5938V3C6 2.15625 6.29687 1.44531 6.89062 0.867188C7.48438 0.289063 8.1875 0 9 0H39C39.8125 0 40.5156 0.289063 41.1094 0.867188C41.7031 1.44531 42 2.15625 42 3V19.5938C43 20.5 44 21.6875 45 23.1562V7.5C45 7.0625 45.1484 6.70312 45.4453 6.42188C45.7422 6.14062 46.0937 6 46.5 6C46.9063 6 47.2578 6.14062 47.5547 6.42188C47.8516 6.70312 48 7.0625 48 7.5V37.5C48 38.875 47.7656 39.9062 47.2969 40.5938C46.8281 41.2813 46.0625 41.7031 45 41.8594V41.8594ZM15 33C15 33.8125 15.2891 34.5156 15.8672 35.1094C16.4453 35.7031 17.1562 36 18 36H30C30.8125 36 31.5156 35.7031 32.1094 35.1094C32.7031 34.5156 33 33.8125 33 33V27C33 26.1562 32.7031 25.4453 32.1094 24.8672C31.5156 24.2891 30.8125 24 30 24H18C17.1562 24 16.4453 24.2891 15.8672 24.8672C15.2891 25.4453 15 26.1562 15 27V33ZM8.97656 30C8.14844 30 7.44531 30.2891 6.86719 30.8672C6.28906 31.4453 6 32.1484 6 32.9766C6 33.8047 6.28906 34.5156 6.86719 35.1094C7.44531 35.7031 8.14844 36 8.97656 36C9.80469 36 10.5156 35.7031 11.1094 35.1094C11.7031 34.5156 12 33.8047 12 32.9766C12 32.1484 11.7031 31.4453 11.1094 30.8672C10.5156 30.2891 9.80469 30 8.97656 30ZM36 9C36 8.15625 35.7031 7.44531 35.1094 6.86719C34.5156 6.28906 33.8125 6 33 6H15C14.1562 6 13.4453 6.28906 12.8672 6.86719C12.2891 7.44531 12 8.15625 12 9V15C12 15.8125 12.2891 16.5156 12.8672 17.1094C13.4453 17.7031 14.1562 18 15 18H33C33.8125 18 34.5156 17.7031 35.1094 17.1094C35.7031 16.5156 36 15.8125 36 15V9ZM38.9766 30C38.1484 30 37.4453 30.2891 36.8672 30.8672C36.2891 31.4453 36 32.1484 36 32.9766C36 33.8047 36.2891 34.5156 36.8672 35.1094C37.4453 35.7031 38.1484 36 38.9766 36C39.8047 36 40.5156 35.7031 41.1094 35.1094C41.7031 34.5156 42 33.8047 42 32.9766C42 32.1484 41.7031 31.4453 41.1094 30.8672C40.5156 30.2891 39.8047 30 38.9766 30Z" fill="white"/>
</svg>
