<svg width="15" height="112" viewBox="0 0 15 112" fill="none" xmlns="http://www.w3.org/2000/svg">
<rect width="15" height="112" fill="#191D29"/>
<path d="M4 3.588L4.516 3.588L4.732 4.62L11.608 4.62L11.8 3.588L12.316 3.588L12.376 6.648L11.86 6.648L11.62 5.604L8.632 5.604L8.632 9.948L11.62 9.948L11.8 8.916L12.316 8.916L12.376 11.976L11.86 11.976L11.62 10.932L4.732 10.932L4.516 11.976L4 11.976L4 8.916L4.516 8.916L4.732 9.948L7.9 9.948L7.9 5.604L4.732 5.604L4.516 6.648L4 6.648L4 3.588ZM3.94 17.0076L4.984 16.8756C4.624 16.5316 4.352 16.1596 4.168 15.7596C3.984 15.3676 3.892 14.9876 3.892 14.6196C3.892 14.1556 4.04 13.7636 4.336 13.4436C4.64 13.1236 5.092 12.9636 5.692 12.9636C6.148 12.9636 6.504 13.0596 6.76 13.2516C7.024 13.4516 7.208 13.7276 7.312 14.0796C7.416 14.4316 7.468 14.8436 7.468 15.3156L7.468 16.7796L8.488 16.7796C8.92 16.7796 9.232 16.6636 9.424 16.4316C9.616 16.1996 9.712 15.8796 9.712 15.4716C9.712 15.0716 9.632 14.6276 9.472 14.1396L8.5 14.0436L8.5 13.3956L9.988 13.2996C10.14 13.7556 10.252 14.1836 10.324 14.5836C10.404 14.9836 10.444 15.3556 10.444 15.6996C10.444 16.3316 10.3 16.8276 10.012 17.1876C9.732 17.5556 9.28 17.7396 8.656 17.7396L4.72 17.7396L4.54 18.6876L4.012 18.6876L3.94 17.0076ZM5.764 13.9356C5.372 13.9356 5.084 14.0276 4.9 14.2116C4.716 14.4036 4.624 14.6436 4.624 14.9316C4.624 15.2036 4.704 15.5036 4.864 15.8316C5.024 16.1596 5.244 16.4756 5.524 16.7796L6.832 16.7796L6.832 15.4596C6.832 14.8916 6.744 14.4956 6.568 14.2716C6.4 14.0476 6.132 13.9356 5.764 13.9356ZM4 19.3698L4.516 19.3698L4.732 20.3058L9.592 20.3058L9.796 19.3698L10.3 19.3698L10.372 22.1418L9.868 22.1418L9.628 21.2298L5.884 21.2298L9.364 24.5658L9.616 24.5658L9.796 23.6418L10.3 23.6418L10.372 26.4138L9.868 26.4138L9.628 25.4778L4.732 25.4778L4.516 26.4138L4 26.4138L4 23.6418L4.516 23.6418L4.72 24.5538L8.548 24.5538L4.996 21.2298L4.696 21.2298L4.516 22.1418L4 22.1418L4 19.3698ZM11.692 22.8978C11.692 22.4258 11.808 22.0138 12.04 21.6618C12.272 21.3098 12.648 21.1178 13.168 21.0858L13.228 22.0098C12.884 22.0338 12.632 22.1418 12.472 22.3338C12.32 22.5338 12.244 22.7698 12.244 23.0418C12.244 23.3058 12.32 23.5258 12.472 23.7018C12.624 23.8778 12.864 23.9618 13.192 23.9538L13.228 24.6858C12.876 24.6858 12.584 24.6018 12.352 24.4338C12.128 24.2738 11.96 24.0578 11.848 23.7858C11.744 23.5218 11.692 23.2258 11.692 22.8978ZM2.104 26.9914L4.576 26.9554L4.672 27.6034C4.864 27.8354 5.088 28.0394 5.344 28.2154C5.6 28.3914 5.912 28.5354 6.28 28.6474C6.656 28.7674 7.116 28.8594 7.66 28.9234C8.204 28.9874 8.856 29.0234 9.616 29.0314L9.82 27.9874L10.336 27.9874L10.336 33.5194L9.82 33.5194L9.604 32.5714L4.696 32.5714L4.552 33.8314L2.104 33.8194L2.104 33.2074L4 32.9554L4 27.8314L2.104 27.5914L2.104 26.9914ZM4.732 28.5034L4.732 31.6114L9.604 31.6114L9.604 29.7394C8.7 29.7234 7.932 29.6714 7.3 29.5834C6.668 29.5034 6.144 29.3754 5.728 29.1994C5.32 29.0234 4.988 28.7914 4.732 28.5034ZM4 34.3463L4.516 34.3463L4.732 35.2823L9.592 35.2823L9.796 34.3463L10.3 34.3463L10.372 37.1183L9.868 37.1183L9.628 36.2063L5.884 36.2063L9.364 39.5423L9.616 39.5423L9.796 38.6183L10.3 38.6183L10.372 41.3903L9.868 41.3903L9.628 40.4543L4.732 40.4543L4.516 41.3903L4 41.3903L4 38.6183L4.516 38.6183L4.72 39.5303L8.548 39.5303L4.996 36.2063L4.696 36.2063L4.516 37.1183L4 37.1183L4 34.3463ZM3.892 47.5023C3.892 46.9903 4.016 46.5263 4.264 46.1103C4.52 45.7023 4.888 45.3783 5.368 45.1383C5.848 44.9063 6.424 44.7903 7.096 44.7903C7.872 44.7903 8.504 44.9303 8.992 45.2103C9.488 45.4903 9.852 45.8583 10.084 46.3143C10.324 46.7783 10.444 47.2743 10.444 47.8023C10.444 48.1223 10.4 48.4623 10.312 48.8223C10.224 49.1903 10.104 49.5103 9.952 49.7823L8.452 49.7343L8.452 49.0863L9.52 48.9303C9.592 48.7463 9.644 48.5503 9.676 48.3423C9.716 48.1343 9.736 47.9503 9.736 47.7903C9.736 47.1663 9.504 46.6743 9.04 46.3143C8.576 45.9623 7.948 45.7863 7.156 45.7863C6.34 45.7863 5.716 45.9663 5.284 46.3263C4.852 46.6943 4.636 47.1583 4.636 47.7183C4.636 47.9983 4.692 48.2983 4.804 48.6183C4.924 48.9463 5.108 49.2823 5.356 49.6263L4.828 49.9623C4.508 49.5463 4.272 49.1303 4.12 48.7143C3.968 48.2983 3.892 47.8943 3.892 47.5023ZM10.336 52.5903L10.336 53.7903C10.336 54.5583 10.216 55.1423 9.976 55.5423C9.744 55.9503 9.36 56.1543 8.824 56.1543C8.4 56.1543 8.068 56.0263 7.828 55.7703C7.596 55.5143 7.436 55.1343 7.348 54.6303C7.292 55.1903 7.132 55.6303 6.868 55.9503C6.612 56.2783 6.228 56.4423 5.716 56.4423C5.14 56.4423 4.708 56.2183 4.42 55.7703C4.14 55.3303 4 54.6383 4 53.6943L4 50.6943L4.516 50.6943L4.72 51.6303L9.592 51.6303L9.784 50.6943L10.3 50.6943L10.336 52.5903ZM9.676 53.5983L9.676 52.5903L7.576 52.5903L7.576 53.2983C7.576 53.9783 7.668 54.4623 7.852 54.7503C8.036 55.0463 8.312 55.1943 8.68 55.1943C9.04 55.1943 9.296 55.0623 9.448 54.7983C9.6 54.5343 9.676 54.1343 9.676 53.5983ZM4.672 53.5863C4.672 54.2343 4.76 54.7023 4.936 54.9903C5.112 55.2863 5.404 55.4343 5.812 55.4343C6.204 55.4343 6.504 55.3023 6.712 55.0383C6.92 54.7823 7.024 54.3783 7.024 53.8263L7.024 52.5903L4.672 52.5903L4.672 53.5863ZM10.444 60.5514C10.444 61.4234 10.168 62.1114 9.616 62.6154C9.064 63.1194 8.284 63.3714 7.276 63.3714C6.588 63.3714 5.992 63.2514 5.488 63.0114C4.984 62.7714 4.592 62.4234 4.312 61.9674C4.032 61.5194 3.892 60.9794 3.892 60.3474C3.892 59.4834 4.16 58.8074 4.696 58.3194C5.24 57.8314 6.02 57.5874 7.036 57.5874C7.732 57.5874 8.336 57.7034 8.848 57.9354C9.36 58.1754 9.752 58.5154 10.024 58.9554C10.304 59.4034 10.444 59.9354 10.444 60.5514ZM9.736 60.5034C9.736 59.8874 9.504 59.4154 9.04 59.0874C8.576 58.7594 7.924 58.5954 7.084 58.5954C6.26 58.5954 5.64 58.7514 5.224 59.0634C4.808 59.3754 4.6 59.8234 4.6 60.4074C4.6 61.0474 4.832 61.5314 5.296 61.8594C5.76 62.1954 6.404 62.3634 7.228 62.3634C8.044 62.3634 8.664 62.1994 9.088 61.8714C9.52 61.5514 9.736 61.0954 9.736 60.5034ZM4 64.3698L4.516 64.3698L4.732 65.3058L9.592 65.3058L9.796 64.3698L10.3 64.3698L10.372 67.1418L9.868 67.1418L9.628 66.2298L5.884 66.2298L9.364 69.5658L9.616 69.5658L9.796 68.6418L10.3 68.6418L10.372 71.4138L9.868 71.4138L9.628 70.4778L4.732 70.4778L4.516 71.4138L4 71.4138L4 68.6418L4.516 68.6418L4.72 69.5538L8.548 69.5538L4.996 66.2298L4.696 66.2298L4.516 67.1418L4 67.1418L4 64.3698ZM11.692 67.8978C11.692 67.4258 11.808 67.0138 12.04 66.6618C12.272 66.3098 12.648 66.1178 13.168 66.0858L13.228 67.0098C12.884 67.0338 12.632 67.1418 12.472 67.3338C12.32 67.5338 12.244 67.7698 12.244 68.0418C12.244 68.3058 12.32 68.5258 12.472 68.7018C12.624 68.8778 12.864 68.9618 13.192 68.9538L13.228 69.6858C12.876 69.6858 12.584 69.6018 12.352 69.4338C12.128 69.2738 11.96 69.0578 11.848 68.7858C11.744 68.5218 11.692 68.2258 11.692 67.8978ZM3.892 77.5257C3.892 77.0137 4.016 76.5497 4.264 76.1337C4.52 75.7257 4.888 75.4017 5.368 75.1617C5.848 74.9297 6.424 74.8137 7.096 74.8137C7.872 74.8137 8.504 74.9537 8.992 75.2337C9.488 75.5137 9.852 75.8817 10.084 76.3377C10.324 76.8017 10.444 77.2977 10.444 77.8257C10.444 78.1457 10.4 78.4857 10.312 78.8457C10.224 79.2137 10.104 79.5337 9.952 79.8057L8.452 79.7577L8.452 79.1097L9.52 78.9537C9.592 78.7697 9.644 78.5737 9.676 78.3657C9.716 78.1577 9.736 77.9737 9.736 77.8137C9.736 77.1897 9.504 76.6977 9.04 76.3377C8.576 75.9857 7.948 75.8097 7.156 75.8097C6.34 75.8097 5.716 75.9897 5.284 76.3497C4.852 76.7177 4.636 77.1817 4.636 77.7417C4.636 78.0217 4.692 78.3217 4.804 78.6417C4.924 78.9697 5.108 79.3057 5.356 79.6497L4.828 79.9857C4.508 79.5697 4.272 79.1537 4.12 78.7377C3.968 78.3217 3.892 77.9177 3.892 77.5257ZM4 81.7849L4.516 81.7849L4.696 82.9009L9.604 82.9009L9.604 81.2689L8.488 81.0889L8.488 80.4889L10.336 80.4889L10.336 86.2729L8.488 86.2729L8.488 85.6729L9.604 85.4929L9.604 83.8609L4.708 83.8609L4.516 85.0009L4 85.0009L4 81.7849ZM4 86.7643L4.516 86.7643L4.732 87.7003L9.592 87.7003L9.796 86.7643L10.3 86.7643L10.372 89.5363L9.868 89.5363L9.628 88.6243L5.884 88.6243L9.364 91.9603L9.616 91.9603L9.796 91.0363L10.3 91.0363L10.372 93.8083L9.868 93.8083L9.628 92.8723L4.732 92.8723L4.516 93.8083L4 93.8083L4 91.0363L4.516 91.0363L4.72 91.9483L8.548 91.9483L4.996 88.6243L4.696 88.6243L4.516 89.5363L4 89.5363L4 86.7643ZM3.904 95.0579C3.904 94.8419 3.944 94.5939 4.024 94.3139L4.804 94.4579C4.78 94.5779 4.768 94.6979 4.768 94.8179C4.768 95.2659 4.96 95.5979 5.344 95.8139C5.728 96.0379 6.28 96.1859 7 96.2579C7.728 96.3379 8.6 96.3859 9.616 96.4019L9.82 95.3579L10.336 95.3579L10.336 100.95L9.82 100.95L9.604 100.014L4.72 100.014L4.516 100.95L4 100.95L4 98.1059L4.516 98.1059L4.72 99.0539L9.604 99.0539L9.604 97.1579C8.412 97.1419 7.392 97.0739 6.544 96.9539C5.696 96.8419 5.044 96.6339 4.588 96.3299C4.132 96.0339 3.904 95.6099 3.904 95.0579ZM4 101.835L4.516 101.835L4.72 102.771L9.604 102.771L9.796 101.835L10.3 101.835L10.372 104.811L9.868 104.811L9.64 103.731L7.996 103.731L7.996 105.039C7.996 105.759 7.832 106.311 7.504 106.695C7.176 107.087 6.692 107.283 6.052 107.283C5.404 107.283 4.9 107.063 4.54 106.623C4.18 106.191 4 105.491 4 104.523L4 101.835ZM7.324 104.811L7.324 103.731L4.672 103.731L4.672 104.523C4.672 105.147 4.784 105.599 5.008 105.879C5.24 106.167 5.58 106.311 6.028 106.311C6.892 106.311 7.324 105.811 7.324 104.811Z" fill="#969696"/>
</svg>
