<svg width="23" height="23" viewBox="0 0 23 23" fill="none" xmlns="http://www.w3.org/2000/svg">
<path fill-rule="evenodd" clip-rule="evenodd" d="M6.77612 0.110406C7.998 0.0541565 8.38758 0.0416565 11.5001 0.0416565C14.6126 0.0416565 15.0022 0.0551981 16.223 0.110406C17.4438 0.165615 18.2772 0.360407 19.0063 0.642698C19.7699 0.93124 20.4626 1.38228 21.0355 1.96561C21.6188 2.53749 22.0688 3.22916 22.3563 3.99374C22.6397 4.72291 22.8334 5.55624 22.8897 6.77499C22.9459 7.99895 22.9584 8.38853 22.9584 11.5C22.9584 14.6125 22.9449 15.0021 22.8897 16.2239C22.8345 17.4427 22.6397 18.276 22.3563 19.0052C22.0688 19.7699 21.6181 20.4627 21.0355 21.0354C20.4626 21.6187 19.7699 22.0687 19.0063 22.3562C18.2772 22.6396 17.4438 22.8333 16.2251 22.8896C15.0022 22.9458 14.6126 22.9583 11.5001 22.9583C8.38758 22.9583 7.998 22.9448 6.77612 22.8896C5.55737 22.8344 4.72404 22.6396 3.99487 22.3562C3.23021 22.0687 2.53739 21.618 1.96466 21.0354C1.38173 20.4632 0.930618 19.7707 0.64279 19.0062C0.360498 18.2771 0.166748 17.4437 0.110498 16.225C0.054248 15.001 0.041748 14.6114 0.041748 11.5C0.041748 8.38749 0.0552897 7.99791 0.110498 6.77707C0.165706 5.55624 0.360498 4.72291 0.64279 3.99374C0.931043 3.22924 1.3825 2.53677 1.96571 1.96457C2.53762 1.38176 3.22974 0.93066 3.99383 0.642698C4.723 0.360407 5.55633 0.166656 6.77508 0.110406H6.77612ZM16.1303 2.17291C14.922 2.1177 14.5595 2.10624 11.5001 2.10624C8.44071 2.10624 8.07821 2.1177 6.86987 2.17291C5.75216 2.22395 5.14591 2.41041 4.74175 2.5677C4.20737 2.77603 3.82508 3.02291 3.42404 3.42395C3.04388 3.79379 2.75131 4.24403 2.56779 4.74166C2.4105 5.14582 2.22404 5.75207 2.173 6.86978C2.11779 8.07811 2.10633 8.44061 2.10633 11.5C2.10633 14.5594 2.11779 14.9219 2.173 16.1302C2.22404 17.2479 2.4105 17.8542 2.56779 18.2583C2.75112 18.7552 3.04383 19.2062 3.42404 19.576C3.79383 19.9562 4.24487 20.2489 4.74175 20.4323C5.14591 20.5896 5.75216 20.776 6.86987 20.8271C8.07821 20.8823 8.43966 20.8937 11.5001 20.8937C14.5605 20.8937 14.922 20.8823 16.1303 20.8271C17.248 20.776 17.8542 20.5896 18.2584 20.4323C18.7928 20.2239 19.1751 19.9771 19.5761 19.576C19.9563 19.2062 20.249 18.7552 20.4324 18.2583C20.5897 17.8542 20.7761 17.2479 20.8272 16.1302C20.8824 14.9219 20.8938 14.5594 20.8938 11.5C20.8938 8.44061 20.8824 8.07811 20.8272 6.86978C20.7761 5.75207 20.5897 5.14582 20.4324 4.74166C20.224 4.20728 19.9772 3.82499 19.5761 3.42395C19.2063 3.04381 18.756 2.75125 18.2584 2.5677C17.8542 2.41041 17.248 2.22395 16.1303 2.17291ZM10.0365 15.0323C10.8539 15.3725 11.764 15.4184 12.6115 15.1622C13.4589 14.906 14.1911 14.3634 14.683 13.6273C15.1749 12.8912 15.396 12.0071 15.3085 11.1261C15.221 10.2451 14.8303 9.42184 14.2032 8.79686C13.8035 8.39736 13.3201 8.09146 12.7879 7.90118C12.2558 7.71091 11.688 7.64099 11.1256 7.69646C10.5632 7.75194 10.02 7.93142 9.53529 8.222C9.05056 8.51258 8.63627 8.90701 8.32227 9.37692C8.00827 9.84682 7.80236 10.3805 7.71937 10.9395C7.63638 11.4986 7.67836 12.069 7.84231 12.6099C8.00626 13.1508 8.28808 13.6485 8.6675 14.0674C9.04691 14.4863 9.51448 14.8158 10.0365 15.0323ZM7.3355 7.33541C7.8824 6.78851 8.53166 6.35468 9.24622 6.0587C9.96078 5.76272 10.7266 5.61038 11.5001 5.61038C12.2735 5.61038 13.0394 5.76272 13.7539 6.0587C14.4685 6.35468 15.1178 6.78851 15.6647 7.33541C16.2116 7.88231 16.6454 8.53157 16.9414 9.24613C17.2374 9.96069 17.3897 10.7266 17.3897 11.5C17.3897 12.2734 17.2374 13.0393 16.9414 13.7538C16.6454 14.4684 16.2116 15.1177 15.6647 15.6646C14.5601 16.7691 13.0621 17.3896 11.5001 17.3896C9.93806 17.3896 8.44001 16.7691 7.3355 15.6646C6.23098 14.5601 5.61047 13.062 5.61047 11.5C5.61047 9.93797 6.23098 8.43992 7.3355 7.33541ZM18.6959 6.48749C18.8314 6.35964 18.9399 6.20591 19.015 6.03538C19.09 5.86485 19.1301 5.681 19.1328 5.49471C19.1355 5.30842 19.1008 5.12348 19.0308 4.95083C18.9608 4.77819 18.8568 4.62136 18.725 4.48961C18.5933 4.35787 18.4365 4.2539 18.2638 4.18386C18.0912 4.11382 17.9062 4.07913 17.7199 4.08185C17.5337 4.08456 17.3498 4.12463 17.1793 4.19967C17.0087 4.27472 16.855 4.38321 16.7272 4.51874C16.4785 4.78231 16.3424 5.13241 16.3477 5.49471C16.353 5.85701 16.4992 6.20299 16.7555 6.4592C17.0117 6.71541 17.3576 6.86169 17.7199 6.86697C18.0822 6.87225 18.4323 6.73612 18.6959 6.48749Z" fill="black"/>
</svg>
