<svg id="Слой_1" data-name="Слой 1" xmlns="http://www.w3.org/2000/svg" xmlns:xlink="http://www.w3.org/1999/xlink" viewBox="0 0 875.07 275.62"><defs><style>.cls-1{fill:none;}.cls-2{clip-path:url(#clip-path);}.cls-3{fill:#e91111;}.cls-4{fill:#2d201d;}.cls-5{fill:#daa150;}.cls-6{fill:#fff;}</style><clipPath id="clip-path" transform="translate(-52.44 -57.93)"><rect class="cls-1" width="985.11" height="412.77"/></clipPath></defs><title>фабрика «Любимая кухня»</title><g class="cls-2"><path class="cls-3" d="M249.75,133a33,33,0,0,0-32.95-32.95H140.18a31.7,31.7,0,0,0-31.71,31.71v70.76L94.62,188.68a25.22,25.22,0,0,0-35.68,0c-9.86,9.85-7.39,20.42,0,35.68l47.63,77.1c-5.39,1.27-12.33,3.6-15.26,7.52a15.37,15.37,0,0,0,24.62,18.42h0c3.14-4.21,3.23-12.31,2.83-17.94h131ZM108.06,321.52a5.56,5.56,0,0,1-7.76,1.11,5.54,5.54,0,0,1-1.12-7.76c.89-1.17,5-2.75,9.83-3.88.26,4.9-.08,9.34-1,10.53" transform="translate(-52.44 -57.93)"/><path class="cls-4" d="M338.15,173.16c1.79-8.8,2.87-21,3.19-36.29h19.34v60.27h17.09v-75.9h-52.7L325,135.87c-.23,16.79-1.29,29-3.17,36.29-1.79,7-4.61,10.36-8.62,10.36a12.46,12.46,0,0,1-2.79-.2l-1.22-.31v14.83l.64.24a19.44,19.44,0,0,0,6.75,1.18h0c5.7-.16,10.32-2.13,13.74-5.87s6-10,7.86-19.23" transform="translate(-52.44 -57.93)"/><path class="cls-4" d="M409.92,165.21h7.56a37.75,37.75,0,0,0,12.42,23.55,37.36,37.36,0,0,0,25.73,9.72h.9c10.24,0,19.26-3.83,26.82-11.39a37.52,37.52,0,0,0,11.49-27.91,37.05,37.05,0,0,0-11.44-27.92c-7.82-7.78-17.15-11.61-27.75-11.38a37.8,37.8,0,0,0-24.48,8.51,37.11,37.11,0,0,0-13.05,21.18h-8.2V121.24H392.83v75.9h17.09Zm45.73,17.3A20.56,20.56,0,0,1,440.07,176c-4.1-4.35-6.18-10-6.18-16.8s2.08-12.46,6.18-16.8a21.75,21.75,0,0,1,31.11,0c4.06,4.39,6.12,10,6.12,16.76s-2.06,12.37-6.12,16.75a20.35,20.35,0,0,1-15.53,6.57" transform="translate(-52.44 -57.93)"/><path class="cls-4" d="M555.9,190.55c4.83-4.39,7.27-10.16,7.27-17.14s-2.43-12.56-7.22-16.81-11-6.35-18.63-6.35H522.73V136.87H556.9V121.24H505.64v75.9h31.68c7.54,0,13.79-2.22,18.58-6.59m-33.17-25.9h13.8c3.09,0,5.5.8,7.17,2.37a9.43,9.43,0,0,1,0,12.79c-1.67,1.57-4.08,2.37-7.17,2.37h-13.8Z" transform="translate(-52.44 -57.93)"/><polygon class="cls-4" points="569.37 94.92 569.37 139.21 586.46 139.21 586.46 61.96 580.01 61.96 538.18 107.15 538.18 63.3 521.09 63.3 521.09 140.55 527.43 140.55 569.37 94.92"/><polygon class="cls-4" points="638.58 101.34 607.8 61.96 601.41 61.96 601.41 139.21 618.5 139.21 618.5 101.6 635.64 123.07 641.52 123.07 658.66 101.6 658.66 139.21 675.75 139.21 675.75 61.96 669.36 61.96 638.58 101.34"/><path class="cls-4" d="M775.9,119.89h-6.32l-33.91,77.25h18.39l4.14-9.64h29l4.14,9.64h18.4l-33.54-76.66Zm5.2,53.21H764.27l8.41-21.32Z" transform="translate(-52.44 -57.93)"/><path class="cls-4" d="M824.75,128.31a23.46,23.46,0,0,0-8.24,18.55,23.77,23.77,0,0,0,4.27,13.84,26.1,26.1,0,0,0,10.47,8.75l-19.34,27.69h18.64L847.8,172.6h8.14v24.54H873v-75.9H846c-8.64,0-15.78,2.38-21.2,7.07m12.33,11.11a12.11,12.11,0,0,1,8.42-2.89h10.44v20.78H845.5a12.27,12.27,0,0,1-8.42-2.83,9.43,9.43,0,0,1-3.14-7.5,9.62,9.62,0,0,1,3.14-7.56" transform="translate(-52.44 -57.93)"/><path class="cls-4" d="M905.73,140.15h5.15c.25,0,.57,0,1,0l4.58,7.12h3.48l-5.06-7.81a6.8,6.8,0,0,0,2.77-2.07h0a7,7,0,0,0,1.46-4.45,6.7,6.7,0,0,0-2.29-5.31,8.7,8.7,0,0,0-5.9-1.94h-8.06v21.58h2.91Zm-.05-11.64h5.1a6.18,6.18,0,0,1,4.06,1.18,4.56,4.56,0,0,1,0,6.42,6.13,6.13,0,0,1-4.06,1.18h-5.1Z" transform="translate(-52.44 -57.93)"/><path class="cls-4" d="M925.21,127.44a16.77,16.77,0,0,0-6.32-6.33h0a18.45,18.45,0,0,0-17.93,0,17.31,17.31,0,0,0-6.37,6.4,18.15,18.15,0,0,0,0,17.76,17.68,17.68,0,0,0,30.58,0,18.31,18.31,0,0,0,.05-17.86m-15.28-5.77a15,15,0,0,1,7.53,1.92,14.1,14.1,0,0,1,5.27,5.27,15.45,15.45,0,0,1-.05,15,14.56,14.56,0,0,1-5.34,5.37,15.23,15.23,0,0,1-15,0,14.37,14.37,0,0,1-5.32-5.35,15.23,15.23,0,0,1,0-14.91,14.26,14.26,0,0,1,5.34-5.34,14.79,14.79,0,0,1,7.52-2" transform="translate(-52.44 -57.93)"/><polygon class="cls-4" points="329.66 177.88 309.1 177.88 282.31 210.4 282.31 177.88 265.23 177.88 265.23 253.78 282.31 253.78 282.31 217 312.57 253.78 333.37 253.78 300.52 213.7 329.66 177.88"/><path class="cls-4" d="M439.55,235.81l-16.76,38.8-18.15-38.8H385.52l28,57.53c-2.25,2.59-5.29,3.86-9.26,3.86a48.4,48.4,0,0,1-5.81-.33l-1.1-.13v14.73l.7.2a31.42,31.42,0,0,0,8.7,1.27h0c6.56-.15,11.6-1.76,15-4.79S428.45,300,432,292.54l25.84-56.73Z" transform="translate(-52.44 -57.93)"/><polygon class="cls-4" points="472.77 177.88 453.3 177.88 439.73 200.27 426.06 177.88 406.47 177.88 430.17 215.15 404.99 253.78 424.59 253.78 439.74 230.09 454.88 253.78 474.37 253.78 449.41 215.15 472.77 177.88"/><polygon class="cls-4" points="529.5 206.22 498.75 206.22 498.75 177.88 481.66 177.88 481.66 253.78 498.75 253.78 498.75 221.85 529.5 221.85 529.5 253.78 546.58 253.78 546.58 177.88 529.5 177.88 529.5 206.22"/><path class="cls-4" d="M621.43,242.88a23.47,23.47,0,0,0-8.24,18.56,23.75,23.75,0,0,0,4.26,13.83A26.34,26.34,0,0,0,627.92,284l-19.33,27.68h18.64l17.25-24.53h8.14v24.53h17.09v-75.9H642.63c-8.65,0-15.78,2.38-21.2,7.07m31.19,8.22v20.78H642.18a12.29,12.29,0,0,1-8.43-2.83,9.46,9.46,0,0,1-3.14-7.5,9.59,9.59,0,0,1,3.15-7.56,12.11,12.11,0,0,1,8.42-2.89Z" transform="translate(-52.44 -57.93)"/><path class="cls-5" d="M272.7,57.93s5.64,13,8.93,16.33S298,83.18,298,83.18s-13,5.64-16.32,8.93-8.93,16.33-8.93,16.33-5.64-13-8.93-16.33-16.32-8.93-16.32-8.93,13-5.63,16.32-8.92,8.93-16.33,8.93-16.33" transform="translate(-52.44 -57.93)"/><path class="cls-6" d="M223.83,202.41c-.12,10.68-5.29,21.12-13.71,28.85-8.37,7.9-20.55,12-32,12-11.25,0-23.4-3.78-32-11.63a40.53,40.53,0,0,1-10-13.48c-.54-1.27-1-2.54-1.51-3.81s-.81-2.58-1.06-3.92a27.21,27.21,0,0,1-.64-8c7.23,7.62,14.44,13.17,22,16.47a47.1,47.1,0,0,0,11.39,3.56,54.39,54.39,0,0,0,5.88.84,20.17,20.17,0,0,0,3,.17l3,.15c1,0,2-.11,3-.13a20.65,20.65,0,0,0,3-.17,50.83,50.83,0,0,0,5.79-.87,54.38,54.38,0,0,0,5.74-1.48c1-.3,1.84-.74,2.81-1.07a19.63,19.63,0,0,0,2.83-1.22c7.61-3.45,15-9,22.55-16.25" transform="translate(-52.44 -57.93)"/></g></svg>