<svg width="65" height="43" viewBox="0 0 65 43" fill="none" xmlns="http://www.w3.org/2000/svg">
<path d="M13.9286 27.6379C15.7124 27.6375 17.4416 28.2487 18.8235 29.3679C20.2054 30.4871 21.1551 32.0456 21.5119 33.7797H43.3333V3.07088H9.28572C7.6439 3.07088 6.06933 3.71795 4.90839 4.86976C3.74745 6.02156 3.09524 7.58374 3.09524 9.21264V33.7797H6.34524C6.70201 32.0456 7.65171 30.4871 9.0336 29.3679C10.4155 28.2487 12.1447 27.6375 13.9286 27.6379ZM13.9286 42.9923C12.1447 42.9927 10.4155 42.3815 9.0336 41.2623C7.65171 40.1431 6.70201 38.5846 6.34524 36.8505H0V9.21264C0 6.76929 0.978314 4.42602 2.71972 2.69832C4.46113 0.970615 6.82299 0 9.28572 0H43.3333C44.1542 0 44.9415 0.323539 45.522 0.89944C46.1025 1.47534 46.4286 2.25643 46.4286 3.07088V9.21264H55.7143L65 21.4378V36.8505H58.6548C58.2996 38.586 57.3505 40.1463 55.9685 41.267C54.5865 42.3878 52.8564 43 51.0714 43C49.2865 43 47.5564 42.3878 46.1744 41.267C44.7923 40.1463 43.8433 38.586 43.4881 36.8505H21.5119C21.1551 38.5846 20.2054 40.1431 18.8235 41.2623C17.4416 42.3815 15.7124 42.9927 13.9286 42.9923ZM13.9286 30.7088C12.6972 30.7088 11.5163 31.1941 10.6456 32.0579C9.77487 32.9218 9.28572 34.0934 9.28572 35.3151C9.28572 36.5368 9.77487 37.7084 10.6456 38.5723C11.5163 39.4361 12.6972 39.9214 13.9286 39.9214C15.1599 39.9214 16.3409 39.4361 17.2116 38.5723C18.0823 37.7084 18.5714 36.5368 18.5714 35.3151C18.5714 34.0934 18.0823 32.9218 17.2116 32.0579C16.3409 31.1941 15.1599 30.7088 13.9286 30.7088ZM51.0714 27.6379C52.8553 27.6375 54.5845 28.2487 55.9664 29.3679C57.3483 30.4871 58.298 32.0456 58.6548 33.7797H61.9048V22.4665L61.1681 21.4962H46.4286V29.1733C47.767 28.1747 49.3968 27.6357 51.0714 27.6379ZM51.0714 30.7088C49.8401 30.7088 48.6591 31.1941 47.7884 32.0579C46.9177 32.9218 46.4286 34.0934 46.4286 35.3151C46.4286 36.5368 46.9177 37.7084 47.7884 38.5723C48.6591 39.4361 49.8401 39.9214 51.0714 39.9214C52.3028 39.9214 53.4837 39.4361 54.3544 38.5723C55.2251 37.7084 55.7143 36.5368 55.7143 35.3151C55.7143 34.0934 55.2251 32.9218 54.3544 32.0579C53.4837 31.1941 52.3028 30.7088 51.0714 30.7088ZM46.4286 12.2835V18.4253H58.8374L54.1667 12.2835H46.4286Z" fill="white"/>
</svg>
