<svg width="65" height="43" viewBox="0 0 65 43" fill="none" xmlns="http://www.w3.org/2000/svg">
<path d="M51.0714 27.6379C49.2876 27.6375 47.5584 28.2487 46.1765 29.3679C44.7946 30.4871 43.8449 32.0456 43.4881 33.7797H21.6667V3.07088H55.7143C57.3561 3.07088 58.9307 3.71795 60.0916 4.86976C61.2526 6.02156 61.9048 7.58374 61.9048 9.21264V33.7797H58.6548C58.298 32.0456 57.3483 30.4871 55.9664 29.3679C54.5845 28.2487 52.8553 27.6375 51.0714 27.6379ZM51.0714 42.9923C52.8553 42.9927 54.5845 42.3815 55.9664 41.2623C57.3483 40.1431 58.298 38.5846 58.6548 36.8505H65V9.21264C65 6.76929 64.0217 4.42602 62.2803 2.69832C60.5389 0.970615 58.177 0 55.7143 0H21.6667C20.8458 0 20.0585 0.323539 19.478 0.89944C18.8975 1.47534 18.5714 2.25643 18.5714 3.07088V9.21264H9.28571L0 21.4378V36.8505H6.34523C6.70044 38.586 7.64946 40.1463 9.03151 41.267C10.4135 42.3878 12.1436 43 13.9286 43C15.7135 43 17.4436 42.3878 18.8256 41.267C20.2077 40.1463 21.1567 38.586 21.5119 36.8505H43.4881C43.8449 38.5846 44.7946 40.1431 46.1765 41.2623C47.5584 42.3815 49.2876 42.9927 51.0714 42.9923ZM51.0714 30.7088C52.3028 30.7088 53.4837 31.1941 54.3544 32.0579C55.2251 32.9218 55.7143 34.0934 55.7143 35.3151C55.7143 36.5368 55.2251 37.7084 54.3544 38.5723C53.4837 39.4361 52.3028 39.9214 51.0714 39.9214C49.8401 39.9214 48.6591 39.4361 47.7884 38.5723C46.9177 37.7084 46.4286 36.5368 46.4286 35.3151C46.4286 34.0934 46.9177 32.9218 47.7884 32.0579C48.6591 31.1941 49.8401 30.7088 51.0714 30.7088ZM13.9286 27.6379C12.1447 27.6375 10.4155 28.2487 9.0336 29.3679C7.65171 30.4871 6.70201 32.0456 6.34523 33.7797H3.09524V22.4665L3.83191 21.4962H18.5714V29.1733C17.233 28.1747 15.6032 27.6357 13.9286 27.6379ZM13.9286 30.7088C15.1599 30.7088 16.3409 31.1941 17.2116 32.0579C18.0823 32.9218 18.5714 34.0934 18.5714 35.3151C18.5714 36.5368 18.0823 37.7084 17.2116 38.5723C16.3409 39.4361 15.1599 39.9214 13.9286 39.9214C12.6972 39.9214 11.5163 39.4361 10.6456 38.5723C9.77487 37.7084 9.28571 36.5368 9.28571 35.3151C9.28571 34.0934 9.77487 32.9218 10.6456 32.0579C11.5163 31.1941 12.6972 30.7088 13.9286 30.7088ZM18.5714 12.2835V18.4253H6.16261L10.8333 12.2835H18.5714Z" fill="white"/>
</svg>
