<svg width="71" height="68" viewBox="0 0 71 68" fill="none" xmlns="http://www.w3.org/2000/svg">
<path d="M33.7905 13.9375C39.1345 13.9375 44.1701 16.3066 47.8605 20.01V20.0209C47.8605 18.2425 49.057 16.8972 50.7108 16.8972H51.1308C53.7405 16.8972 54.2633 19.3581 54.2633 20.1347L54.2742 47.7738C54.0927 49.585 56.1445 50.5213 57.2842 49.3575C61.7139 44.8009 67.023 25.9097 54.5258 14.9722C42.8708 4.76313 27.228 6.44969 18.9111 12.1809C10.0714 18.2884 4.42109 31.7788 9.90953 44.4575C15.9033 58.2803 33.038 62.4038 43.2361 58.2913C48.3986 56.2066 50.7786 63.1759 45.4127 65.4575C37.3255 68.9072 14.7877 68.555 4.2614 50.3266C-2.85016 38.0131 -2.47391 16.3525 16.3955 5.13063C30.8177 -3.45969 49.8467 -1.07968 61.318 10.8969C73.3055 23.4291 72.612 46.8769 60.9089 55.9922C55.6086 60.1375 47.738 56.1059 47.7948 50.0663L47.7358 48.0975C44.0455 51.7528 39.1345 53.8966 33.7905 53.8966C23.2183 53.8966 13.9105 44.5866 13.9105 34.0253C13.9105 23.3503 23.2183 13.9419 33.7905 13.9419V13.9375ZM47.0883 33.2619C46.688 25.5247 40.9458 20.8653 34.007 20.8653H33.7445C25.747 20.8653 21.3042 27.1653 21.3042 34.3075C21.3042 42.3159 26.6702 47.3734 33.7117 47.3734C41.5714 47.3734 46.7317 41.6225 47.108 34.8194L47.0883 33.2619Z" fill="#FF9E01"/>
</svg>
