<svg width="23" height="22" viewBox="0 0 23 22" fill="none" xmlns="http://www.w3.org/2000/svg">
<path d="M11.1022 4.56582C12.8581 4.56582 14.5126 5.34191 15.7251 6.55513V6.55871C15.7251 5.97611 16.1182 5.53539 16.6616 5.53539H16.7996C17.657 5.53539 17.8288 6.34158 17.8288 6.59597L17.8324 15.6503C17.7727 16.2437 18.4469 16.5504 18.8214 16.1691C20.2768 14.6764 22.0211 8.48782 17.915 4.90478C14.0857 1.56036 8.94605 2.11287 6.21345 3.99038C3.30907 5.99116 1.4526 10.4105 3.25588 14.5639C5.2252 19.0922 10.855 20.443 14.2057 19.0958C15.9019 18.4128 16.6839 20.696 14.9208 21.4434C12.2637 22.5735 4.85865 22.4581 1.40013 16.4866C-0.936451 12.4528 -0.81283 5.35696 5.38691 1.68075C10.1255 -1.13337 16.3777 -0.353696 20.1467 3.56974C24.0853 7.67519 23.8575 15.3565 20.0123 18.3426C18.2708 19.7006 15.6848 18.3799 15.7035 16.4013L15.6841 15.7564C14.4716 16.9538 12.8581 17.6561 11.1022 17.6561C7.62862 17.6561 4.57044 14.6062 4.57044 11.1464C4.57044 7.64939 7.62862 4.56725 11.1022 4.56725V4.56582ZM15.4714 10.8963C15.3398 8.3617 13.4532 6.83532 11.1734 6.83532H11.0871C8.45947 6.83532 6.99973 8.89915 6.99973 11.2389C6.99973 13.8624 8.76277 15.5192 11.0764 15.5192C13.6587 15.5192 15.3542 13.6352 15.4778 11.4066L15.4714 10.8963Z" fill="black"/>
</svg>
