<svg width="472" height="454" viewBox="0 0 472 454" fill="none" xmlns="http://www.w3.org/2000/svg">
<path d="M469.016 37.4419C441.03 -5.15452 387.437 -9.29662 345.962 14.3805L340.757 17.3751L338.63 17.2912C309.469 17.2912 282.378 31.5926 265.754 55.6056L264.803 56.865C252.769 74.9167 244.569 91.4571 236.677 107.494C229.541 121.935 222.684 135.761 213.617 148.999C204.521 135.705 197.665 121.851 190.5 107.41C182.58 91.4291 174.408 74.8887 162.402 56.865L161.479 55.6336C153.357 43.8128 142.481 34.1456 129.79 27.4657C117.099 20.7858 102.973 17.2939 88.6315 17.2912C65.1366 17.3134 42.61 26.655 25.994 43.2665C9.37798 59.878 0.029636 82.4026 0 105.898C0.0222162 129.402 9.3664 151.936 25.9824 168.558C42.5984 185.18 65.1292 194.532 88.6315 194.562C110.321 194.562 131.03 186.529 147.038 172.424L165.285 205.953C119.92 258.456 81.9148 319.412 80.7954 321.288C46.2048 368.922 100.525 444.991 102.876 448.181C104.17 449.978 105.872 451.44 107.843 452.448C109.814 453.455 111.997 453.979 114.211 453.975C116.719 453.942 119.175 453.25 121.332 451.967C123.488 450.685 125.269 448.858 126.496 446.67L213.589 286.667L300.709 446.67C301.838 448.746 303.475 450.502 305.467 451.775C307.459 453.047 309.741 453.794 312.099 453.947C314.466 454.159 316.847 453.736 318.996 452.723C321.146 451.71 322.986 450.142 324.329 448.181C326.652 444.991 380.973 368.922 346.97 322.127L337.93 307.546C307.817 258.96 304.711 253.923 261.948 205.841L280.167 172.396C296.303 186.64 317.079 194.511 338.602 194.534C362.104 194.504 384.635 185.152 401.251 168.53C417.867 151.909 427.211 129.374 427.233 105.87C427.235 88.2107 421.899 70.9628 411.925 56.3892C425.134 48.8327 439.827 52.9468 452.673 59.048C465.714 64.3935 477.776 48.4968 469.016 37.4419ZM87.7079 134.977C80.2856 134.977 73.1673 132.028 67.9189 126.78C62.6705 121.531 59.722 114.413 59.722 106.99C59.722 99.5673 62.6705 92.4487 67.9189 87.2001C73.1673 81.9515 80.2856 79.0028 87.7079 79.0028C95.1303 79.0028 102.249 81.9515 107.497 87.2001C112.745 92.4487 115.694 99.5673 115.694 106.99C115.694 114.413 112.745 121.531 107.497 126.78C102.249 132.028 95.1303 134.977 87.7079 134.977ZM213.645 229.994C209.934 229.994 206.374 228.519 203.75 225.895C201.126 223.271 199.652 219.711 199.652 216C199.652 212.289 201.126 208.729 203.75 206.105C206.374 203.481 209.934 202.006 213.645 202.006C217.356 202.006 220.915 203.481 223.539 206.105C226.163 208.729 227.638 212.289 227.638 216C227.638 219.711 226.163 223.271 223.539 225.895C220.915 228.519 217.356 229.994 213.645 229.994ZM339.581 134.977C332.159 134.977 325.041 132.028 319.792 126.78C314.544 121.531 311.595 114.413 311.595 106.99C311.595 99.5673 314.544 92.4487 319.792 87.2001C325.041 81.9515 332.159 79.0028 339.581 79.0028C347.004 79.0028 354.122 81.9515 359.37 87.2001C364.619 92.4487 367.567 99.5673 367.567 106.99C367.567 114.413 364.619 121.531 359.37 126.78C354.122 132.028 347.004 134.977 339.581 134.977Z" fill="#191D29" fill-opacity="0.06"/>
</svg>
