<svg width="70" height="70" viewBox="0 0 70 70" fill="none" xmlns="http://www.w3.org/2000/svg">
<path d="M3.05346 11.0849L12.3723 1.77603C13.5098 0.63867 15.0323 0 16.6423 0C18.2523 0 19.7748 0.629922 20.9123 1.77603L30.9486 11.7935C32.0861 12.9309 32.7248 14.4619 32.7248 16.0717C32.7248 17.6903 32.0948 19.2039 30.9486 20.35L23.1085 28.1977C24.8946 32.3586 27.4608 36.1391 30.6686 39.3351C33.8798 42.5634 37.6336 45.1094 41.7986 46.9116L49.6387 39.0639C50.7762 37.9265 52.2987 37.2878 53.9087 37.2878C54.7028 37.2849 55.4895 37.4405 56.2228 37.7454C56.956 38.0504 57.6209 38.4986 58.1787 39.0639L68.2237 49.0814C69.3612 50.2187 70 51.7498 70 53.3596C70 54.9781 69.37 56.4917 68.2237 57.6378L58.9137 66.9466C56.9712 68.8889 54.2937 70 51.5462 70C50.9774 70 50.4262 69.9563 49.8662 69.86C38.2811 67.9528 26.7836 61.7848 17.4998 52.5109C8.22473 43.2196 2.0647 31.7235 0.139694 20.1312C-0.41156 16.8416 0.690948 13.4558 3.05346 11.0849ZM6.34348 19.0901C8.04973 29.4051 13.5973 39.6938 21.9535 48.049C30.3098 56.4042 40.5911 61.951 50.9074 63.657C52.2024 63.8758 53.5324 63.4383 54.4774 62.5022L63.6212 53.3596L53.9262 43.657L43.4436 54.1557L43.3649 54.2345L41.4749 53.5346C35.7442 51.4279 30.5403 48.1004 26.2236 43.7829C21.907 39.4653 18.581 34.2608 16.476 28.5302L15.776 26.6404L26.3461 16.0805L16.651 6.37795L7.50723 15.5206C6.56223 16.4654 6.12473 17.7953 6.34348 19.0901Z" fill="white"/>
</svg>
