<svg width="47" height="52" viewBox="0 0 47 52" fill="none" xmlns="http://www.w3.org/2000/svg">
<path d="M12.4386 16.5072C8.81938 18.6085 3.86439 16.8177 1.38979 12.5104C0.492225 10.9708 0.0129548 9.22108 -3.25066e-07 7.43664C-2.01243e-07 4.6039 1.29714 2.1592 3.47448 0.892224C5.29664 -0.165205 7.48363 -0.287439 9.62816 0.550743C11.6279 1.33266 13.3651 2.87127 14.5233 4.88911C15.4237 6.42851 15.9051 8.17907 15.9189 9.96477C15.9189 11.2706 15.6293 12.4871 15.1198 13.5542L17.7932 18.2108C19.5574 21.2802 25.244 19.2973 31.2182 29.6931C37.1923 40.085 34.183 51.9981 34.183 51.9981L13.398 15.8126C13.0968 16.0688 12.7841 16.3074 12.4406 16.5072L12.4386 16.5072ZM10.5084 13.1448C12.207 12.1631 12.5467 9.20032 11.1801 6.82935C10.4601 5.57596 9.41197 4.62912 8.23065 4.17122C7.19795 3.76377 6.19422 3.79482 5.40474 4.25271C4.4203 4.8212 3.86053 5.98341 3.86053 7.4347C3.86053 8.48825 4.16165 9.57284 4.73494 10.5701C6.11701 12.9818 8.76147 14.1596 10.5064 13.1448L10.5084 13.1448ZM23.0975 28.4145C24.0299 28.4145 24.7865 27.6578 24.7865 26.7187C24.7865 26.6489 24.7537 26.5887 24.7479 26.5189L21.8294 27.813C21.9839 28.0009 22.1775 28.1525 22.3966 28.2571C22.6158 28.3617 22.855 28.4167 23.0975 28.4184L23.0975 28.4145ZM21.4086 26.7187C21.4086 26.7924 21.4414 26.8545 21.4472 26.9224L24.3619 25.6302C24.2087 25.4416 24.0159 25.2893 23.7974 25.1843C23.5788 25.0793 23.3398 25.0242 23.0975 25.0229C22.1652 25.0229 21.4086 25.7796 21.4086 26.7187ZM12.8189 52C12.8189 52 9.80767 40.0869 15.7818 29.695C16.3802 28.6531 16.9747 27.7645 17.5654 26.9496L22.3853 35.3411L12.8189 51.9981L12.8189 52ZM25.6165 20.51C27.2573 19.8309 28.5274 19.3963 29.2068 18.2088L31.8802 13.5523C31.3474 12.4319 31.0742 11.2046 31.0811 9.96283C31.0811 8.2302 31.5637 6.47623 32.4709 4.88911C34.9474 0.581788 39.9063 -1.21099 43.5255 0.892226C45.7009 2.15338 47 4.59808 47 7.4347C47 9.16928 46.5174 10.9271 45.6102 12.5104C44.4482 14.5282 42.711 16.0668 40.7131 16.8487C38.5667 17.6869 36.3797 17.5627 34.5556 16.5034C34.2187 16.3019 33.9002 16.0707 33.604 15.8126L29.1644 23.5387C28.1116 22.3854 26.9198 21.3686 25.6165 20.5119L25.6165 20.51ZM39.3118 13.2341C40.4931 12.7723 41.5412 11.8274 42.2612 10.5759C43.624 8.20498 43.2881 5.2403 41.5914 4.25466C39.8484 3.24185 37.202 4.42152 35.8161 6.83129C35.2578 7.78122 34.957 8.86159 34.9436 9.96477C34.9436 11.42 35.5033 12.5763 36.4878 13.1468C37.2792 13.6066 38.2829 13.6376 39.3137 13.2341L39.3118 13.2341Z" fill="white"/>
</svg>
