<svg width="67" height="67" viewBox="0 0 67 67" fill="none" xmlns="http://www.w3.org/2000/svg">
<path d="M2.9226 10.6098L11.842 1.69991C12.9308 0.611299 14.388 0 15.929 0C17.47 0 18.9273 0.602925 20.016 1.69991L29.6222 11.2881C30.711 12.3767 31.3223 13.8421 31.3223 15.383C31.3223 16.9321 30.7193 18.3808 29.6222 19.4778L22.1182 26.9893C23.8277 30.9718 26.2839 34.5903 29.3542 37.6493C32.4279 40.7393 36.0207 43.1761 40.0073 44.9011L47.5113 37.3897C48.6 36.3011 50.0573 35.6898 51.5983 35.6898C52.3584 35.687 53.1114 35.8359 53.8132 36.1278C54.515 36.4197 55.1515 36.8487 55.6853 37.3897L65.2999 46.9779C66.3886 48.0665 67 49.5319 67 51.0727C67 52.6219 66.397 54.0706 65.2999 55.1676L56.3888 64.0775C54.5296 65.9365 51.9668 67 49.3371 67C48.7927 67 48.265 66.9581 47.729 66.866C36.6405 65.0405 25.6357 59.1369 16.7498 50.2605C7.87224 41.3673 1.97622 30.364 0.133709 19.2685C-0.393918 16.1199 0.661339 12.8791 2.9226 10.6098ZM6.07161 18.272C7.70475 28.1449 13.0145 37.9926 21.0127 45.9898C29.0108 53.9869 38.8515 59.296 48.7257 60.9289C49.9652 61.1382 51.2382 60.7195 52.1427 59.8235L60.8946 51.0727L51.6151 41.786L41.5818 51.8348L41.5064 51.9101L39.6974 51.2402C34.2123 49.2238 29.2314 46.039 25.0998 41.9065C20.9681 37.7739 17.7846 32.7925 15.7699 27.3075L15.0999 25.4987L25.2169 15.3913L15.9374 6.10461L7.18549 14.8554C6.28099 15.7598 5.86224 17.0326 6.07161 18.272Z" fill="white"/>
</svg>
