<svg width="77" height="100" viewBox="0 0 77 100" fill="none" xmlns="http://www.w3.org/2000/svg">
<path d="M75.4487 13.4602L40.0818 1.08166C39.6551 0.932005 39.0826 0.857178 38.5102 0.857178C37.9377 0.857178 37.3653 0.932005 36.9386 1.08166L1.57163 13.4602C0.707755 13.7595 0 14.7857 0 15.7264V67.293C0 68.2337 0.593266 69.4737 1.31143 70.0616L37.1884 98.7739C37.5526 99.0625 38.021 99.2121 38.4998 99.2121C38.9786 99.2121 39.4573 99.0625 39.8112 98.7739L75.6881 70.0616C76.4063 69.4844 76.9996 68.2444 76.9996 67.293V15.7264C77.0204 14.7857 76.3126 13.7702 75.4487 13.4602ZM69.5265 65.2406L38.5102 90.0619L7.49387 65.2406V19.5319L38.5102 8.67127L69.5265 19.5319V65.2406ZM27.2902 43.7545C26.9779 43.3162 26.4784 43.049 25.9371 43.049H20.1918C19.5153 43.049 19.1198 43.84 19.5153 44.4066L32.6712 63.0065C32.8268 63.2252 33.0304 63.403 33.2655 63.5257C33.5006 63.6483 33.7606 63.7122 34.0243 63.7122C34.288 63.7122 34.5479 63.6483 34.783 63.5257C35.0182 63.403 35.2218 63.2252 35.3773 63.0065L57.5051 31.718C57.9006 31.1515 57.5051 30.3605 56.8285 30.3605H51.0832C50.5524 30.3605 50.0424 30.6277 49.7302 31.066L34.0243 53.279L27.2902 43.7545Z" fill="black"/>
</svg>
