<svg width="23" height="23" viewBox="0 0 23 23" fill="none" xmlns="http://www.w3.org/2000/svg">
<path d="M22.1891 13.4212C22.307 12.7727 22.3703 12.1097 22.3703 11.4467C22.3703 9.97656 22.0827 8.54969 21.5163 7.2093C20.97 5.91214 20.185 4.74759 19.1873 3.74734C18.1978 2.75292 17.025 1.96088 15.734 1.41534C14.394 0.847475 12.9736 0.559218 11.5072 0.559218C10.8171 0.559218 10.1241 0.625517 9.45131 0.755232C8.52031 0.260651 7.48295 0.00140149 6.42931 0C4.71272 0 3.09678 0.671638 1.88338 1.88808C1.28462 2.48526 0.809883 3.1955 0.486615 3.97774C0.163348 4.75998 -0.00203854 5.59871 1.89638e-05 6.44542C1.89638e-05 7.54079 0.281804 8.61887 0.807994 9.57012C0.701606 10.187 0.644098 10.8183 0.644098 11.4467C0.644098 12.9168 0.931634 14.3437 1.49808 15.684C2.0444 16.9812 2.82649 18.1458 3.82424 19.146C4.82199 20.1463 5.98363 20.9303 7.27754 21.478C8.61746 22.0459 10.0379 22.3341 11.5043 22.3341C12.1426 22.3341 12.781 22.2765 13.4078 22.1641C14.371 22.7089 15.4579 23 16.5707 23C18.2873 23 19.9032 22.3312 21.1166 21.1119C22.3329 19.8955 23 18.2755 23 16.5546C23.0029 15.4592 22.7211 14.3782 22.1891 13.4212ZM19.6559 19.6476C18.8307 20.4778 17.741 20.9274 16.5736 20.9274C15.8231 20.9274 15.0841 20.7314 14.4285 20.3596L13.7816 19.9935L13.0484 20.1232C12.5366 20.2154 12.019 20.2616 11.5072 20.2616C10.3168 20.2616 9.16952 20.0281 8.08264 19.5669C7.03889 19.1258 6.09865 18.4917 5.2878 17.6788C4.48513 16.8769 3.8455 15.9263 3.40444 14.8798C2.94438 13.7931 2.71435 12.6429 2.71435 11.4496C2.71435 10.948 2.76036 10.4349 2.84662 9.92756L2.97314 9.20404L2.61659 8.56122C2.25698 7.91427 2.06795 7.18604 2.0674 6.44542C2.0674 5.2751 2.51883 4.1826 3.34406 3.35531C4.17216 2.52801 5.26192 2.07545 6.42931 2.07545C7.14533 2.07739 7.85006 2.25451 8.48231 2.59143L9.12639 2.93157L9.83948 2.79321C10.3829 2.68943 10.9436 2.63467 11.5072 2.63467C12.6976 2.63467 13.8449 2.86815 14.9289 3.32648C15.9784 3.7704 16.9157 4.40456 17.7237 5.21456C18.5346 6.02456 19.1671 6.96716 19.6099 8.01642C20.07 9.10315 20.3 10.2533 20.3 11.4467C20.3 11.9771 20.2511 12.5132 20.1534 13.0465L20.0182 13.7816L20.3805 14.433C20.7428 15.0816 20.9326 15.8166 20.9326 16.5575C20.9326 17.7307 20.4812 18.8203 19.6559 19.6476V19.6476ZM13.5544 10.1812L11.0126 9.61624C10.0465 9.39428 8.93375 9.10315 8.93375 8.18937C8.93375 7.2756 9.71297 6.63567 11.1219 6.63567C13.9599 6.63567 13.7011 8.59005 15.11 8.59005C15.8518 8.59005 16.5017 8.1519 16.5017 7.40243C16.5017 5.64983 13.7011 4.3325 11.326 4.3325C8.74685 4.3325 6.00088 5.43076 6.00088 8.35368C6.00088 9.76037 6.5012 11.2593 9.26729 11.954L12.7005 12.813C13.7385 13.0696 14.0001 13.6547 14.0001 14.1851C14.0001 15.0643 13.1289 15.9233 11.5503 15.9233C8.46794 15.9233 8.89637 13.5452 7.24591 13.5452C6.50407 13.5452 5.96638 14.0583 5.96638 14.7876C5.96638 16.2116 7.69159 18.114 11.5503 18.114C15.2221 18.114 17.0422 16.3413 17.0422 13.9632C17.0422 12.4325 16.3378 10.8039 13.5544 10.1812Z" fill="black"/>
</svg>
