<svg width="70" height="70" viewBox="0 0 70 70" fill="none" xmlns="http://www.w3.org/2000/svg">
<path d="M67.5224 40.7449C67.5002 40.868 67.4846 40.9924 67.4614 41.1154L67.3416 40.4102C67.4073 40.5202 67.4614 40.6344 67.5224 40.7452C67.8869 38.7687 68.0713 36.7632 68.0734 34.7534C68.0734 30.2914 67.1997 25.9623 65.4738 21.8873C63.8086 17.9509 61.4264 14.4156 58.389 11.3805C55.3561 8.34531 51.8183 5.96285 47.8841 4.29789C43.8102 2.57414 39.4814 1.70051 35.0194 1.70051C32.9167 1.70051 30.8101 1.89793 28.7604 2.29141C28.7561 2.2925 28.7506 2.2925 28.7448 2.29359C28.8602 2.35457 28.9767 2.40898 29.0896 2.47215L28.3946 2.36332C28.5111 2.34144 28.6286 2.31684 28.7448 2.29359C25.9328 0.798437 22.7697 0 19.5683 0C14.3418 0 9.4273 2.0352 5.73125 5.73234C2.03629 9.4284 0 14.3426 0 19.5694C0.00177429 22.8895 0.849079 26.1545 2.46203 29.0566C2.48309 28.9368 2.49758 28.8159 2.52082 28.6962L2.64059 29.3891C2.57852 29.2805 2.5241 29.1673 2.46203 29.0566C2.13305 30.9377 1.96655 32.8437 1.96438 34.7534C1.96438 39.2164 2.83801 43.5444 4.56395 47.6205C6.22672 51.558 8.61027 55.0908 11.6443 58.126C14.6817 61.1614 18.2148 63.5471 22.1534 65.2077C26.2276 66.9348 30.5575 67.8095 35.0194 67.8095C36.9616 67.8095 38.9082 67.632 40.8081 67.2951C40.6973 67.2331 40.5844 67.1765 40.4712 67.1111L41.1775 67.2353C41.0555 67.2585 40.9325 67.273 40.8084 67.2951C43.7447 68.957 47.061 69.8308 50.435 69.8316C55.6607 69.8316 60.5727 67.7994 64.2687 64.1014C67.9656 60.4075 70 55.4922 70 50.2655C69.9982 46.9328 69.1454 43.6559 67.5224 40.7452V40.7449ZM35.1512 54.9968C23.4084 54.9968 18.1549 49.2234 18.1549 44.8968C18.1549 42.6773 19.7933 41.122 22.0514 41.122C27.0766 41.122 25.775 48.3377 35.1512 48.3377C39.9514 48.3377 42.6018 45.7313 42.6018 43.0642C42.6018 41.4602 41.8105 39.6818 38.6498 38.9025L28.2051 36.2953C19.7933 34.1857 18.2667 29.6384 18.2667 25.3638C18.2667 16.4888 26.623 13.1564 34.4706 13.1564C41.6995 13.1564 50.2212 17.1516 50.2212 22.476C50.2212 24.7576 48.2456 26.0843 45.9884 26.0843C41.6995 26.0843 42.4889 20.148 33.8499 20.148C29.563 20.148 27.1884 22.0894 27.1884 24.8672C27.1884 27.6399 30.5741 28.5255 33.5139 29.1949L41.245 30.911C49.7134 32.7977 51.8607 37.742 51.8607 42.3989C51.8607 49.6114 46.3244 54.9968 35.1512 54.9968ZM40.4712 67.1111C40.5844 67.1767 40.6973 67.2331 40.8084 67.2951C40.9325 67.273 41.0555 67.2585 41.1775 67.235L40.4712 67.1111ZM67.4614 41.1154C67.4846 40.9924 67.5002 40.8682 67.5224 40.7452C67.4614 40.6342 67.407 40.5202 67.3419 40.4102L67.4614 41.1154V41.1154ZM2.52082 28.6962C2.49758 28.8159 2.48309 28.9368 2.46203 29.0566C2.5241 29.1673 2.57852 29.2805 2.64059 29.3891L2.52082 28.6962V28.6962ZM29.0896 2.47215C28.9767 2.40898 28.8602 2.35457 28.7451 2.29359C28.6286 2.31684 28.5111 2.34117 28.3946 2.36332L29.0896 2.47215Z" fill="#00AFF0"/>
</svg>
