<svg width="70" height="70" viewBox="0 0 70 70" fill="none" xmlns="http://www.w3.org/2000/svg">
<path d="M35 0C15.6699 0 0 15.6699 0 35C0 54.3301 15.6699 70 35 70C54.3301 70 70 54.3301 70 35C70 15.6699 54.3301 0 35 0Z" fill="#40B3E0"/>
<path d="M52.0305 20.133L45.7789 51.6519C45.7789 51.6519 44.9047 53.8377 42.5003 52.7885L28.0743 41.7285L22.8287 39.1932L13.9983 36.2204C13.9983 36.2204 12.6432 35.7397 12.5119 34.6905C12.3807 33.6414 14.0421 33.0732 14.0421 33.0732L49.1449 19.3028C49.1449 19.3028 52.0302 18.0352 52.0302 20.1335" fill="white"/>
<path d="M26.9658 51.2976C26.9658 51.2976 26.5448 51.2582 26.0198 49.5968C25.4956 47.9357 22.8287 39.1928 22.8287 39.1928L44.0305 25.7287C44.0305 25.7287 45.2547 24.9855 45.211 25.7287C45.211 25.7287 45.4294 25.86 44.7735 26.472C44.118 27.0842 28.1184 41.4662 28.1184 41.4662" fill="#D2E5F1"/>
<path d="M33.6057 45.9688L27.8999 51.1712C27.8999 51.1712 27.4536 51.5097 26.9658 51.2976L28.0585 41.6343" fill="#B5CFE4"/>
</svg>
