<svg xmlns="http://www.w3.org/2000/svg" viewBox="0 0 701.52 276.35"><defs><style>.cls-1,.cls-3{fill:#231f20;}.cls-2{fill:#ec1c29;}.cls-3{fill-rule:evenodd;}</style></defs><title>Ресурс 2</title><g id="Слой_2" data-name="Слой 2"><g id="Слой_1-2" data-name="Слой 1"><polygon class="cls-1" points="93.41 99.2 74.8 131.27 74.8 147.06 102.57 99.2 93.41 99.2"/><path class="cls-1" d="M181.85,146.71c8.8-4.61,13.42-12.3,13.42-22.22,0-19.42-12.44-25.29-38.85-25.29H110.49L74.8,160.72v39.93h86.78c25.29,0,37.87-9.78,37.87-28.92C199.46,159,193.45,150.49,181.85,146.71ZM114.07,123h26.41c9.22,0,13.69.28,13.69,7.13,0,6.57-4.33,7.27-13.69,7.27H114.07Zm27.81,52.41H114.07V158.59h27.81c10.62,0,15.37,1,15.37,8.53S152.22,175.36,141.88,175.36Z"/><polygon class="cls-1" points="85.48 99.2 74.8 99.2 74.8 117.61 85.48 99.2"/><rect class="cls-2" x="288.03" y="159.43" width="208.93" height="9.95"/><rect class="cls-2" x="524.4" y="159.43" width="28.59" height="9.95"/><rect class="cls-2" x="578.75" y="159.43" width="122.77" height="9.95"/><path class="cls-2" d="M297.35,163.53H288c0-82.15-57.62-154.2-123-154.2V0c35,0,68.24,18,93.72,50.67C283.1,81.84,297.35,123,297.35,163.53Z"/><path class="cls-1" d="M31.51,157.94l.08-.12h0a8,8,0,0,1,.7-1l8.13-4.84-.2-7.91-1.1-.35a7.25,7.25,0,0,1-4.33,4.67c-5.3,1.88-8.18-2.9-8.18-2.9h0l-1.82-9.36-7.44-2.43-.69.94a7.28,7.28,0,0,1,2.92,5.68,7,7,0,0,1-5.41,6.85L4.63,146,0,152.39l.75.94A7.67,7.67,0,0,1,4.95,152c6,0,6.7,5.66,6.76,6.37l0,.15L7.21,166.9l4.21,6.66,1.12-.28A7.34,7.34,0,0,1,13.87,167c3.57-4.38,8.48-1.81,8.48-1.81l6.64,7,7.62-2v-1.21a7.66,7.66,0,0,1-4.09-1.66C28,163.66,31,158.77,31.51,157.94Zm-10.27,3a6,6,0,1,1,6-6A6,6,0,0,1,21.24,160.94Z"/><path class="cls-1" d="M44.86,108.35l.08-.12h0a8,8,0,0,1,.7-1l8.13-4.84-.2-7.91-1.1-.35a7.25,7.25,0,0,1-4.33,4.67c-5.3,1.88-8.18-2.9-8.18-2.9h0L38.14,86.5,30.7,84.07,30,85a7.28,7.28,0,0,1,2.92,5.68,7,7,0,0,1-5.41,6.85L18,96.37l-4.63,6.44.75.94a7.67,7.67,0,0,1,4.2-1.35c6,0,6.7,5.66,6.76,6.37l0,.15-4.48,8.41L24.77,124l1.13-.28a7.34,7.34,0,0,1,1.31-6.26c3.57-4.38,8.48-1.81,8.48-1.81l6.64,7,7.62-2v-1.21a7.66,7.66,0,0,1-4.09-1.66C41.39,114.07,44.31,109.18,44.86,108.35Zm-10.27,3a6,6,0,1,1,6-6A6,6,0,0,1,34.59,111.35Z"/><path class="cls-1" d="M86.1,70l.08-.12h0a8,8,0,0,1,.7-1L95,64l-.2-7.91-1.1-.35a7.25,7.25,0,0,1-4.33,4.67c-5.3,1.88-8.18-2.9-8.18-2.9h0l-1.82-9.36-7.44-2.43-.69.94a7.28,7.28,0,0,1,2.92,5.68,7,7,0,0,1-5.41,6.85L59.22,58l-4.63,6.44.75.94A7.67,7.67,0,0,1,59.53,64c6,0,6.7,5.66,6.76,6.37l0,.15L61.8,79,66,85.62l1.12-.28a7.34,7.34,0,0,1,1.31-6.26c3.57-4.38,8.48-1.81,8.48-1.81l6.64,7,7.62-2V81.11a7.66,7.66,0,0,1-4.09-1.66C82.63,75.72,85.55,70.82,86.1,70ZM75.83,73a6,6,0,1,1,6-6A6,6,0,0,1,75.83,73Z"/><path class="cls-1" d="M141.68,54.83l.08-.12h0a8,8,0,0,1,.7-1l8.13-4.84-.2-7.91-1.1-.35A7.25,7.25,0,0,1,145,45.24c-5.3,1.88-8.18-2.9-8.18-2.9h0L135,33l-7.44-2.43-.69.94a7.28,7.28,0,0,1,2.92,5.68A7,7,0,0,1,124.35,44l-9.55-1.17-4.63,6.44.75.94a7.67,7.67,0,0,1,4.2-1.35c6,0,6.7,5.66,6.76,6.37l0,.15-4.48,8.41,4.21,6.66,1.12-.28A7.34,7.34,0,0,1,124,63.92c3.57-4.38,8.48-1.81,8.48-1.81l6.64,7,7.62-2V66a7.66,7.66,0,0,1-4.09-1.66C138.21,60.56,141.13,55.67,141.68,54.83Zm-10.27,3a6,6,0,1,1,6-6A6,6,0,0,1,131.41,57.84Z"/><path class="cls-1" d="M194.38,70.11l.08-.12h0a8,8,0,0,1,.7-1l8.13-4.84-.2-7.91-1.1-.35a7.25,7.25,0,0,1-4.33,4.67c-5.3,1.88-8.18-2.9-8.18-2.9h0l-1.82-9.36-7.44-2.43-.69.94a7.28,7.28,0,0,1,2.92,5.68A7,7,0,0,1,177,59.29l-9.55-1.17-4.63,6.44.75.94a7.67,7.67,0,0,1,4.2-1.35c6,0,6.7,5.66,6.76,6.37l0,.15-4.48,8.41,4.21,6.66,1.12-.28a7.34,7.34,0,0,1,1.31-6.26c3.57-4.38,8.48-1.81,8.48-1.81l6.64,7,7.62-2V81.23a7.66,7.66,0,0,1-4.09-1.66C190.91,75.83,193.83,70.94,194.38,70.11Zm-10.27,3a6,6,0,1,1,6-6A6,6,0,0,1,184.11,73.11Z"/><path class="cls-1" d="M234.49,109.4l.08-.12h0a8,8,0,0,1,.7-1l8.13-4.84-.2-7.91-1.1-.35a7.25,7.25,0,0,1-4.33,4.67c-5.3,1.88-8.18-2.9-8.18-2.9h0l-1.82-9.36-7.44-2.43-.69.94a7.28,7.28,0,0,1,2.92,5.68,7,7,0,0,1-5.41,6.85l-9.55-1.17L203,103.85l.75.94a7.67,7.67,0,0,1,4.2-1.35c6,0,6.7,5.66,6.76,6.37l0,.15-4.48,8.41L214.4,125l1.12-.28a7.34,7.34,0,0,1,1.31-6.26c3.57-4.38,8.48-1.81,8.48-1.81l6.64,7,7.62-2v-1.21a7.66,7.66,0,0,1-4.09-1.66C231,115.12,233.94,110.23,234.49,109.4Zm-10.27,3a6,6,0,1,1,6-6A6,6,0,0,1,224.21,112.4Z"/><path class="cls-1" d="M249.76,159l.08-.12h0a8,8,0,0,1,.7-1l8.13-4.84-.2-7.9-1.1-.35a7.25,7.25,0,0,1-4.33,4.67c-5.3,1.88-8.18-2.9-8.18-2.9h0L243,137.15l-7.44-2.43-.69.94a7.28,7.28,0,0,1,2.92,5.68,7,7,0,0,1-5.41,6.85L222.87,147l-4.63,6.44.75.94a7.67,7.67,0,0,1,4.2-1.35c6,0,6.7,5.66,6.76,6.37l0,.15L225.46,168l4.21,6.66,1.12-.28a7.34,7.34,0,0,1,1.31-6.26c3.57-4.38,8.48-1.81,8.48-1.81l6.64,7,7.62-2v-1.21a7.66,7.66,0,0,1-4.09-1.66C246.29,164.73,249.21,159.84,249.76,159Zm-10.27,3a6,6,0,1,1,6-6A6,6,0,0,1,239.49,162Z"/><path class="cls-1" d="M235.77,208l.08-.12h0a8,8,0,0,1,.7-1l8.13-4.84-.2-7.9-1.1-.35a7.25,7.25,0,0,1-4.33,4.67c-5.3,1.88-8.18-2.9-8.18-2.9h0L229,186.12l-7.44-2.43-.69.94a7.28,7.28,0,0,1,2.92,5.68,7,7,0,0,1-5.41,6.85L208.88,196l-4.63,6.44.75.94a7.67,7.67,0,0,1,4.2-1.35c6,0,6.7,5.66,6.76,6.37l0,.15-4.48,8.41,4.21,6.66,1.13-.28a7.34,7.34,0,0,1,1.31-6.26c3.57-4.38,8.48-1.81,8.48-1.81l6.64,7,7.62-2v-1.21a7.66,7.66,0,0,1-4.09-1.66C232.29,213.7,235.22,208.8,235.77,208Zm-10.27,3a6,6,0,1,1,6-6A6,6,0,0,1,225.49,211Z"/><path class="cls-1" d="M195.6,247.38l.08-.12h0a8,8,0,0,1,.7-1l8.13-4.84-.2-7.9-1.1-.35a7.25,7.25,0,0,1-4.33,4.67c-5.3,1.88-8.18-2.9-8.18-2.9h0l-1.82-9.36-7.44-2.43-.69.94a7.28,7.28,0,0,1,2.92,5.68,7,7,0,0,1-5.41,6.85l-9.55-1.17-4.63,6.44.75.94a7.67,7.67,0,0,1,4.2-1.35c6,0,6.7,5.66,6.76,6.37,0,.09,0,.15,0,.15l-4.48,8.41,4.21,6.66,1.12-.28a7.34,7.34,0,0,1,1.31-6.26c3.57-4.38,8.48-1.81,8.48-1.81l6.64,7,7.62-2V258.5a7.66,7.66,0,0,1-4.09-1.66C192.13,253.1,195.05,248.21,195.6,247.38Zm-10.27,3a6,6,0,1,1,6-6A6,6,0,0,1,185.33,250.38Z"/><path class="cls-1" d="M140,260.73l.08-.12h0a8,8,0,0,1,.7-1l8.13-4.84-.2-7.91-1.1-.35a7.25,7.25,0,0,1-4.33,4.67c-5.3,1.88-8.18-2.9-8.18-2.9h0l-1.82-9.36-7.44-2.43-.69.94a7.28,7.28,0,0,1,2.92,5.68,7,7,0,0,1-5.41,6.85l-9.55-1.17-4.63,6.44.75.94a7.67,7.67,0,0,1,4.2-1.35c6,0,6.7,5.66,6.76,6.37,0,.09,0,.15,0,.15l-4.48,8.41,4.21,6.66,1.12-.28a7.34,7.34,0,0,1,1.31-6.26c3.57-4.38,8.48-1.81,8.48-1.81l6.64,7,7.62-2v-1.21a7.66,7.66,0,0,1-4.09-1.66C136.52,266.45,139.44,261.56,140,260.73Zm-10.27,3a6,6,0,1,1,6-6A6,6,0,0,1,129.72,263.73Z"/><path class="cls-1" d="M85.6,245.69l.08-.12h0a8,8,0,0,1,.7-1l8.13-4.84-.2-7.91-1.1-.35a7.25,7.25,0,0,1-4.33,4.67c-5.3,1.88-8.18-2.9-8.18-2.9h0l-1.82-9.36-7.44-2.43-.69.94A7.28,7.28,0,0,1,73.68,228a7,7,0,0,1-5.41,6.85l-9.55-1.17-4.63,6.44.75.94a7.67,7.67,0,0,1,4.2-1.35c6,0,6.7,5.66,6.76,6.37l0,.15-4.48,8.41,4.21,6.66,1.13-.28A7.34,7.34,0,0,1,68,254.77c3.57-4.38,8.48-1.81,8.48-1.81l6.64,7,7.62-2v-1.21a7.66,7.66,0,0,1-4.09-1.66C82.13,251.41,85.05,246.52,85.6,245.69Zm-10.27,3a6,6,0,1,1,6-6A6,6,0,0,1,75.33,248.69Z"/><path class="cls-1" d="M44.91,205.78l.08-.12h0a8,8,0,0,1,.7-1l8.13-4.84-.2-7.9-1.1-.35a7.25,7.25,0,0,1-4.33,4.67c-5.3,1.88-8.18-2.9-8.18-2.9h0l-1.82-9.36-7.44-2.43-.69.94A7.28,7.28,0,0,1,33,188.11,7,7,0,0,1,27.58,195L18,193.8l-4.63,6.44.75.94a7.67,7.67,0,0,1,4.2-1.35c6,0,6.7,5.66,6.76,6.37l0,.15-4.48,8.41,4.21,6.66,1.13-.28a7.34,7.34,0,0,1,1.31-6.26c3.57-4.38,8.48-1.81,8.48-1.81l6.64,7,7.62-2V216.9a7.66,7.66,0,0,1-4.09-1.66C41.44,211.51,44.37,206.61,44.91,205.78Zm-10.27,3a6,6,0,1,1,6-6A6,6,0,0,1,34.64,208.78Z"/><path class="cls-3" d="M414.18,72.16h-18a1.21,1.21,0,0,0-1.3.84c-2.62,7.64-22.28,65-25.19,73.48-.23.69.59,1.05.59,1.05h15.25a1.18,1.18,0,0,0,1.29-1.11l6.16-21s.39-1.09,1.23-1.09h22.13c1.5,0,1.57,1,1.57,1L425,146.51s.17,1,1.6,1h13.22c.78,0,1.11-.43.84-1.22-3.08-8.93-22.32-65.11-25.09-73.18C415.37,72.5,415.25,72.16,414.18,72.16Zm-15.92,37,5.31-18.58s.26-.71.74-.71h1.62a1,1,0,0,1,.93.75l5.3,18.54s.29.81-.73.81H399C398,110,398.26,109.16,398.26,109.16Z"/><path class="cls-3" d="M469.22,70.85c-7.75,0-15.43.52-18.31.74a1.19,1.19,0,0,0-1.19,1.05v73.94s0,1,.89,1h15.26a1,1,0,0,0,1.08-.9v-27.1a.91.91,0,0,1,1-1h4.73c4.07,0,30.69-1.26,30.69-23.51C503.37,73.42,484,70.85,469.22,70.85Zm-2.28,32.48V84.85c0-.66.44-.78,1.19-.82,4-.26,16.88-.24,16.88,10.45,0,10-13.1,10-17,9.83C467.34,104.27,466.94,104.16,466.94,103.33Z"/><path class="cls-3" d="M567.44,132.1V74.32a1.5,1.5,0,0,0-1.62-1.67H534a1.78,1.78,0,0,0-1.48.75,228,228,0,0,0-13.9,28C514,112.48,508.77,128,507.45,132c-.2.62-.38,1-1.21,1H503.6a2,2,0,0,0-2.2,2.15v15.07c0,9.21,1.83,14.13,2.83,16.14.38.75.58,1.09,1.41,1.09H518c.42,0,.5-.28.26-.89-.76-2-2.37-7.33-2.47-18.19,0-.33.05-1.08.84-1,6.63,0,36.48.2,41.51.23.84-.05.72.84.72.84v18s-.06,1,.84,1H572.4c.84,0,.78-.36.78-1V135.57c0-2,0-2.63-1.79-2.63h-3.17C567.56,132.94,567.44,132.88,567.44,132.1Zm-18.25.84H525.32c-.61,0-.88-.31-.72-.88a205.08,205.08,0,0,1,11.25-30.7c4.87-10.36,7.06-14.55,8-16.19.49-.86.75-1,1.71-1h3.71c1.08,0,1,1.2,1,1.2V132C550.21,132.94,550.09,132.94,549.19,132.94Z"/><path class="cls-3" d="M584.66,146.46V74A1.23,1.23,0,0,1,586,72.64H632.1c.88,0,1.38,0,1.38,1.38V85.8c0,.74.12,1.2-1.14,1.2h-26.5c-.69,0-1.08.36-1.08,1.2v12.08c0,.67.12,1.08,1.14,1.08h20.76a1.06,1.06,0,0,1,1.08,1.08v11.78c0,.78-.12,1.5-1,1.5H606.26c-.91,0-1.5.42-1.5,1.26v14.89c0,.68.24,1.08,1.19,1.08h29.19c1,0,1.2.48,1.2,1.26v12.14c0,.74-.18,1.19-1.2,1.19H585.68A.94.94,0,0,1,584.66,146.46Z"/><path class="cls-3" d="M648.79,72.64h15.13c1.2,0,1.14.44,1.14,1.2v26.44c0,.84,0,1.08.84,1.08h3.35c4.91,0,13-6.94,13-17.23V73.6c0-.67.18-1,.9-1h12.5a.92.92,0,0,1,1,1v7.6c0,17.54-12.92,26.23-16.38,28.25-.54.31-.54.65,0,1,3.85,2.71,19.64,15.08,20.2,35.86,0,.38-.1,1.14-.88,1.14h-14c-1,0-1.14-.41-1.19-1.14-.22-3.76-1.43-15.85-7.85-22.07-5.25-5.08-8.7-6.68-10.35-7.19-.76-.23-1.13.09-1.13.66v28.41c0,1-.47,1.32-1.26,1.32h-14.6c-1.38,0-1.38-.59-1.38-1.31V73.66A.89.89,0,0,1,648.79,72.64Z"/><path class="cls-3" d="M352.08,105.63c0-.27.27-.42.74-.6,2.54-1,10.75-5.16,10.75-15.16,0-15.55-19-19.56-33.14-19.56-11.19,0-18.09,1.47-20.48,2.07-.91.23-.94.7-.94,1.27v69.87c0,.58.21,1.12,1.19,1.41,2.34.7,6.93,1.35,25.43.86,18.07-.48,32.84-7.43,32.84-21.36s-12.34-17.64-15.65-18.3C352.36,106,352.08,105.9,352.08,105.63ZM334.86,85.48c6.22,0,11.49,2.26,11.49,7.86,0,5.37-5,8-11.49,8h-8c-.42,0-.6-.29-.6-.78V86.1c0-.36.24-.57.72-.58C328.18,85.51,330.93,85.48,334.86,85.48Zm0,47.46h-7.93a.63.63,0,0,1-.69-.69V113.5a.58.58,0,0,1,.6-.66h8a19.81,19.81,0,0,1,9.15,2.06c3,1.68,5.2,4.1,5.2,8.59,0,4.9-3.18,6.92-6.82,8.28A22.89,22.89,0,0,1,334.86,132.94Z"/><path class="cls-1" d="M481.7,238.67h-8.86L467.54,211l-10.37,28.41h-3.23L443.49,211l-5.55,27.7h-8.79l10.37-51.47h4.82l11.18,34.7,10.86-34.7h4.82Z"/><path class="cls-1" d="M497.84,195.26v12.09h17.05v7.77H497.84v15.43h23.31v8.12H488.7V187.21h32.87v8.05Z"/><path class="cls-1" d="M539.25,207.35q3.8-.35,6.68-.35,9,0,14,4.15t5,11.92a14.13,14.13,0,0,1-5,11.37q-5,4.24-14,4.24H530.18V187.21h31.08v7.91h-22Zm0,23.7q2.85.21,5,.21,6,0,8.67-2.25a8.06,8.06,0,0,0,2.62-6.47,7.78,7.78,0,0,0-2.39-5.94q-2.39-2.25-8.61-2.25a52.12,52.12,0,0,0-5.24.28Z"/><path class="cls-1" d="M582.39,195.26v12.09h17.05v7.77H582.39v15.43H605.7v8.12H573.25V187.21h32.87v8.05Z"/><path class="cls-1" d="M654.39,238.67h-9V195h-9.95a158.6,158.6,0,0,1-3.25,20,56.84,56.84,0,0,1-5.26,14.87q-3.06,5.4-6.94,7.38a20.37,20.37,0,0,1-9.37,2v-8.4a11.87,11.87,0,0,0,4.18-.65,9,9,0,0,0,3.57-2.94q1.85-2.29,3.92-8.58a113.06,113.06,0,0,0,3.64-14.8q1.56-8.51,2.41-16.59h26.05Z"/><path class="cls-1" d="M674.15,206.51q4.5-.46,7.31-.46,9,0,14,4.32t5,12.23a14.72,14.72,0,0,1-5,11.69q-5,4.38-14,4.38H665V187.21h9.14Zm0,24.54q3,.21,5.31.21,11.6,0,11.6-9.14a7.72,7.72,0,0,0-2.85-6.35q-2.85-2.3-8.26-2.3-2,0-5.8.35Z"/></g></g></svg>