<svg width="70" height="74" viewBox="0 0 70 74" fill="none" xmlns="http://www.w3.org/2000/svg">
<ellipse cx="22.8555" cy="62.2234" rx="4.83096" ry="10.2934" transform="rotate(20.679 22.8555 62.2234)" fill="white"/>
<ellipse cx="35" cy="33" rx="34" ry="31" fill="white"/>
<path d="M33.1577 0.0107692C27.2389 0.0824655 14.5141 1.05846 7.3968 7.61058C2.10265 12.8745 0.254198 20.657 0.0375462 30.2805C-0.142229 39.8693 -0.358881 57.8767 16.9387 62.7798V70.2477C16.9387 70.2477 16.8304 73.2359 18.7987 73.8487C21.2234 74.6189 22.6039 72.32 24.9087 69.8499L29.2072 64.9723C41.0424 65.9598 50.1072 63.6841 51.1513 63.3464C53.5529 62.5762 67.0798 60.8416 69.2902 42.832C71.5581 24.2326 68.1861 12.5137 62.0991 7.21278H62.0623C60.2253 5.5152 52.843 0.117157 36.3498 0.0570249C36.3498 0.0570249 35.126 -0.0262354 33.1577 0.00845638V0.0107692ZM33.3605 5.23998C35.0407 5.22841 36.0617 5.30011 36.0617 5.30011C50.0219 5.33711 56.6851 9.55332 58.257 10.9734C63.3829 15.3815 66.0242 25.9463 64.0905 41.4744C62.2536 56.5306 51.2827 57.4835 49.2521 58.1334C48.3878 58.4109 40.404 60.386 30.3458 59.7361C30.3458 59.7361 22.8552 68.8069 20.5135 71.1428C20.1424 71.5522 19.7091 71.6724 19.4325 71.6123C19.0361 71.5152 18.9162 71.0225 18.9393 70.3472L19.0107 57.953C4.34063 53.8825 5.20493 38.5233 5.36166 30.5002C5.54143 22.4772 7.04186 15.9135 11.5086 11.4683C17.5218 6.01245 28.3268 5.27698 33.3559 5.23998H33.3605ZM34.4668 13.2607C34.346 13.2595 34.2263 13.2823 34.1143 13.3277C34.0024 13.3732 33.9005 13.4404 33.8146 13.5255C33.7287 13.6107 33.6604 13.712 33.6137 13.8238C33.5671 13.9355 33.5429 14.0554 33.5426 14.1766C33.5426 14.6946 33.962 15.104 34.4668 15.104C36.752 15.0604 39.0232 15.4712 41.1495 16.3127C43.2757 17.1543 45.2149 18.4099 46.8551 20.0071C50.204 23.2705 51.8358 27.6555 51.8981 33.3889C51.8981 33.8954 52.306 34.3163 52.8223 34.3163V34.2793C53.0656 34.2799 53.2993 34.184 53.4724 34.0124C53.6456 33.8409 53.7441 33.6076 53.7465 33.3634C53.8584 30.6648 53.4223 27.9714 52.4646 25.4472C51.507 22.9229 50.0478 20.6204 48.1758 18.6796C44.5273 15.1017 39.9038 13.2584 34.4668 13.2584V13.2607ZM22.3181 15.3815C21.6658 15.2859 21.0004 15.4173 20.4328 15.7539H20.3844C19.0667 16.529 17.8796 17.5087 16.8673 18.6564C16.026 19.6324 15.5697 20.62 15.4498 21.5706C15.3784 22.1372 15.4268 22.7038 15.595 23.245L15.6549 23.282C16.6022 26.0759 17.8399 28.7633 19.3518 31.2935C21.2995 34.8481 23.6963 38.1356 26.4829 41.0743L26.5659 41.1945L26.6973 41.2917L26.7802 41.3888L26.8771 41.4721C29.8162 44.2765 33.1002 46.6929 36.6494 48.6625C40.7059 50.8782 43.1674 51.9259 44.6448 52.3607V52.3838C45.0781 52.5156 45.4722 52.5757 45.8687 52.5757C47.1278 52.4832 48.3197 51.9702 49.2544 51.1187C50.3931 50.1026 51.3585 48.9066 52.1124 47.5778V47.5547C52.82 46.2179 52.5803 44.9528 51.5592 44.0971C49.5145 42.3035 47.3033 40.7105 44.956 39.3397C43.3841 38.484 41.7869 39.002 41.1392 39.8693L39.7586 41.6155C39.0511 42.4828 37.765 42.3625 37.765 42.3625L37.7281 42.3856C28.1378 39.9271 25.5794 30.1834 25.5794 30.1834C25.5794 30.1834 25.4596 28.8581 26.3469 28.1828L28.0756 26.7859C28.903 26.1105 29.4792 24.5101 28.5918 22.9305C27.2352 20.5718 25.6511 18.3524 23.8624 16.3043C23.4713 15.8215 22.9227 15.493 22.3135 15.3769L22.3181 15.3815ZM36.0617 18.1291C34.8379 18.1291 34.8379 19.984 36.0732 19.984C37.5951 20.0088 39.0971 20.3342 40.4935 20.9418C41.8899 21.5493 43.1533 22.4271 44.2115 23.5249C45.1768 24.5934 45.9186 25.8455 46.3929 27.2069C46.8672 28.5684 47.0643 30.0115 46.9727 31.4508C46.9769 31.6944 47.076 31.9266 47.2487 32.0978C47.4215 32.269 47.6541 32.3655 47.8969 32.3666L47.9338 32.4152C48.1783 32.4134 48.4124 32.3151 48.5853 32.1416C48.7583 31.968 48.8562 31.7332 48.858 31.4878C48.941 27.8128 47.8024 24.7298 45.5691 22.2598C43.3242 19.7897 40.1919 18.4043 36.1931 18.1291H36.0617V18.1291ZM37.576 23.1155C36.3152 23.0785 36.2668 24.9703 37.5161 25.0074C40.5538 25.1646 42.0289 26.7049 42.2225 29.8735C42.2267 30.114 42.3246 30.3433 42.4951 30.5123C42.6657 30.6813 42.8955 30.7766 43.1352 30.7778H43.1721C43.2953 30.7724 43.4163 30.7426 43.5279 30.6898C43.6395 30.6371 43.7395 30.5626 43.8221 30.4707C43.9047 30.3788 43.9682 30.2712 44.009 30.1544C44.0497 30.0376 44.0669 29.9137 44.0594 29.7902C43.8428 25.6596 41.5979 23.3329 37.6129 23.1178H37.576V23.1155Z" fill="#9055A8"/>
</svg>
