<svg width="23" height="23" viewBox="0 0 23 23" fill="none" xmlns="http://www.w3.org/2000/svg">
<path d="M4.22276 0C3.10416 0.00435895 2.03261 0.450655 1.24163 1.24163C0.450655 2.03261 0.00435895 3.10416 0 4.22276V18.5359C0.00435895 19.6545 0.450655 20.726 1.24163 21.517C2.03261 22.308 3.10416 22.7543 4.22276 22.7586H18.5359C19.6545 22.7543 20.726 22.308 21.517 21.517C22.308 20.726 22.7543 19.6545 22.7586 18.5359V4.22276C22.7543 3.10416 22.308 2.03261 21.517 1.24163C20.726 0.450655 19.6545 0.00435895 18.5359 0H4.22276ZM4.22276 2.06897H18.5359C19.7359 2.06897 20.6897 3.02276 20.6897 4.22276V18.5359C20.6897 19.7359 19.7359 20.6897 18.5359 20.6897H4.22276C3.93942 20.6914 3.65855 20.637 3.39643 20.5293C3.13431 20.4217 2.89617 20.2632 2.69582 20.0628C2.49546 19.8625 2.33688 19.6243 2.22928 19.3622C2.12167 19.1001 2.06718 18.8192 2.06897 18.5359V4.22276C2.06897 3.02276 3.02276 2.06897 4.22276 2.06897ZM11.0886 7.47931C10.3283 7.47207 9.68173 7.47931 9.31862 7.65724C9.07552 7.77517 8.89035 8.04103 9.0031 8.05345C9.14483 8.07414 9.46345 8.14241 9.63414 8.3731C9.85138 8.66793 9.84414 9.33517 9.84414 9.33517C9.84414 9.33517 9.96517 11.1693 9.54828 11.4C9.26172 11.5572 8.86966 11.2376 8.02138 9.77897C7.58897 9.02793 7.26207 8.19931 7.26207 8.19931C7.26207 8.19931 7.2 8.04517 7.08828 7.96448C6.95069 7.86414 6.76034 7.83103 6.76034 7.83103L4.73586 7.84345C4.73586 7.84345 4.43276 7.85586 4.32414 7.98517C4.22276 8.10621 4.31586 8.34414 4.31586 8.34414C4.31586 8.34414 5.89966 12.0497 7.69345 13.9169C9.33828 15.631 11.2055 15.5172 11.2055 15.5172H12.0538C12.0538 15.5172 12.3083 15.4893 12.4376 15.3517C12.5597 15.2224 12.5555 14.9793 12.5555 14.9793C12.5555 14.9793 12.539 13.8445 13.0645 13.6748C13.5859 13.5124 14.2479 14.7734 14.9555 15.2586C15.4935 15.6259 15.901 15.5452 15.901 15.5452L17.7931 15.5172C17.7931 15.5172 18.779 15.4562 18.3103 14.6762C18.2741 14.6162 18.0393 14.1031 16.9086 13.0521C15.72 11.9535 15.8783 12.1314 17.3079 10.2279C18.1769 9.06828 18.5245 8.36069 18.4148 8.05345C18.3114 7.7669 17.6721 7.84345 17.6721 7.84345L15.5421 7.85586C15.5421 7.85586 15.3848 7.83517 15.2679 7.90448C15.1876 7.96418 15.1235 8.04316 15.0817 8.13414C15.0817 8.13414 14.7424 9.03104 14.2934 9.79552C13.3479 11.4031 12.9641 11.4921 12.811 11.3917C12.451 11.1569 12.54 10.4534 12.54 9.9569C12.54 8.39276 12.7779 7.74621 12.0797 7.57759C11.849 7.52069 11.6793 7.48448 11.0897 7.47931H11.0886Z" fill="black"/>
</svg>
