<svg width="70" height="70" viewBox="0 0 70 70" fill="none" xmlns="http://www.w3.org/2000/svg">
<g clip-path="url(#clip0_534_21)">
<rect x="8" y="7" width="59" height="53" fill="white"/>
<path d="M45.7429 0H24.2551C4.64636 0 -0.0020752 4.64844 -0.0020752 24.2572V45.745C-0.0020752 65.3538 4.64636 70.0022 24.2551 70.0022H45.7429C65.3517 70.0022 70.0001 65.3538 70.0001 45.745V24.2572C70.0001 4.64844 65.3057 0 45.7429 0ZM56.5098 49.9362H51.4282C49.5032 49.9362 48.9104 48.4094 45.4476 44.9006C42.4398 41.9847 41.1076 41.5975 40.366 41.5975C39.3182 41.5975 39.0207 41.8928 39.0207 43.33V47.9216C39.0207 49.1531 38.6335 49.8925 35.3742 49.8925C29.9842 49.8925 24.0036 46.6331 19.8101 40.5606C13.4861 31.6619 11.7557 24.9966 11.7557 23.6184C11.7557 22.8769 12.051 22.1834 13.4751 22.1834H18.5676C19.8561 22.1834 20.3461 22.7762 20.847 24.1544C23.3648 31.4234 27.5582 37.7912 29.2886 37.7912C29.9273 37.7912 30.2226 37.4959 30.2226 35.8662V28.3587C30.0279 24.8959 28.2057 24.5984 28.2057 23.3691C28.2057 22.7762 28.6957 22.1834 29.4811 22.1834H37.4895C38.5723 22.1834 38.9704 22.7762 38.9704 24.0516V34.1797C38.9704 35.2734 39.4604 35.6606 39.7557 35.6606C40.3945 35.6606 40.9414 35.2734 42.1248 34.0878C45.7823 29.9863 48.4029 23.6622 48.4029 23.6622C48.7442 22.9206 49.337 22.2272 50.6254 22.2272H55.7179C57.2448 22.2272 57.586 23.0125 57.2448 24.1063C56.606 27.0681 50.3739 35.8641 50.3739 35.8641C49.8379 36.7522 49.6323 37.1394 50.3739 38.1303C50.9207 38.8719 52.6992 40.4097 53.8826 41.7878C56.0592 44.2597 57.7326 46.3334 58.1789 47.7684C58.6798 49.1925 57.9404 49.9341 56.5032 49.9341L56.5098 49.9362Z" fill="#0065CC"/>
</g>
<defs>
<clipPath id="clip0_534_21">
<rect width="70" height="70" fill="white"/>
</clipPath>
</defs>
</svg>
