<svg width="1920" height="520" viewBox="0 0 1920 520" fill="none" xmlns="http://www.w3.org/2000/svg">
<rect width="1920" height="520" fill="#191D29"/>
<g clip-path="url(#clip0_182_92)">
<path d="M717.054 342.151C716.895 341.812 716.685 341.499 716.43 341.224C716.345 341.14 716.227 341.073 716.126 340.988C717.31 340.257 718.602 339.716 719.954 339.387C719.945 339.521 719.945 339.657 719.954 339.791C719.958 340.167 720.032 340.539 720.173 340.887C719.077 341.154 718.026 341.58 717.054 342.151Z" fill="white"/>
<path d="M1043.61 342.151C1043.46 341.807 1043.25 341.493 1042.98 341.224L1042.61 341.056C1043.8 340.324 1045.09 339.784 1046.44 339.454C1046.43 339.589 1046.43 339.724 1046.44 339.859C1046.44 340.234 1046.52 340.606 1046.66 340.955C1045.59 341.206 1044.56 341.609 1043.61 342.151Z" fill="white"/>
<path d="M1038.53 348.676H1037C1037.32 347.432 1037.84 346.244 1038.51 345.152C1038.6 345.253 1038.67 345.355 1038.77 345.456C1039.03 345.722 1039.35 345.934 1039.7 346.08C1039.2 346.892 1038.81 347.765 1038.53 348.676Z" fill="white"/>
<path d="M1055.31 342.151C1054.35 341.586 1053.31 341.16 1052.22 340.887C1052.36 340.539 1052.44 340.167 1052.44 339.791C1052.45 339.657 1052.45 339.521 1052.44 339.387C1053.8 339.716 1055.1 340.257 1056.29 340.988C1056.19 341.073 1056.07 341.14 1055.98 341.224C1055.7 341.484 1055.47 341.799 1055.31 342.151Z" fill="white"/>
<path d="M637.08 137.067H1112.57C1114.83 137.067 1116.65 138.349 1116.65 139.916V305.973C1116.65 307.541 1114.83 308.805 1112.57 308.805H1131.98C1131.96 308.654 1131.96 308.502 1131.98 308.35V213.572H1240.51C1239.57 214.106 1238.51 214.401 1237.43 214.431C1237.01 214.431 1236.57 214.988 1236.1 215.004C1233.89 215.004 1194.67 215.004 1194.67 215.004V250.02L1202.54 259.545H1229.52C1230.37 259.517 1231.2 259.822 1231.83 260.395C1232.46 260.968 1232.84 261.763 1232.89 262.613V305.653C1232.89 307.339 1231.36 316.24 1229.52 316.24H1230.97C1232.88 316.24 1234.34 307.339 1234.34 305.653V264.215L1240.45 265.344C1240.45 265.344 1240.45 265.209 1240.45 265.142H1242.13H1242.49L1234.29 263.928V262.647C1234.24 261.797 1233.86 261.001 1233.23 260.428C1232.6 259.855 1231.77 259.551 1230.92 259.579C1234.29 258.487 1237.81 257.952 1241.36 257.994C1241.23 257.439 1241.16 256.875 1241.12 256.308C1240.99 253.865 1240.99 251.417 1241.12 248.974C1241.32 245.518 1242.81 243.192 1244.05 243.715L1244.37 243.833V242.939H1244.17C1243.24 242.833 1242.39 242.365 1241.8 241.637C1241.21 240.908 1240.93 239.978 1241.02 239.045V222.304C1240.93 221.371 1241.21 220.441 1241.8 219.712C1242.39 218.984 1243.24 218.516 1244.17 218.41V218.41C1244.06 217.959 1243.81 217.555 1243.45 217.253C1243.1 216.951 1242.66 216.766 1242.2 216.724H1238.54C1238.54 216.083 1238.54 215.443 1238.54 214.785H1242.27C1243.2 214.882 1244.06 215.298 1244.72 215.962C1245.38 216.626 1245.79 217.497 1245.88 218.427H1245.98C1246.91 218.533 1247.76 219.001 1248.35 219.729C1248.94 220.457 1249.22 221.388 1249.13 222.321V239.062C1249.22 239.994 1248.94 240.925 1248.35 241.654C1247.76 242.382 1246.91 242.85 1245.98 242.956V244.423L1250.26 246.007C1250.96 246.506 1251.51 247.189 1251.85 247.98C1252.18 248.772 1252.29 249.641 1252.16 250.492C1252.08 251.94 1252.08 253.393 1252.16 254.841C1252.29 256.251 1251.87 257.656 1251 258.769C1284.86 265.513 1280.26 270.789 1280.26 270.789L1245.07 265.597C1244.91 265.821 1244.73 266.035 1244.54 266.238L1280.26 272.863V275.931C1270.46 275.493 1261.13 275.122 1261.15 275.274L1273.16 340.247C1273.29 341.208 1270.91 342.101 1268.18 342.826C1265.27 341.048 1262.17 339.601 1258.94 338.51V335.408C1259.09 335.644 1259.26 335.779 1259.43 335.779H1268.39C1270.17 335.779 1271.39 334.936 1271.52 333.571C1271.62 332.559 1271.23 330.671 1268.84 327.316C1265.08 322.09 1262.1 319.443 1260.16 319.443C1259.68 319.438 1259.23 319.613 1258.88 319.932V315.987C1258.73 314.83 1258.13 313.775 1257.22 313.048C1256.31 312.321 1255.15 311.978 1253.99 312.093H1251.69C1250.71 312.037 1249.74 312.279 1248.9 312.787C1248.06 313.296 1247.39 314.047 1246.99 314.942C1248.01 314.027 1249.34 313.533 1250.71 313.56H1253.07C1255.79 313.56 1257.98 315.245 1257.98 317.437V342.472C1257.98 342.829 1257.92 343.182 1257.8 343.517C1257.97 343.353 1258.13 343.173 1258.27 342.978V343.197C1258.27 344.495 1258.69 345.557 1259.2 345.557H1267.63C1267.95 345.557 1268.25 345.085 1268.4 344.411H1280.2V348.524H1227.5C1227.41 347.428 1227.33 346.333 1227.26 345.237H1218.12C1216.57 337.946 1212.57 331.408 1206.78 326.717C1200.99 322.026 1193.76 319.466 1186.3 319.466C1178.85 319.466 1171.62 322.026 1165.83 326.717C1160.04 331.408 1156.03 337.946 1154.49 345.237H1091.85V342.641H1080.84C1080.65 342.017 1077.82 336.555 1074.97 331.126L1074.55 331.008C1069.17 324.522 1061.48 320.372 1053.11 319.429C1044.73 318.486 1036.32 320.823 1029.63 325.951H982.147C980.647 325.951 979.433 326.608 979.433 327.417H980.107H1027.84C1021.61 332.874 1017.68 340.489 1016.85 348.726H982.653C981.552 348.796 980.468 348.427 979.637 347.701C978.806 346.975 978.296 345.95 978.219 344.849V342.59H962.116V344.849C962.005 345.977 961.454 347.016 960.584 347.741C959.713 348.467 958.592 348.82 957.462 348.726H896.188C895.059 348.82 893.938 348.467 893.067 347.741C892.196 347.016 891.646 345.977 891.535 344.849V342.59H876.629C857.879 342.59 854.625 342.472 845.014 342.202L838.27 342.59C837.908 341.38 837.474 340.192 836.971 339.033H837.207C836.77 338.537 836.427 337.966 836.196 337.347C833.495 331.88 829.318 327.277 824.138 324.058C818.958 320.84 812.981 319.134 806.882 319.134C800.784 319.134 794.806 320.84 789.626 324.058C784.446 327.277 780.27 331.88 777.569 337.347H752.176C749.76 332.48 746.167 328.292 741.724 325.162C737.281 322.033 732.128 320.061 726.73 319.425C721.333 318.789 715.862 319.509 710.813 321.52C705.764 323.53 701.297 326.768 697.815 330.941H674.513V308.738H667.953V338.982H692.824C692.321 340.141 691.888 341.329 691.526 342.539H662.861V308.738H637.097C634.838 308.738 633 307.474 633 305.906V139.849C632.983 138.281 634.821 137.067 637.08 137.067ZM1180.87 296.077C1189.42 295.699 1197.95 297.171 1205.88 300.393C1209.81 302.006 1213.52 304.132 1216.89 306.715C1220.25 309.282 1223.17 312.366 1225.56 315.852C1227.93 319.33 1229.69 323.191 1230.75 327.266C1231.78 331.345 1232.2 335.556 1231.98 339.758H1233.92C1234.06 335.378 1233.54 331.003 1232.39 326.777C1231.2 322.548 1229.3 318.555 1226.75 314.976C1224.22 311.414 1221.14 308.278 1217.62 305.687C1214.12 303.12 1210.3 301.023 1206.25 299.449C1198.17 296.338 1189.52 295.004 1180.87 295.538C1172.26 296.004 1163.84 298.346 1156.22 302.399C1163.88 298.519 1172.29 296.362 1180.87 296.077V296.077ZM962.099 338.982H978.202V330.941H962.099V338.982ZM896.61 327.4H897.183H956.771C958.019 327.4 959.03 328.041 959.03 328.85V327.4C959.03 326.591 958.019 325.934 956.771 325.934H898.886C897.638 325.934 896.627 326.591 896.627 327.4H896.61ZM891.551 338.982V330.941H883.576V337.398H873.729C855.316 337.398 854.406 337.398 840.495 337.819L891.551 338.982ZM1107.68 304.54V301.641L693.448 302.45L640.301 304.54H1107.68Z" fill="white"/>
<path d="M728.755 342.151C727.793 341.583 726.754 341.157 725.67 340.887C725.811 340.539 725.885 340.167 725.889 339.791C725.897 339.657 725.897 339.521 725.889 339.387C727.241 339.716 728.533 340.257 729.717 340.988L729.413 341.224C729.139 341.49 728.916 341.805 728.755 342.151Z" fill="white"/>
<path d="M812.775 342.151C811.812 341.586 810.773 341.16 809.69 340.887C809.825 340.538 809.894 340.166 809.892 339.791C809.9 339.657 809.9 339.521 809.892 339.387C811.245 339.713 812.537 340.254 813.72 340.988L813.433 341.224C813.151 341.484 812.927 341.8 812.775 342.151Z" fill="white"/>
<path d="M801.074 342.151C800.915 341.812 800.705 341.499 800.45 341.224L800.146 340.988C801.329 340.254 802.621 339.713 803.974 339.387C803.965 339.521 803.965 339.657 803.974 339.791C803.972 340.166 804.041 340.538 804.176 340.887C803.085 341.154 802.04 341.58 801.074 342.151V342.151Z" fill="white"/>
<path d="M1278.57 367.625H1220.77V350.783H1287L1278.57 367.625Z" fill="white"/>
<path d="M1264.73 281.899C1264.73 281.006 1265.79 280.213 1267.12 280.213H1280.26V283.45H1267.12C1265.79 283.518 1264.73 282.793 1264.73 281.899Z" fill="white"/>
<path d="M1280.26 289.823H1268.28C1267 289.823 1265.97 289.098 1265.97 288.137C1265.97 287.176 1267 286.535 1268.28 286.535H1280.26V289.823Z" fill="white"/>
<path d="M1280.26 296.128H1269.4C1268.17 296.128 1267.17 295.42 1267.17 294.442C1267.17 293.464 1268.17 292.756 1269.4 292.756H1280.26V296.128Z" fill="white"/>
<path d="M1280.26 302.45H1270.46C1270.21 302.523 1269.94 302.537 1269.69 302.49C1269.43 302.443 1269.18 302.337 1268.98 302.18C1268.77 302.023 1268.6 301.819 1268.48 301.585C1268.36 301.351 1268.3 301.093 1268.3 300.831C1268.3 300.57 1268.36 300.312 1268.48 300.077C1268.6 299.843 1268.77 299.64 1268.98 299.483C1269.18 299.326 1269.43 299.22 1269.69 299.173C1269.94 299.126 1270.21 299.14 1270.46 299.213H1280.26V302.45Z" fill="white"/>
<path d="M1280.26 308.755H1271.49C1271.24 308.833 1270.97 308.851 1270.71 308.807C1270.45 308.763 1270.2 308.659 1269.99 308.502C1269.77 308.346 1269.6 308.141 1269.48 307.905C1269.36 307.67 1269.3 307.409 1269.3 307.145C1269.3 306.881 1269.36 306.62 1269.48 306.384C1269.6 306.149 1269.77 305.944 1269.99 305.787C1270.2 305.631 1270.45 305.526 1270.71 305.482C1270.97 305.439 1271.24 305.456 1271.49 305.535H1280.26V308.755Z" fill="white"/>
<path d="M1280.26 315.077H1272.48C1272.23 315.15 1271.97 315.164 1271.71 315.117C1271.45 315.07 1271.21 314.964 1271 314.807C1270.79 314.65 1270.62 314.446 1270.5 314.212C1270.38 313.978 1270.32 313.72 1270.32 313.458C1270.32 313.197 1270.38 312.939 1270.5 312.704C1270.62 312.47 1270.79 312.267 1271 312.11C1271.21 311.953 1271.45 311.846 1271.71 311.8C1271.97 311.753 1272.23 311.767 1272.48 311.84H1280.26V315.077Z" fill="white"/>
<path d="M1280.26 321.382H1273.51C1273.26 321.46 1272.99 321.478 1272.73 321.434C1272.47 321.39 1272.22 321.286 1272.01 321.129C1271.8 320.973 1271.63 320.768 1271.51 320.532C1271.39 320.296 1271.32 320.036 1271.32 319.772C1271.32 319.508 1271.39 319.247 1271.51 319.011C1271.63 318.776 1271.8 318.571 1272.01 318.414C1272.22 318.258 1272.47 318.153 1272.73 318.109C1272.99 318.065 1273.26 318.083 1273.51 318.162H1280.26V321.382Z" fill="white"/>
<path d="M1280.26 327.704H1274.34C1274.09 327.777 1273.82 327.791 1273.56 327.744C1273.31 327.697 1273.06 327.591 1272.85 327.434C1272.64 327.277 1272.47 327.073 1272.36 326.839C1272.24 326.605 1272.18 326.347 1272.18 326.085C1272.18 325.824 1272.24 325.565 1272.36 325.331C1272.47 325.097 1272.64 324.894 1272.85 324.737C1273.06 324.58 1273.31 324.473 1273.56 324.427C1273.82 324.38 1274.09 324.394 1274.34 324.467H1280.26V327.704Z" fill="white"/>
<path d="M1280.26 334.009H1275.2C1274.95 334.082 1274.68 334.096 1274.42 334.049C1274.17 334.002 1273.92 333.896 1273.71 333.739C1273.5 333.582 1273.33 333.378 1273.22 333.144C1273.1 332.91 1273.04 332.652 1273.04 332.39C1273.04 332.129 1273.1 331.871 1273.22 331.637C1273.33 331.402 1273.5 331.199 1273.71 331.042C1273.92 330.885 1274.17 330.779 1274.42 330.732C1274.68 330.685 1274.95 330.699 1275.2 330.772H1280.26V334.009Z" fill="white"/>
<path d="M1280.26 340.314H1276.07C1275.82 340.393 1275.55 340.411 1275.29 340.367C1275.03 340.323 1274.79 340.219 1274.57 340.062C1274.36 339.905 1274.19 339.701 1274.07 339.465C1273.95 339.229 1273.89 338.969 1273.89 338.704C1273.89 338.44 1273.95 338.18 1274.07 337.944C1274.19 337.708 1274.36 337.504 1274.57 337.347C1274.79 337.19 1275.03 337.086 1275.29 337.042C1275.55 336.998 1275.82 337.016 1276.07 337.094H1280.26V340.314Z" fill="white"/>
<path d="M1211.93 168.239C1210.65 168.996 1209.18 169.387 1207.68 169.368C1204.01 169.368 1200.94 167.143 1200.94 164.429C1200.94 161.714 1203.92 159.489 1207.68 159.489C1209.23 159.476 1210.75 159.896 1212.07 160.703C1211.92 161.428 1211.87 167.767 1211.93 168.239Z" fill="white"/>
<path d="M1139.92 170.464C1161.42 170.464 1182.73 170.768 1204.85 171.375V169.689C1205.3 169.777 1205.75 169.822 1206.2 169.824C1206.68 169.825 1207.15 169.774 1207.62 169.672V171.358L1210.45 171.442C1211.02 171.454 1211.58 171.51 1212.14 171.611C1213.39 171.747 1214.58 172.2 1215.61 172.926C1230.19 187.879 1238.09 200.203 1240.31 211.532H1131.98C1132.23 202.816 1133.51 176.854 1139.92 170.464ZM1210.6 178.371C1210.6 178.489 1220.92 192.431 1221.38 193.291C1221.83 194.151 1221.95 194.842 1227.04 194.977H1227.13C1227.7 194.977 1227.9 194.791 1228 194.656C1228.93 193.392 1226.06 188.79 1220.13 182.029C1215.22 176.432 1212.22 175.286 1210.55 175.286C1209.88 175.274 1209.22 175.515 1208.71 175.96C1207.85 176.685 1210.48 177.848 1210.6 178.371Z" fill="white"/>
<path d="M1122.91 218.528H1125.35C1127.49 218.528 1129.23 220.264 1129.23 222.405V301.775C1129.23 303.917 1127.49 305.653 1125.35 305.653H1122.91C1120.76 305.653 1119.03 303.917 1119.03 301.775V222.405C1119.03 220.264 1120.76 218.528 1122.91 218.528Z" fill="white"/>
<path d="M1122.92 167.902H1122.67V158.04H1122.92C1122.92 158.04 1191.85 167.902 1189.71 167.902H1122.92Z" fill="white"/>
<path d="M1186.3 320.826C1192.45 320.822 1198.47 322.643 1203.58 326.057C1208.7 329.471 1212.69 334.324 1215.04 340.005C1217.4 345.685 1218.02 351.936 1216.82 357.967C1215.62 363.999 1212.66 369.54 1208.31 373.889C1203.96 378.238 1198.42 381.201 1192.39 382.401C1186.36 383.602 1180.11 382.988 1174.43 380.635C1168.74 378.283 1163.89 374.298 1160.47 369.186C1157.05 364.073 1155.23 358.062 1155.23 351.913C1155.23 343.671 1158.5 335.766 1164.33 329.937C1170.16 324.107 1178.06 320.83 1186.3 320.826V320.826ZM1186.3 369.867C1189.86 369.871 1193.34 368.819 1196.3 366.846C1199.25 364.872 1201.56 362.066 1202.92 358.781C1204.29 355.497 1204.64 351.882 1203.95 348.394C1203.26 344.906 1201.55 341.703 1199.03 339.188C1196.52 336.674 1193.31 334.962 1189.82 334.269C1186.34 333.576 1182.72 333.934 1179.43 335.296C1176.15 336.658 1173.34 338.964 1171.37 341.922C1169.4 344.88 1168.34 348.357 1168.35 351.913C1168.35 356.675 1170.24 361.241 1173.61 364.61C1176.98 367.978 1181.54 369.875 1186.3 369.884V369.867Z" fill="white"/>
<path d="M1186.3 334.936C1189.67 334.936 1192.95 335.933 1195.75 337.8C1198.54 339.667 1200.72 342.321 1202.01 345.426C1203.29 348.532 1203.63 351.948 1202.97 355.245C1202.32 358.541 1200.7 361.569 1198.32 363.946C1195.95 366.322 1192.92 367.941 1189.62 368.596C1186.32 369.252 1182.91 368.916 1179.8 367.629C1176.69 366.343 1174.04 364.165 1172.17 361.37C1170.3 358.576 1169.31 355.29 1169.31 351.929C1169.31 347.424 1171.1 343.104 1174.29 339.918C1177.48 336.732 1181.8 334.94 1186.3 334.936V334.936ZM1186.3 366.495C1189.19 366.495 1192 365.641 1194.4 364.041C1196.79 362.44 1198.66 360.165 1199.76 357.504C1200.87 354.842 1201.15 351.913 1200.59 349.088C1200.03 346.262 1198.64 343.667 1196.61 341.63C1194.57 339.593 1191.97 338.206 1189.15 337.644C1186.32 337.082 1183.39 337.37 1180.73 338.472C1178.07 339.575 1175.79 341.442 1174.19 343.837C1172.59 346.232 1171.74 349.049 1171.74 351.929C1171.74 355.791 1173.28 359.493 1176.01 362.224C1178.74 364.955 1182.44 366.491 1186.3 366.495V366.495Z" fill="white"/>
<path d="M1186.3 342.219C1188.23 342.219 1190.1 342.789 1191.7 343.856C1193.3 344.923 1194.54 346.439 1195.28 348.214C1196.01 349.988 1196.2 351.941 1195.83 353.824C1195.45 355.708 1194.53 357.438 1193.17 358.796C1191.81 360.154 1190.08 361.079 1188.2 361.454C1186.32 361.828 1184.36 361.636 1182.59 360.901C1180.81 360.166 1179.3 358.922 1178.23 357.325C1177.16 355.728 1176.59 353.85 1176.59 351.93C1176.59 350.655 1176.84 349.392 1177.33 348.214C1177.82 347.036 1178.53 345.965 1179.44 345.063C1180.34 344.162 1181.41 343.446 1182.59 342.958C1183.77 342.47 1185.03 342.219 1186.3 342.219V342.219Z" fill="white"/>
<path d="M1186.3 341.056C1186.05 341.056 1185.79 340.979 1185.58 340.836C1185.37 340.692 1185.2 340.489 1185.1 340.25C1185.01 340.012 1184.98 339.75 1185.03 339.498C1185.08 339.246 1185.21 339.015 1185.39 338.834C1185.58 338.653 1185.81 338.531 1186.06 338.482C1186.31 338.434 1186.58 338.462 1186.81 338.563C1187.05 338.664 1187.25 338.833 1187.39 339.049C1187.53 339.264 1187.61 339.517 1187.6 339.774C1187.6 340.116 1187.46 340.442 1187.22 340.681C1186.97 340.921 1186.65 341.056 1186.3 341.056V341.056Z" fill="white"/>
<path d="M1186.3 362.77C1186.65 362.77 1186.98 362.906 1187.22 363.15C1187.47 363.393 1187.6 363.723 1187.6 364.068C1187.6 364.412 1187.47 364.742 1187.22 364.986C1186.98 365.229 1186.65 365.366 1186.3 365.366C1185.96 365.366 1185.63 365.229 1185.39 364.986C1185.14 364.742 1185.01 364.412 1185.01 364.068C1185.01 363.723 1185.14 363.393 1185.39 363.15C1185.63 362.906 1185.96 362.77 1186.3 362.77V362.77Z" fill="white"/>
<path d="M1193.98 344.259C1193.79 344.077 1193.67 343.846 1193.62 343.594C1193.57 343.343 1193.6 343.082 1193.7 342.845C1193.79 342.608 1193.96 342.405 1194.17 342.263C1194.39 342.12 1194.64 342.044 1194.9 342.044C1195.15 342.044 1195.4 342.12 1195.62 342.263C1195.83 342.405 1196 342.608 1196.09 342.845C1196.19 343.082 1196.22 343.343 1196.17 343.594C1196.12 343.846 1196 344.077 1195.81 344.259C1195.69 344.38 1195.55 344.476 1195.39 344.541C1195.23 344.606 1195.07 344.64 1194.9 344.64C1194.72 344.64 1194.56 344.606 1194.4 344.541C1194.24 344.476 1194.1 344.38 1193.98 344.259Z" fill="white"/>
<path d="M1178.63 359.6C1178.84 359.848 1178.95 360.166 1178.94 360.491C1178.93 360.816 1178.79 361.124 1178.57 361.355C1178.34 361.586 1178.03 361.723 1177.7 361.738C1177.38 361.754 1177.06 361.646 1176.81 361.438C1176.69 361.317 1176.59 361.174 1176.53 361.016C1176.46 360.859 1176.43 360.69 1176.43 360.519C1176.43 360.349 1176.46 360.18 1176.53 360.022C1176.59 359.864 1176.69 359.721 1176.81 359.6C1176.93 359.48 1177.07 359.385 1177.23 359.319C1177.38 359.254 1177.55 359.221 1177.72 359.221C1177.89 359.221 1178.06 359.254 1178.22 359.319C1178.37 359.385 1178.51 359.48 1178.63 359.6Z" fill="white"/>
<path d="M1198.44 350.631C1198.7 350.631 1198.95 350.708 1199.17 350.85C1199.38 350.993 1199.55 351.196 1199.64 351.433C1199.74 351.67 1199.77 351.931 1199.72 352.183C1199.67 352.435 1199.54 352.666 1199.36 352.847C1199.18 353.029 1198.95 353.153 1198.7 353.203C1198.45 353.253 1198.18 353.227 1197.95 353.129C1197.71 353.031 1197.51 352.864 1197.36 352.651C1197.22 352.437 1197.15 352.186 1197.15 351.93C1197.14 351.759 1197.18 351.589 1197.24 351.43C1197.3 351.272 1197.4 351.128 1197.52 351.007C1197.64 350.886 1197.79 350.79 1197.94 350.726C1198.1 350.661 1198.27 350.629 1198.44 350.631V350.631Z" fill="white"/>
<path d="M1174.13 353.211C1173.87 353.211 1173.62 353.134 1173.41 352.991C1173.19 352.848 1173.03 352.644 1172.93 352.406C1172.83 352.167 1172.81 351.906 1172.86 351.653C1172.91 351.401 1173.04 351.17 1173.22 350.989C1173.4 350.808 1173.63 350.686 1173.89 350.638C1174.14 350.589 1174.4 350.618 1174.64 350.718C1174.88 350.819 1175.08 350.988 1175.22 351.204C1175.36 351.42 1175.43 351.672 1175.43 351.93C1175.42 352.271 1175.29 352.597 1175.04 352.837C1174.8 353.077 1174.47 353.211 1174.13 353.211V353.211Z" fill="white"/>
<path d="M1194.9 361.792C1194.19 361.792 1193.61 361.211 1193.61 360.494C1193.61 359.777 1194.19 359.196 1194.9 359.196C1195.62 359.196 1196.2 359.777 1196.2 360.494C1196.2 361.211 1195.62 361.792 1194.9 361.792Z" fill="white"/>
<path d="M1178.63 342.422C1178.77 342.537 1178.88 342.68 1178.96 342.841C1179.04 343.002 1179.09 343.177 1179.1 343.357C1179.11 343.536 1179.08 343.716 1179.01 343.884C1178.95 344.051 1178.85 344.204 1178.72 344.332C1178.6 344.459 1178.44 344.559 1178.28 344.625C1178.11 344.691 1177.93 344.722 1177.75 344.715C1177.57 344.708 1177.39 344.664 1177.23 344.586C1177.07 344.507 1176.93 344.396 1176.81 344.259C1176.69 344.139 1176.59 343.995 1176.53 343.838C1176.46 343.68 1176.43 343.511 1176.43 343.34C1176.43 343.17 1176.46 343.001 1176.53 342.843C1176.59 342.685 1176.69 342.542 1176.81 342.422C1176.93 342.301 1177.07 342.206 1177.23 342.141C1177.38 342.076 1177.55 342.042 1177.72 342.042C1177.89 342.042 1178.06 342.076 1178.22 342.141C1178.37 342.206 1178.51 342.301 1178.63 342.422Z" fill="white"/>
<path d="M1049.46 320.826C1055.61 320.822 1061.62 322.643 1066.74 326.057C1071.85 329.471 1075.84 334.324 1078.2 340.005C1080.55 345.685 1081.17 351.936 1079.97 357.967C1078.77 363.999 1075.81 369.54 1071.47 373.889C1067.12 378.238 1061.58 381.201 1055.55 382.401C1049.51 383.602 1043.26 382.988 1037.58 380.635C1031.9 378.283 1027.04 374.298 1023.62 369.186C1020.21 364.073 1018.38 358.062 1018.38 351.913C1018.38 343.671 1021.66 335.766 1027.48 329.937C1033.31 324.107 1041.21 320.83 1049.46 320.826V320.826ZM1049.46 369.867C1053.01 369.867 1056.49 368.813 1059.45 366.837C1062.4 364.862 1064.71 362.054 1066.07 358.769C1067.43 355.485 1067.78 351.87 1067.09 348.384C1066.39 344.897 1064.68 341.695 1062.16 339.182C1059.65 336.67 1056.44 334.96 1052.95 334.268C1049.47 333.577 1045.85 333.935 1042.57 335.298C1039.28 336.66 1036.48 338.966 1034.5 341.924C1032.53 344.882 1031.48 348.358 1031.48 351.913C1031.49 356.678 1033.38 361.246 1036.75 364.615C1040.12 367.985 1044.69 369.88 1049.46 369.884V369.867Z" fill="white"/>
<path d="M1049.46 334.936C1052.82 334.929 1056.11 335.92 1058.91 337.784C1061.71 339.647 1063.89 342.298 1065.18 345.403C1066.48 348.508 1066.82 351.925 1066.17 355.224C1065.51 358.523 1063.9 361.554 1061.52 363.934C1059.15 366.314 1056.12 367.935 1052.82 368.594C1049.52 369.252 1046.1 368.918 1042.99 367.633C1039.89 366.347 1037.23 364.169 1035.36 361.374C1033.49 358.579 1032.5 355.292 1032.5 351.93C1032.5 347.43 1034.29 343.115 1037.47 339.93C1040.65 336.745 1044.96 334.949 1049.46 334.936V334.936ZM1049.46 366.495C1052.34 366.495 1055.16 365.641 1057.55 364.041C1059.95 362.44 1061.81 360.165 1062.92 357.504C1064.02 354.842 1064.31 351.913 1063.75 349.088C1063.18 346.262 1061.8 343.667 1059.76 341.63C1057.72 339.593 1055.13 338.206 1052.3 337.644C1049.47 337.082 1046.54 337.37 1043.88 338.472C1041.22 339.575 1038.95 341.442 1037.34 343.837C1035.74 346.233 1034.89 349.049 1034.89 351.93C1034.9 355.79 1036.44 359.49 1039.17 362.219C1041.9 364.949 1045.6 366.486 1049.46 366.495V366.495Z" fill="white"/>
<path d="M1049.46 342.219C1051.38 342.219 1053.26 342.789 1054.85 343.856C1056.45 344.923 1057.7 346.439 1058.43 348.214C1059.17 349.988 1059.36 351.941 1058.98 353.824C1058.61 355.708 1057.68 357.438 1056.33 358.796C1054.97 360.154 1053.24 361.079 1051.35 361.454C1049.47 361.828 1047.52 361.636 1045.74 360.901C1043.97 360.166 1042.45 358.922 1041.38 357.325C1040.32 355.728 1039.75 353.85 1039.75 351.93C1039.75 349.356 1040.77 346.888 1042.6 345.068C1044.42 343.248 1046.88 342.224 1049.46 342.219V342.219Z" fill="white"/>
<path d="M1049.46 341.056C1049.28 341.077 1049.09 341.059 1048.92 341.004C1048.74 340.948 1048.58 340.857 1048.45 340.735C1048.31 340.613 1048.2 340.464 1048.13 340.297C1048.05 340.13 1048.01 339.949 1048.01 339.766C1048.01 339.583 1048.05 339.403 1048.13 339.236C1048.2 339.069 1048.31 338.919 1048.45 338.798C1048.58 338.676 1048.74 338.584 1048.92 338.529C1049.09 338.474 1049.28 338.456 1049.46 338.477C1049.64 338.456 1049.82 338.474 1050 338.529C1050.17 338.584 1050.33 338.676 1050.47 338.798C1050.61 338.919 1050.72 339.069 1050.79 339.236C1050.87 339.403 1050.9 339.583 1050.9 339.766C1050.9 339.949 1050.87 340.13 1050.79 340.297C1050.72 340.464 1050.61 340.613 1050.47 340.735C1050.33 340.857 1050.17 340.948 1050 341.004C1049.82 341.059 1049.64 341.077 1049.46 341.056V341.056Z" fill="white"/>
<path d="M1049.46 362.77C1049.71 362.77 1049.97 362.846 1050.18 362.988C1050.39 363.131 1050.56 363.334 1050.66 363.571C1050.76 363.808 1050.78 364.069 1050.73 364.321C1050.68 364.573 1050.56 364.804 1050.38 364.986C1050.19 365.167 1049.96 365.291 1049.71 365.341C1049.46 365.391 1049.2 365.365 1048.96 365.267C1048.72 365.169 1048.52 365.002 1048.38 364.789C1048.24 364.575 1048.16 364.324 1048.16 364.068C1048.16 363.723 1048.3 363.393 1048.54 363.15C1048.78 362.906 1049.11 362.77 1049.46 362.77Z" fill="white"/>
<path d="M1057.13 344.259C1057.01 344.139 1056.91 343.996 1056.85 343.838C1056.78 343.68 1056.75 343.511 1056.75 343.34C1056.75 343.17 1056.78 343.001 1056.85 342.843C1056.91 342.685 1057.01 342.542 1057.13 342.422C1057.25 342.301 1057.39 342.206 1057.55 342.141C1057.7 342.076 1057.87 342.042 1058.04 342.042C1058.21 342.042 1058.38 342.076 1058.53 342.141C1058.69 342.206 1058.83 342.301 1058.95 342.422C1059.07 342.542 1059.17 342.685 1059.23 342.843C1059.3 343.001 1059.33 343.17 1059.33 343.34C1059.33 343.511 1059.3 343.68 1059.23 343.838C1059.17 343.996 1059.07 344.139 1058.95 344.259C1058.83 344.38 1058.69 344.475 1058.53 344.54C1058.38 344.605 1058.21 344.639 1058.04 344.639C1057.87 344.639 1057.7 344.605 1057.55 344.54C1057.39 344.475 1057.25 344.38 1057.13 344.259Z" fill="white"/>
<path d="M1040.88 361.809C1040.16 361.809 1039.58 361.227 1039.58 360.511C1039.58 359.794 1040.16 359.212 1040.88 359.212C1041.59 359.212 1042.17 359.794 1042.17 360.511C1042.17 361.227 1041.59 361.809 1040.88 361.809Z" fill="white"/>
<path d="M1061.6 350.631C1061.78 350.611 1061.96 350.628 1062.14 350.684C1062.31 350.739 1062.47 350.831 1062.61 350.952C1062.75 351.074 1062.86 351.223 1062.93 351.39C1063.01 351.557 1063.04 351.738 1063.04 351.921C1063.04 352.104 1063.01 352.285 1062.93 352.452C1062.86 352.619 1062.75 352.768 1062.61 352.89C1062.47 353.012 1062.31 353.103 1062.14 353.159C1061.96 353.214 1061.78 353.232 1061.6 353.211C1061.42 353.232 1061.23 353.214 1061.06 353.159C1060.88 353.103 1060.72 353.012 1060.59 352.89C1060.45 352.768 1060.34 352.619 1060.27 352.452C1060.19 352.285 1060.15 352.104 1060.15 351.921C1060.15 351.738 1060.19 351.557 1060.27 351.39C1060.34 351.223 1060.45 351.074 1060.59 350.952C1060.72 350.831 1060.88 350.739 1061.06 350.684C1061.23 350.628 1061.42 350.611 1061.6 350.631Z" fill="white"/>
<path d="M1038.62 351.929C1038.62 352.186 1038.54 352.437 1038.4 352.651C1038.25 352.864 1038.05 353.03 1037.81 353.129C1037.58 353.227 1037.32 353.253 1037.06 353.203C1036.81 353.153 1036.58 353.029 1036.4 352.847C1036.22 352.666 1036.09 352.435 1036.04 352.183C1035.99 351.931 1036.02 351.67 1036.12 351.433C1036.22 351.196 1036.38 350.993 1036.6 350.85C1036.81 350.707 1037.06 350.631 1037.32 350.631C1037.66 350.631 1037.99 350.768 1038.24 351.012C1038.48 351.255 1038.62 351.585 1038.62 351.929Z" fill="white"/>
<path d="M1058.04 361.792C1057.32 361.792 1056.74 361.211 1056.74 360.494C1056.74 359.777 1057.32 359.196 1058.04 359.196C1058.76 359.196 1059.34 359.777 1059.34 360.494C1059.34 361.211 1058.76 361.792 1058.04 361.792Z" fill="white"/>
<path d="M1039.95 344.259C1039.77 344.077 1039.64 343.846 1039.59 343.594C1039.54 343.343 1039.57 343.082 1039.67 342.845C1039.77 342.608 1039.93 342.405 1040.15 342.263C1040.36 342.12 1040.61 342.044 1040.87 342.044C1041.12 342.044 1041.37 342.12 1041.59 342.263C1041.8 342.405 1041.97 342.608 1042.07 342.845C1042.16 343.082 1042.19 343.343 1042.14 343.594C1042.09 343.846 1041.97 344.077 1041.79 344.259C1041.67 344.38 1041.52 344.476 1041.36 344.541C1041.21 344.606 1041.04 344.64 1040.87 344.64C1040.7 344.64 1040.53 344.606 1040.37 344.541C1040.21 344.476 1040.07 344.38 1039.95 344.259V344.259Z" fill="white"/>
<path d="M722.905 320.826C729.057 320.809 735.076 322.618 740.2 326.023C745.323 329.428 749.322 334.276 751.688 339.954C754.055 345.632 754.684 351.884 753.495 357.92C752.306 363.955 749.353 369.502 745.01 373.859C740.667 378.216 735.128 381.186 729.096 382.394C723.064 383.603 716.808 382.994 711.122 380.647C705.435 378.299 700.573 374.317 697.151 369.205C693.728 364.093 691.9 358.081 691.897 351.93C691.892 343.697 695.154 335.798 700.967 329.967C706.781 324.136 714.67 320.848 722.905 320.826V320.826ZM722.905 369.867C726.46 369.867 729.936 368.813 732.892 366.837C735.848 364.862 738.152 362.054 739.512 358.769C740.872 355.485 741.227 351.87 740.532 348.384C739.837 344.897 738.124 341.695 735.608 339.183C733.093 336.67 729.888 334.96 726.401 334.268C722.913 333.577 719.298 333.935 716.014 335.298C712.73 336.661 709.924 338.967 707.951 341.924C705.978 344.882 704.927 348.358 704.93 351.913C704.935 356.678 706.83 361.246 710.2 364.616C713.57 367.985 718.139 369.88 722.905 369.884V369.867Z" fill="white"/>
<path d="M722.905 334.936C726.266 334.936 729.552 335.933 732.347 337.8C735.142 339.667 737.321 342.321 738.607 345.426C739.893 348.532 740.23 351.948 739.574 355.245C738.918 358.541 737.3 361.569 734.923 363.946C732.546 366.322 729.517 367.941 726.22 368.596C722.923 369.252 719.506 368.916 716.4 367.629C713.295 366.343 710.64 364.165 708.773 361.37C706.905 358.576 705.908 355.29 705.908 351.929C705.913 347.424 707.705 343.104 710.891 339.918C714.078 336.732 718.398 334.94 722.905 334.936V334.936ZM722.905 366.495C725.786 366.495 728.602 365.641 730.998 364.041C733.394 362.44 735.261 360.165 736.364 357.504C737.466 354.842 737.755 351.913 737.193 349.088C736.631 346.262 735.243 343.667 733.206 341.63C731.168 339.593 728.573 338.206 725.747 337.644C722.921 337.082 719.992 337.37 717.33 338.472C714.668 339.575 712.392 341.442 710.792 343.837C709.191 346.232 708.336 349.049 708.336 351.929C708.345 355.79 709.883 359.489 712.613 362.219C715.343 364.949 719.044 366.486 722.905 366.495V366.495Z" fill="white"/>
<path d="M722.905 342.219C724.825 342.219 726.703 342.789 728.3 343.856C729.897 344.923 731.142 346.439 731.877 348.214C732.612 349.988 732.805 351.941 732.43 353.824C732.055 355.708 731.13 357.438 729.772 358.796C728.414 360.154 726.683 361.079 724.799 361.454C722.915 361.828 720.963 361.636 719.188 360.901C717.413 360.166 715.896 358.922 714.829 357.325C713.762 355.728 713.192 353.85 713.192 351.93C713.192 349.354 714.216 346.884 716.037 345.063C717.858 343.242 720.329 342.219 722.905 342.219V342.219Z" fill="white"/>
<path d="M722.905 341.056C722.723 341.077 722.539 341.059 722.364 341.004C722.19 340.948 722.029 340.857 721.893 340.735C721.756 340.613 721.647 340.464 721.572 340.297C721.497 340.13 721.458 339.949 721.458 339.766C721.458 339.583 721.497 339.403 721.572 339.236C721.647 339.069 721.756 338.919 721.893 338.798C722.029 338.676 722.19 338.584 722.364 338.529C722.539 338.474 722.723 338.456 722.905 338.477C723.086 338.456 723.27 338.474 723.445 338.529C723.619 338.584 723.78 338.676 723.916 338.798C724.053 338.919 724.162 339.069 724.237 339.236C724.312 339.403 724.351 339.583 724.351 339.766C724.351 339.949 724.312 340.13 724.237 340.297C724.162 340.464 724.053 340.613 723.916 340.735C723.78 340.857 723.619 340.948 723.445 341.004C723.27 341.059 723.086 341.077 722.905 341.056V341.056Z" fill="white"/>
<path d="M722.905 362.77C723.161 362.77 723.412 362.846 723.626 362.988C723.839 363.131 724.006 363.334 724.104 363.571C724.202 363.808 724.228 364.069 724.178 364.321C724.128 364.573 724.004 364.804 723.823 364.986C723.641 365.167 723.41 365.291 723.158 365.341C722.906 365.391 722.645 365.365 722.408 365.267C722.17 365.169 721.968 365.002 721.825 364.789C721.682 364.575 721.606 364.324 721.606 364.068C721.606 363.723 721.743 363.393 721.986 363.15C722.23 362.906 722.56 362.77 722.905 362.77Z" fill="white"/>
<path d="M730.576 344.259C730.395 344.077 730.272 343.846 730.222 343.594C730.172 343.343 730.198 343.082 730.296 342.845C730.394 342.608 730.561 342.405 730.774 342.263C730.988 342.12 731.239 342.044 731.495 342.044C731.752 342.044 732.003 342.12 732.216 342.263C732.43 342.405 732.596 342.608 732.695 342.845C732.793 343.082 732.819 343.343 732.769 343.594C732.719 343.846 732.596 344.077 732.414 344.259C732.294 344.38 732.15 344.476 731.993 344.541C731.835 344.606 731.666 344.64 731.495 344.64C731.325 344.64 731.156 344.606 730.998 344.541C730.84 344.476 730.697 344.38 730.576 344.259V344.259Z" fill="white"/>
<path d="M715.233 359.6C715.353 359.721 715.449 359.864 715.515 360.022C715.58 360.18 715.614 360.349 715.614 360.519C715.614 360.69 715.58 360.859 715.515 361.016C715.449 361.174 715.353 361.317 715.233 361.438C715.113 361.558 714.972 361.654 714.815 361.719C714.659 361.784 714.491 361.818 714.322 361.818C714.153 361.818 713.985 361.784 713.829 361.719C713.673 361.654 713.531 361.558 713.412 361.438C713.291 361.317 713.195 361.174 713.13 361.016C713.064 360.859 713.03 360.69 713.03 360.519C713.03 360.349 713.064 360.18 713.13 360.022C713.195 359.864 713.291 359.721 713.412 359.6C713.531 359.48 713.673 359.385 713.829 359.319C713.985 359.254 714.153 359.221 714.322 359.221C714.491 359.221 714.659 359.254 714.815 359.319C714.972 359.385 715.113 359.48 715.233 359.6Z" fill="white"/>
<path d="M735.045 350.631C735.301 350.631 735.552 350.708 735.766 350.85C735.98 350.993 736.146 351.196 736.244 351.433C736.342 351.67 736.368 351.931 736.318 352.183C736.268 352.435 736.144 352.666 735.963 352.847C735.781 353.029 735.55 353.153 735.298 353.203C735.046 353.253 734.785 353.227 734.548 353.129C734.311 353.031 734.108 352.864 733.965 352.651C733.823 352.437 733.746 352.186 733.746 351.93C733.744 351.759 733.776 351.589 733.841 351.43C733.905 351.272 734.001 351.128 734.122 351.007C734.243 350.886 734.387 350.79 734.545 350.726C734.704 350.661 734.874 350.629 735.045 350.631Z" fill="white"/>
<path d="M710.764 353.211C710.507 353.211 710.255 353.134 710.041 352.991C709.827 352.848 709.661 352.644 709.563 352.406C709.466 352.167 709.441 351.906 709.492 351.653C709.544 351.401 709.669 351.17 709.852 350.989C710.036 350.808 710.269 350.686 710.522 350.638C710.774 350.589 711.036 350.618 711.273 350.718C711.51 350.819 711.711 350.988 711.852 351.204C711.993 351.42 712.066 351.672 712.063 351.93C712.058 352.271 711.919 352.597 711.676 352.837C711.433 353.077 711.106 353.211 710.764 353.211Z" fill="white"/>
<path d="M731.487 361.792C730.77 361.792 730.189 361.211 730.189 360.494C730.189 359.777 730.77 359.196 731.487 359.196C732.204 359.196 732.785 359.777 732.785 360.494C732.785 361.211 732.204 361.792 731.487 361.792Z" fill="white"/>
<path d="M715.233 342.422C715.353 342.542 715.449 342.685 715.515 342.843C715.58 343.001 715.614 343.17 715.614 343.34C715.614 343.511 715.58 343.68 715.515 343.838C715.449 343.996 715.353 344.139 715.233 344.259C715.113 344.38 714.972 344.475 714.815 344.54C714.659 344.605 714.491 344.639 714.322 344.639C714.153 344.639 713.985 344.605 713.829 344.54C713.673 344.475 713.531 344.38 713.412 344.259C713.291 344.139 713.195 343.996 713.13 343.838C713.064 343.68 713.03 343.511 713.03 343.34C713.03 343.17 713.064 343.001 713.13 342.843C713.195 342.685 713.291 342.542 713.412 342.422C713.531 342.301 713.673 342.206 713.829 342.141C713.985 342.076 714.153 342.042 714.322 342.042C714.491 342.042 714.659 342.076 714.815 342.141C714.972 342.206 715.113 342.301 715.233 342.422Z" fill="white"/>
<path d="M806.908 320.826C813.058 320.822 819.071 322.643 824.186 326.057C829.302 329.471 833.289 334.324 835.645 340.005C838.001 345.685 838.619 351.936 837.421 357.967C836.224 363.999 833.264 369.54 828.916 373.889C824.568 378.238 819.028 381.201 812.997 382.401C806.965 383.602 800.712 382.988 795.03 380.635C789.348 378.283 784.491 374.298 781.073 369.186C777.656 364.073 775.832 358.062 775.832 351.913C775.837 343.672 779.112 335.77 784.938 329.942C790.764 324.113 798.666 320.835 806.908 320.826V320.826ZM806.908 369.867C810.464 369.871 813.942 368.819 816.9 366.846C819.858 364.872 822.165 362.066 823.527 358.781C824.89 355.497 825.247 351.882 824.554 348.394C823.861 344.906 822.149 341.703 819.634 339.188C817.119 336.674 813.915 334.962 810.427 334.269C806.939 333.576 803.323 333.934 800.038 335.296C796.753 336.658 793.946 338.964 791.973 341.922C789.999 344.88 788.947 348.357 788.95 351.913C788.955 356.675 790.848 361.241 794.214 364.61C797.58 367.978 802.145 369.875 806.908 369.884V369.867Z" fill="white"/>
<path d="M806.908 334.936C810.269 334.936 813.555 335.933 816.35 337.8C819.145 339.667 821.324 342.321 822.61 345.426C823.896 348.532 824.233 351.948 823.577 355.245C822.921 358.541 821.303 361.569 818.926 363.946C816.549 366.322 813.52 367.941 810.223 368.596C806.926 369.252 803.509 368.916 800.403 367.629C797.298 366.343 794.643 364.165 792.776 361.37C790.908 358.576 789.911 355.29 789.911 351.929C789.916 347.424 791.708 343.104 794.894 339.918C798.081 336.732 802.401 334.94 806.908 334.936V334.936ZM806.908 366.495C809.789 366.495 812.606 365.641 815.001 364.041C817.397 362.44 819.264 360.165 820.367 357.504C821.469 354.842 821.758 351.913 821.196 349.088C820.634 346.262 819.246 343.667 817.209 341.63C815.171 339.593 812.576 338.206 809.75 337.644C806.924 337.082 803.995 337.37 801.333 338.472C798.671 339.575 796.395 341.442 794.795 343.837C793.194 346.232 792.339 349.049 792.339 351.929C792.348 355.79 793.886 359.489 796.616 362.219C799.346 364.949 803.047 366.486 806.908 366.495V366.495Z" fill="white"/>
<path d="M806.908 342.219C808.829 342.216 810.709 342.783 812.308 343.848C813.907 344.913 815.155 346.428 815.892 348.202C816.63 349.976 816.825 351.929 816.452 353.814C816.079 355.699 815.156 357.43 813.798 358.79C812.44 360.15 810.71 361.076 808.825 361.452C806.941 361.828 804.987 361.637 803.212 360.903C801.436 360.168 799.918 358.924 798.85 357.326C797.782 355.729 797.212 353.851 797.212 351.93C797.212 349.357 798.233 346.89 800.051 345.069C801.869 343.249 804.335 342.224 806.908 342.219Z" fill="white"/>
<path d="M806.908 341.056C806.65 341.056 806.398 340.979 806.185 340.836C805.971 340.692 805.804 340.489 805.707 340.25C805.609 340.012 805.584 339.75 805.636 339.498C805.687 339.246 805.812 339.015 805.996 338.834C806.179 338.653 806.412 338.531 806.665 338.482C806.918 338.434 807.179 338.462 807.416 338.563C807.653 338.664 807.855 338.833 807.995 339.049C808.136 339.264 808.209 339.517 808.206 339.774C808.206 339.944 808.172 340.112 808.107 340.269C808.041 340.425 807.945 340.567 807.825 340.686C807.704 340.806 807.561 340.9 807.403 340.963C807.246 341.026 807.077 341.058 806.908 341.056V341.056Z" fill="white"/>
<path d="M806.908 362.77C807.165 362.766 807.418 362.84 807.633 362.98C807.849 363.121 808.018 363.322 808.119 363.559C808.22 363.796 808.248 364.058 808.2 364.311C808.152 364.563 808.029 364.796 807.848 364.979C807.668 365.163 807.436 365.288 807.184 365.34C806.932 365.391 806.67 365.366 806.432 365.269C806.193 365.171 805.99 365.004 805.846 364.791C805.703 364.577 805.626 364.325 805.626 364.068C805.624 363.898 805.655 363.73 805.719 363.572C805.782 363.415 805.876 363.272 805.995 363.151C806.115 363.03 806.257 362.934 806.413 362.869C806.57 362.803 806.738 362.77 806.908 362.77V362.77Z" fill="white"/>
<path d="M814.579 344.259C814.398 344.077 814.275 343.846 814.225 343.594C814.175 343.343 814.201 343.082 814.299 342.845C814.397 342.608 814.564 342.405 814.777 342.263C814.991 342.12 815.242 342.044 815.498 342.044C815.755 342.044 816.006 342.12 816.219 342.263C816.433 342.405 816.599 342.608 816.698 342.845C816.796 343.082 816.822 343.343 816.772 343.594C816.722 343.846 816.599 344.077 816.417 344.259C816.297 344.38 816.154 344.476 815.996 344.541C815.838 344.606 815.669 344.64 815.498 344.64C815.328 344.64 815.159 344.606 815.001 344.541C814.843 344.476 814.7 344.38 814.579 344.259Z" fill="white"/>
<path d="M799.253 359.6C799.434 359.782 799.557 360.013 799.607 360.265C799.657 360.517 799.631 360.778 799.533 361.015C799.435 361.252 799.268 361.454 799.055 361.597C798.841 361.739 798.59 361.815 798.334 361.815C798.077 361.815 797.826 361.739 797.613 361.597C797.399 361.454 797.233 361.252 797.134 361.015C797.036 360.778 797.01 360.517 797.06 360.265C797.11 360.013 797.233 359.782 797.415 359.6C797.535 359.48 797.679 359.384 797.836 359.318C797.994 359.253 798.163 359.219 798.334 359.219C798.504 359.219 798.673 359.253 798.831 359.318C798.989 359.384 799.132 359.48 799.253 359.6V359.6Z" fill="white"/>
<path d="M819.065 350.631C819.322 350.631 819.572 350.708 819.786 350.85C820 350.993 820.166 351.196 820.264 351.433C820.362 351.67 820.388 351.931 820.338 352.183C820.288 352.435 820.164 352.666 819.983 352.847C819.801 353.029 819.57 353.153 819.318 353.203C819.066 353.253 818.805 353.227 818.568 353.129C818.331 353.031 818.128 352.864 817.985 352.651C817.842 352.437 817.766 352.186 817.766 351.93C817.764 351.759 817.796 351.589 817.861 351.43C817.925 351.272 818.021 351.128 818.142 351.007C818.263 350.886 818.407 350.79 818.565 350.726C818.724 350.661 818.894 350.629 819.065 350.631Z" fill="white"/>
<path d="M794.751 353.211C794.492 353.214 794.239 353.14 794.023 352.999C793.807 352.858 793.638 352.655 793.538 352.417C793.437 352.179 793.41 351.917 793.46 351.664C793.509 351.41 793.633 351.178 793.816 350.995C793.998 350.812 794.231 350.688 794.485 350.639C794.738 350.589 795.001 350.616 795.238 350.717C795.476 350.817 795.679 350.986 795.82 351.202C795.962 351.418 796.035 351.671 796.032 351.93C796.032 352.269 795.897 352.595 795.657 352.836C795.416 353.076 795.091 353.211 794.751 353.211V353.211Z" fill="white"/>
<path d="M815.507 361.792C814.79 361.792 814.209 361.211 814.209 360.494C814.209 359.777 814.79 359.196 815.507 359.196C816.224 359.196 816.805 359.777 816.805 360.494C816.805 361.211 816.224 361.792 815.507 361.792Z" fill="white"/>
<path d="M799.253 342.422C799.434 342.603 799.557 342.835 799.607 343.086C799.657 343.338 799.631 343.599 799.533 343.836C799.435 344.073 799.268 344.276 799.055 344.418C798.841 344.561 798.59 344.637 798.334 344.637C798.077 344.637 797.826 344.561 797.613 344.418C797.399 344.276 797.233 344.073 797.134 343.836C797.036 343.599 797.01 343.338 797.06 343.086C797.11 342.835 797.233 342.603 797.415 342.422C797.535 342.301 797.679 342.205 797.836 342.14C797.994 342.074 798.163 342.041 798.334 342.041C798.504 342.041 798.673 342.074 798.831 342.14C798.989 342.205 799.132 342.301 799.253 342.422V342.422Z" fill="white"/>
<path d="M658.275 310.997C658.722 310.997 659.151 311.175 659.467 311.491C659.784 311.807 659.961 312.236 659.961 312.683V329.12C659.961 329.567 659.784 329.996 659.467 330.312C659.151 330.628 658.722 330.806 658.275 330.806C657.828 330.806 657.399 330.628 657.083 330.312C656.767 329.996 656.589 329.567 656.589 329.12V312.683C656.589 312.236 656.767 311.807 657.083 311.491C657.399 311.175 657.828 310.997 658.275 310.997Z" fill="white"/>
</g>
<path d="M760.609 219.646L760.681 219.538C761.485 219.55 762.151 219.694 762.679 219.97C763.207 220.234 763.597 220.6 763.849 221.068C764.113 221.524 764.245 222.052 764.245 222.652C764.245 223.288 764.095 223.858 763.795 224.362C763.507 224.866 763.039 225.268 762.391 225.568C761.743 225.856 760.891 226 759.835 226H755.011V225.496L756.883 225.19L756.703 225.406V214.102L756.901 214.336L755.011 214.084V213.58L757.567 213.49H759.997C760.861 213.49 761.569 213.616 762.121 213.868C762.685 214.12 763.099 214.474 763.363 214.93C763.627 215.374 763.759 215.908 763.759 216.532C763.759 217.336 763.519 218.014 763.039 218.566C762.559 219.106 761.749 219.466 760.609 219.646ZM759.799 214.174H757.387L757.585 213.994V219.448L757.387 219.268H759.331C760.147 219.268 760.813 219.16 761.329 218.944C761.857 218.716 762.241 218.41 762.481 218.026C762.733 217.63 762.859 217.168 762.859 216.64C762.859 216.124 762.745 215.686 762.517 215.326C762.301 214.954 761.965 214.672 761.509 214.48C761.065 214.276 760.495 214.174 759.799 214.174ZM759.781 225.316C760.621 225.316 761.299 225.202 761.815 224.974C762.343 224.746 762.727 224.434 762.967 224.038C763.207 223.63 763.327 223.162 763.327 222.634C763.327 222.106 763.213 221.644 762.985 221.248C762.769 220.84 762.433 220.522 761.977 220.294C761.533 220.066 760.969 219.952 760.285 219.952H757.387L757.585 219.736V225.496L757.387 225.316H759.781ZM772.89 225.442L772.71 225.208L774.42 225.46V225.964L772.224 226.054L772.098 224.326L772.188 224.38C771.648 224.944 771.06 225.376 770.424 225.676C769.788 225.976 769.176 226.126 768.588 226.126C767.892 226.126 767.316 225.91 766.86 225.478C766.416 225.046 766.194 224.392 766.194 223.516C766.194 222.808 766.338 222.268 766.626 221.896C766.926 221.524 767.328 221.272 767.832 221.14C768.336 221.008 768.906 220.942 769.542 220.942H772.17L772.026 221.086V219.106C772.026 218.398 771.828 217.888 771.432 217.576C771.036 217.264 770.502 217.108 769.83 217.108C769.47 217.108 769.086 217.15 768.678 217.234C768.27 217.318 767.838 217.438 767.382 217.594L767.562 217.378L767.418 219.088H766.788L766.644 217.09C767.268 216.874 767.862 216.712 768.426 216.604C768.99 216.484 769.518 216.424 770.01 216.424C770.898 216.424 771.6 216.622 772.116 217.018C772.632 217.414 772.89 218.062 772.89 218.962V225.442ZM767.076 223.426C767.076 224.11 767.238 224.62 767.562 224.956C767.898 225.28 768.324 225.442 768.84 225.442C769.32 225.442 769.848 225.298 770.424 225.01C771.012 224.722 771.576 224.326 772.116 223.822L772.026 224.11V221.41L772.17 221.554H769.668C768.732 221.554 768.066 221.698 767.67 221.986C767.274 222.274 767.076 222.754 767.076 223.426ZM775.554 226V225.496L777.282 225.172L777.084 225.478V217.09L777.318 217.378L775.554 217.09V216.604L779.424 216.496V216.982L777.714 217.342L777.948 217.072V225.568L777.678 225.298H782.34L782.142 225.568V217.09L782.322 217.342L780.666 217.09V216.604L784.482 216.496V216.982L782.772 217.342L783.006 217.072V225.586L782.772 225.298H787.47L787.2 225.568V217.09L787.38 217.342L785.724 217.09V216.604L789.576 216.496V216.982L787.83 217.342L788.064 217.072V225.478L787.848 225.172L789.576 225.496V226H775.554ZM791.058 226V225.496L792.786 225.172L792.588 225.406V217.144L792.822 217.378L791.058 217.09V216.604L794.928 216.496V216.982L793.182 217.342L793.416 217.126V224.11H793.236L799.158 217.54L798.996 217.864V217.144L799.176 217.342L797.484 217.09V216.604L801.354 216.496V216.982L799.608 217.342L799.824 217.126V225.406L799.626 225.172L801.354 225.496V226H797.484V225.496L799.194 225.19L798.996 225.406V218.314L799.194 218.332L793.254 224.938L793.416 224.65V225.406L793.29 225.226L794.928 225.496V226H791.058ZM809.765 226.126C809.237 226.126 808.703 226.06 808.163 225.928C807.623 225.796 807.125 225.592 806.669 225.316L806.903 224.704C807.335 224.956 807.797 225.148 808.289 225.28C808.793 225.412 809.285 225.478 809.765 225.478C810.281 225.478 810.761 225.406 811.205 225.262C811.649 225.106 812.009 224.872 812.285 224.56C812.561 224.236 812.699 223.828 812.699 223.336C812.699 222.964 812.603 222.628 812.411 222.328C812.219 222.028 811.901 221.794 811.457 221.626C811.013 221.446 810.407 221.356 809.639 221.356H808.469V220.744H809.675C810.647 220.744 811.355 220.57 811.799 220.222C812.255 219.874 812.483 219.412 812.483 218.836C812.483 218.2 812.243 217.744 811.763 217.468C811.295 217.192 810.701 217.054 809.981 217.054C809.609 217.054 809.219 217.09 808.811 217.162C808.403 217.222 807.989 217.306 807.569 217.414L807.839 217.126L807.605 218.944H806.975L806.921 216.946C807.473 216.778 808.019 216.652 808.559 216.568C809.111 216.472 809.639 216.424 810.143 216.424C810.755 216.424 811.301 216.502 811.781 216.658C812.273 216.814 812.657 217.066 812.933 217.414C813.209 217.762 813.347 218.206 813.347 218.746C813.347 219.442 813.131 219.976 812.699 220.348C812.279 220.72 811.589 220.966 810.629 221.086L810.611 220.96C811.667 221.008 812.429 221.254 812.897 221.698C813.365 222.13 813.599 222.688 813.599 223.372C813.599 223.996 813.419 224.518 813.059 224.938C812.699 225.346 812.225 225.646 811.637 225.838C811.061 226.03 810.437 226.126 809.765 226.126ZM822.53 225.442L822.35 225.208L824.06 225.46V225.964L821.864 226.054L821.738 224.326L821.828 224.38C821.288 224.944 820.7 225.376 820.064 225.676C819.428 225.976 818.816 226.126 818.228 226.126C817.532 226.126 816.956 225.91 816.5 225.478C816.056 225.046 815.834 224.392 815.834 223.516C815.834 222.808 815.978 222.268 816.266 221.896C816.566 221.524 816.968 221.272 817.472 221.14C817.976 221.008 818.546 220.942 819.182 220.942H821.81L821.666 221.086V219.106C821.666 218.398 821.468 217.888 821.072 217.576C820.676 217.264 820.142 217.108 819.47 217.108C819.11 217.108 818.726 217.15 818.318 217.234C817.91 217.318 817.478 217.438 817.022 217.594L817.202 217.378L817.058 219.088H816.428L816.284 217.09C816.908 216.874 817.502 216.712 818.066 216.604C818.63 216.484 819.158 216.424 819.65 216.424C820.538 216.424 821.24 216.622 821.756 217.018C822.272 217.414 822.53 218.062 822.53 218.962V225.442ZM816.716 223.426C816.716 224.11 816.878 224.62 817.202 224.956C817.538 225.28 817.964 225.442 818.48 225.442C818.96 225.442 819.488 225.298 820.064 225.01C820.652 224.722 821.216 224.326 821.756 223.822L821.666 224.11V221.41L821.81 221.554H819.308C818.372 221.554 817.706 221.698 817.31 221.986C816.914 222.274 816.716 222.754 816.716 223.426ZM824.636 228.718L824.618 225.424L825.824 225.262L825.212 225.532C825.644 225.232 826.022 224.884 826.346 224.488C826.67 224.08 826.934 223.57 827.138 222.958C827.354 222.334 827.516 221.548 827.624 220.6C827.732 219.652 827.792 218.488 827.804 217.108L828.038 217.342L826.112 217.054V216.55H834.068V217.054L832.322 217.36L832.538 217.144V225.478L832.34 225.262L834.482 225.424L834.464 228.718H833.888L833.546 225.802L833.762 226H825.266L825.518 225.802L825.212 228.718H824.636ZM826.094 225.514L826.148 225.298H831.908L831.674 225.478V217.018L831.854 217.252H828.254L828.47 217C828.47 218.728 828.386 220.156 828.218 221.284C828.05 222.412 827.792 223.306 827.444 223.966C827.096 224.626 826.646 225.142 826.094 225.514ZM842.763 225.442L842.583 225.208L844.293 225.46V225.964L842.097 226.054L841.971 224.326L842.061 224.38C841.521 224.944 840.933 225.376 840.297 225.676C839.661 225.976 839.049 226.126 838.461 226.126C837.765 226.126 837.189 225.91 836.733 225.478C836.289 225.046 836.067 224.392 836.067 223.516C836.067 222.808 836.211 222.268 836.499 221.896C836.799 221.524 837.201 221.272 837.705 221.14C838.209 221.008 838.779 220.942 839.415 220.942H842.043L841.899 221.086V219.106C841.899 218.398 841.701 217.888 841.305 217.576C840.909 217.264 840.375 217.108 839.703 217.108C839.343 217.108 838.959 217.15 838.551 217.234C838.143 217.318 837.711 217.438 837.255 217.594L837.435 217.378L837.291 219.088H836.661L836.517 217.09C837.141 216.874 837.735 216.712 838.299 216.604C838.863 216.484 839.391 216.424 839.883 216.424C840.771 216.424 841.473 216.622 841.989 217.018C842.505 217.414 842.763 218.062 842.763 218.962V225.442ZM836.949 223.426C836.949 224.11 837.111 224.62 837.435 224.956C837.771 225.28 838.197 225.442 838.713 225.442C839.193 225.442 839.721 225.298 840.297 225.01C840.885 224.722 841.449 224.326 841.989 223.822L841.899 224.11V221.41L842.043 221.554H839.541C838.605 221.554 837.939 221.698 837.543 221.986C837.147 222.274 836.949 222.754 836.949 223.426ZM845.569 217.126L845.803 217.378L844.039 217.09V216.604L847.909 216.496V216.982L846.199 217.342L846.433 217.126V219.232C846.433 220.144 846.631 220.786 847.027 221.158C847.435 221.53 848.005 221.716 848.737 221.716C849.121 221.716 849.547 221.674 850.015 221.59C850.483 221.506 850.987 221.398 851.527 221.266L851.311 221.464V217.126L851.491 217.342L849.835 217.09V216.604L853.705 216.496V216.982L851.959 217.342L852.175 217.126V225.406L851.959 225.172L853.705 225.496V226H849.367V225.496L851.509 225.19L851.311 225.406V221.644L851.527 221.878C850.963 222.034 850.417 222.16 849.889 222.256C849.373 222.352 848.899 222.4 848.467 222.4C847.567 222.4 846.859 222.172 846.343 221.716C845.827 221.248 845.569 220.468 845.569 219.376V217.126ZM855.183 226V225.496L856.911 225.172L856.713 225.406V217.144L856.947 217.378L855.183 217.09V216.604L859.053 216.496V216.982L857.307 217.342L857.541 217.126V224.11H857.361L863.283 217.54L863.121 217.864V217.144L863.301 217.342L861.609 217.09V216.604L865.479 216.496V216.982L863.733 217.342L863.949 217.126V225.406L863.751 225.172L865.479 225.496V226H861.609V225.496L863.319 225.19L863.121 225.406V218.314L863.319 218.332L857.379 224.938L857.541 224.65V225.406L857.415 225.226L859.053 225.496V226H855.183ZM876.644 220.366V221.068H871.748V220.366H876.644ZM882.904 226V225.496L884.632 225.172L884.434 225.478V217.09L884.668 217.378L882.904 217.09V216.604L886.792 216.496V216.982L885.064 217.342L885.298 217.072V220.942L885.028 220.708H891.13L890.842 220.942V217.09L891.022 217.342L889.348 217.09V216.604L893.236 216.496V216.982L891.49 217.342L891.706 217.072V225.478L891.49 225.172L893.236 225.496V226H889.348V225.496L891.04 225.19L890.842 225.478V221.14L891.13 221.392H885.028L885.298 221.14V225.478L885.1 225.19L886.792 225.496V226H882.904ZM901.773 225.442L901.593 225.208L903.303 225.46V225.964L901.107 226.054L900.981 224.326L901.071 224.38C900.531 224.944 899.943 225.376 899.307 225.676C898.671 225.976 898.059 226.126 897.471 226.126C896.775 226.126 896.199 225.91 895.743 225.478C895.299 225.046 895.077 224.392 895.077 223.516C895.077 222.808 895.221 222.268 895.509 221.896C895.809 221.524 896.211 221.272 896.715 221.14C897.219 221.008 897.789 220.942 898.425 220.942H901.053L900.909 221.086V219.106C900.909 218.398 900.711 217.888 900.315 217.576C899.919 217.264 899.385 217.108 898.713 217.108C898.353 217.108 897.969 217.15 897.561 217.234C897.153 217.318 896.721 217.438 896.265 217.594L896.445 217.378L896.301 219.088H895.671L895.527 217.09C896.151 216.874 896.745 216.712 897.309 216.604C897.873 216.484 898.401 216.424 898.893 216.424C899.781 216.424 900.483 216.622 900.999 217.018C901.515 217.414 901.773 218.062 901.773 218.962V225.442ZM895.959 223.426C895.959 224.11 896.121 224.62 896.445 224.956C896.781 225.28 897.207 225.442 897.723 225.442C898.203 225.442 898.731 225.298 899.307 225.01C899.895 224.722 900.459 224.326 900.999 223.822L900.909 224.11V221.41L901.053 221.554H898.551C897.615 221.554 896.949 221.698 896.553 221.986C896.157 222.274 895.959 222.754 895.959 223.426ZM904.437 226V225.496L906.165 225.172L905.967 225.478V217.09L906.201 217.378L904.437 217.09V216.604L908.307 216.496V216.982L906.597 217.342L906.831 217.072V225.568L906.561 225.298H911.223L911.025 225.568V217.09L911.205 217.342L909.549 217.09V216.604L913.365 216.496V216.982L911.655 217.342L911.889 217.072V225.586L911.655 225.298H916.353L916.083 225.568V217.09L916.263 217.342L914.607 217.09V216.604L918.459 216.496V216.982L916.713 217.342L916.947 217.072V225.478L916.731 225.172L918.459 225.496V226H904.437ZM919.941 226V225.496L921.669 225.172L921.471 225.406V217.144L921.705 217.378L919.941 217.09V216.604L923.811 216.496V216.982L922.065 217.342L922.299 217.126V224.11H922.119L928.041 217.54L927.879 217.864V217.144L928.059 217.342L926.367 217.09V216.604L930.237 216.496V216.982L928.491 217.342L928.707 217.126V225.406L928.509 225.172L930.237 225.496V226H926.367V225.496L928.077 225.19L927.879 225.406V218.314L928.077 218.332L922.137 224.938L922.299 224.65V225.406L922.173 225.226L923.811 225.496V226H919.941ZM935.317 230.14V229.636L937.009 229.33L936.847 229.528V217.216L937.009 217.396L935.317 217.108V216.604L937.513 216.496L937.639 218.044L937.513 217.972C938.077 217.456 938.635 217.072 939.187 216.82C939.739 216.556 940.285 216.424 940.825 216.424C941.485 216.424 942.079 216.61 942.607 216.982C943.147 217.354 943.573 217.894 943.885 218.602C944.209 219.298 944.371 220.15 944.371 221.158C944.371 222.238 944.185 223.15 943.813 223.894C943.441 224.638 942.919 225.202 942.247 225.586C941.575 225.958 940.783 226.144 939.871 226.144C939.523 226.144 939.151 226.108 938.755 226.036C938.371 225.976 937.963 225.892 937.531 225.784L937.711 225.64V229.528L937.531 229.33L939.475 229.636V230.14H935.317ZM939.817 225.46C940.981 225.46 941.875 225.094 942.499 224.362C943.135 223.618 943.453 222.58 943.453 221.248C943.453 220.372 943.327 219.628 943.075 219.016C942.823 218.404 942.475 217.936 942.031 217.612C941.599 217.276 941.107 217.108 940.555 217.108C940.087 217.108 939.595 217.234 939.079 217.486C938.575 217.738 938.077 218.116 937.585 218.62L937.711 218.296V225.298L937.567 225.064C938.383 225.328 939.133 225.46 939.817 225.46ZM950.345 226.126C949.577 226.126 948.893 225.946 948.293 225.586C947.705 225.226 947.243 224.692 946.907 223.984C946.571 223.276 946.403 222.418 946.403 221.41C946.403 220.402 946.571 219.526 946.907 218.782C947.255 218.026 947.741 217.444 948.365 217.036C949.001 216.628 949.745 216.424 950.597 216.424C951.389 216.424 952.049 216.598 952.577 216.946C953.105 217.294 953.501 217.774 953.765 218.386C954.029 218.998 954.161 219.7 954.161 220.492C954.161 220.588 954.155 220.69 954.143 220.798C954.143 220.894 954.137 221.02 954.125 221.176H946.997V220.51H953.423L953.261 220.618C953.273 219.994 953.195 219.418 953.027 218.89C952.859 218.35 952.571 217.918 952.163 217.594C951.767 217.27 951.227 217.108 950.543 217.108C949.859 217.108 949.271 217.288 948.779 217.648C948.299 217.996 947.927 218.488 947.663 219.124C947.411 219.748 947.285 220.474 947.285 221.302C947.285 222.166 947.417 222.91 947.681 223.534C947.957 224.146 948.335 224.614 948.815 224.938C949.307 225.262 949.877 225.424 950.525 225.424C951.017 225.424 951.539 225.334 952.091 225.154C952.655 224.962 953.225 224.668 953.801 224.272L954.143 224.794C953.495 225.25 952.847 225.586 952.199 225.802C951.551 226.018 950.933 226.126 950.345 226.126ZM955.959 226V225.496L957.687 225.172L957.489 225.478V217.09L957.723 217.378L955.959 217.09V216.604L959.829 216.496V216.982L958.119 217.342L958.353 217.072V225.568L958.083 225.298H962.745L962.547 225.568V217.09L962.727 217.342L961.071 217.09V216.604L964.887 216.496V216.982L963.177 217.342L963.411 217.072V225.586L963.177 225.298H967.875L967.605 225.568V217.09L967.785 217.342L966.129 217.09V216.604L969.981 216.496V216.982L968.235 217.342L968.469 217.072V225.478L968.253 225.172L969.981 225.496V226H955.959ZM975.693 226.126C974.925 226.126 974.241 225.946 973.641 225.586C973.053 225.226 972.591 224.692 972.255 223.984C971.919 223.276 971.751 222.418 971.751 221.41C971.751 220.402 971.919 219.526 972.255 218.782C972.603 218.026 973.089 217.444 973.713 217.036C974.349 216.628 975.093 216.424 975.945 216.424C976.737 216.424 977.397 216.598 977.925 216.946C978.453 217.294 978.849 217.774 979.113 218.386C979.377 218.998 979.509 219.7 979.509 220.492C979.509 220.588 979.503 220.69 979.491 220.798C979.491 220.894 979.485 221.02 979.473 221.176H972.345V220.51H978.771L978.609 220.618C978.621 219.994 978.543 219.418 978.375 218.89C978.207 218.35 977.919 217.918 977.511 217.594C977.115 217.27 976.575 217.108 975.891 217.108C975.207 217.108 974.619 217.288 974.127 217.648C973.647 217.996 973.275 218.488 973.011 219.124C972.759 219.748 972.633 220.474 972.633 221.302C972.633 222.166 972.765 222.91 973.029 223.534C973.305 224.146 973.683 224.614 974.163 224.938C974.655 225.262 975.225 225.424 975.873 225.424C976.365 225.424 976.887 225.334 977.439 225.154C978.003 224.962 978.573 224.668 979.149 224.272L979.491 224.794C978.843 225.25 978.195 225.586 977.547 225.802C976.899 226.018 976.281 226.126 975.693 226.126ZM981.306 226V225.496L983.034 225.172L982.836 225.478V217.09L983.07 217.378L981.306 217.09V216.604L985.194 216.496V216.982L983.466 217.342L983.7 217.072V220.942L983.43 220.708H989.532L989.244 220.942V217.09L989.424 217.342L987.75 217.09V216.604L991.638 216.496V216.982L989.892 217.342L990.108 217.072V225.478L989.892 225.172L991.638 225.496V226H987.75V225.496L989.442 225.19L989.244 225.478V221.14L989.532 221.392H983.43L983.7 221.14V225.478L983.502 225.19L985.194 225.496V226H981.306ZM993.119 226V225.496L994.847 225.172L994.649 225.406V217.144L994.883 217.378L993.119 217.09V216.604L996.989 216.496V216.982L995.243 217.342L995.477 217.126V224.11H995.297L1001.22 217.54L1001.06 217.864V217.144L1001.24 217.342L999.545 217.09V216.604L1003.41 216.496V216.982L1001.67 217.342L1001.88 217.126V225.406L1001.69 225.172L1003.41 225.496V226H999.545V225.496L1001.25 225.19L1001.06 225.406V218.314L1001.25 218.332L995.315 224.938L995.477 224.65V225.406L995.351 225.226L996.989 225.496V226H993.119ZM1004.34 226V225.514L1005.98 225.19L1005.74 225.37L1006.7 223.12C1006.88 222.7 1007.1 222.394 1007.36 222.202C1007.63 221.998 1007.95 221.878 1008.33 221.842L1008.41 221.932C1007.54 221.884 1006.86 221.656 1006.35 221.248C1005.86 220.84 1005.62 220.198 1005.62 219.322C1005.62 218.662 1005.76 218.134 1006.05 217.738C1006.34 217.33 1006.73 217.03 1007.22 216.838C1007.72 216.646 1008.3 216.55 1008.95 216.55H1013.14V217.054L1011.45 217.378L1011.61 217.234V225.388L1011.47 225.208L1013.14 225.496V226H1009.25V225.496L1010.89 225.208L1010.75 225.388V221.95L1010.87 222.076H1009.36C1008.88 222.076 1008.48 222.172 1008.17 222.364C1007.87 222.544 1007.62 222.88 1007.42 223.372L1006.35 226H1004.34ZM1010.75 221.608V217.018L1010.93 217.198H1008.98C1008.26 217.198 1007.66 217.354 1007.18 217.666C1006.71 217.978 1006.48 218.524 1006.48 219.304C1006.48 220.096 1006.71 220.654 1007.18 220.978C1007.65 221.302 1008.37 221.464 1009.34 221.464H1010.87L1010.75 221.608ZM1016.58 222.22L1016.45 213.49H1017.41L1017.28 222.166L1016.58 222.22ZM1016.25 225.442C1016.25 225.238 1016.32 225.076 1016.45 224.956C1016.58 224.824 1016.74 224.758 1016.92 224.758C1017.12 224.758 1017.29 224.824 1017.41 224.956C1017.54 225.076 1017.6 225.238 1017.6 225.442C1017.6 225.658 1017.53 225.826 1017.39 225.946C1017.26 226.066 1017.1 226.126 1016.92 226.126C1016.72 226.126 1016.55 226.066 1016.43 225.946C1016.31 225.826 1016.25 225.658 1016.25 225.442Z" fill="#191D29"/>
<defs>
<clipPath id="clip0_182_92">
<rect width="654" height="246" fill="white" transform="matrix(-1 0 0 1 1287 137)"/>
</clipPath>
</defs>
</svg>
